<?xml version="1.0"?>
<svg xmlns="http://www.w3.org/2000/svg" height="512px" viewBox="0 -15 452.00269 452" width="512px" class=""><g><path d="m0 279.523438c.0351562 29.039062 18.253906 54.945312 45.570312 64.796874v18.492188c-.011718 19.113281 10.25 36.761719 26.867188 46.207031 16.617188 9.445313 37.027344 9.230469 53.445312-.558593 15.570313 14.125 38.003907 17.738281 57.222657 9.222656 19.21875-8.519532 31.609375-27.566406 31.605469-48.589844v-61.929688h22.578124v61.929688c-.003906 21.023438 12.386719 40.070312 31.605469 48.585938 19.21875 8.515624 41.652344 4.902343 57.222657-9.222657 16.417968 9.789063 36.828124 10.003907 53.445312.558594s26.878906-27.09375 26.867188-46.207031v-18.492188c23.464843-8.414062 40.542968-28.867187 44.636718-53.457031 4.097656-24.589844-5.425781-49.472656-24.894531-65.042969 13.332031-11.464844 19.8125-28.996094 17.140625-46.378906-2.675781-17.382812-14.125-32.15625-30.289062-39.085938 7.179687-24.316406.421874-50.609374-17.589844-68.453124-18.011719-17.84375-44.371094-24.351563-68.617188-16.945313 3.667969-16.941406-2.652344-34.488281-16.285156-45.195313-13.632812-10.707031-32.179688-12.691406-47.765625-5.109374-15.589844 7.578124-25.480469 23.394531-25.476563 40.726562v69.789062h-22.578124v-69.789062c.03125-17.355469-9.855469-33.203125-25.460938-40.804688-15.601562-7.597656-34.175781-5.609374-47.820312 5.121094-13.640626 10.730469-19.953126 28.3125-16.246094 45.265625-24.25-7.425781-50.621094-.925781-68.640625 16.921875-18.015625 17.851563-24.765625 44.160156-17.566407 68.480469-16.15625 6.933594-27.597656 21.707031-30.269531 39.085937-2.675781 17.378907 3.796875 34.90625 17.121094 46.375-16.320313 13.046876-25.828125 32.804688-25.828125 53.703126zm154 15.640624c-6.625-.007812-11.992188-5.375-12-12v-144c.007812-6.625 5.375-11.992187 12-12h144c6.625.007813 11.992188 5.375 12 12v144c-.007812 6.625-5.375 11.992188-12 12zm95.289062-249.789062c.007813-13.953125 8.71875-26.421875 21.820313-31.230469 13.097656-4.808593 27.808594-.933593 36.839844 9.703125 9.03125 10.640625 10.46875 25.78125 3.601562 37.925782-1.851562 1.117187-3.664062 2.316406-5.425781 3.613281-1.730469 1.269531-2.652344 3.371093-2.414062 5.507812.238281 2.132813 1.601562 3.980469 3.570312 4.835938 1.972656.855469 4.25.59375 5.976562-.691407 21.667969-15.964843 51.566407-14.550781 71.632813 3.390626 20.066406 17.941406 24.808594 47.492187 11.359375 70.808593-1.105469 1.859375-1.128906 4.167969-.054688 6.042969 1.070313 1.878906 3.066407 3.035156 5.230469 3.027344 2.160157-.007813 4.152344-1.175782 5.210938-3.058594.699219-1.214844 1.363281-2.453125 1.988281-3.707031 10.542969 4.601562 18.503906 13.640625 21.742188 24.675781 3.238281 11.039062 1.417968 22.945312-4.96875 32.511719-2.605469 3.933593-5.914063 7.359375-9.753907 10.101562-9.988281-5.375-21.160156-8.183593-32.5-8.171875-3.316406 0-6 2.6875-6 6 0 3.316406 2.683594 6 6 6 31.398438 0 56.855469 25.457032 56.855469 56.859375 0 31.398438-25.457031 56.855469-56.855469 56.855469-3.316406 0-6 2.6875-6 6s2.683594 6 6 6c3.78125-.003906 7.554688-.316406 11.285157-.941406v15.371094c0 22.722656-18.421876 41.140624-41.144532 41.140624s-41.140625-18.417968-41.140625-41.140624c0-3.3125-2.6875-6-6-6-3.316406 0-6 2.6875-6 6-.007812 14.410156 5.859375 28.203124 16.246094 38.191406-12.3125 10.023437-29.292969 12.066406-43.632813 5.25-14.335937-6.816406-23.472656-21.277344-23.46875-37.15625v-61.925782h48.710938c13.25-.015624 23.984375-10.75 24-24v-144c-.015625-13.246093-10.75-23.984374-24-24h-48.710938zm-222.683593 163.355469c-6.386719-9.566407-8.203125-21.472657-4.96875-32.507813 3.238281-11.039062 11.195312-20.074218 21.738281-24.679687.625 1.253906 1.285156 2.492187 1.988281 3.707031 1.058594 1.886719 3.050781 3.054688 5.210938 3.0625 2.164062.007812 4.160156-1.148438 5.230469-3.027344 1.074218-1.878906 1.050781-4.1875-.054688-6.042968-13.457031-23.316407-8.71875-52.875 11.351562-70.820313 20.070313-17.941406 49.972657-19.351563 71.640626-3.378906 2.667968 1.953125 6.410156 1.382812 8.375-1.277344 1.964843-2.65625 1.40625-6.402344-1.242188-8.375-1.761719-1.300781-3.574219-2.5-5.425781-3.613281-6.871094-12.148438-5.4375-27.296875 3.59375-37.9375 9.035156-10.640625 23.746093-14.515625 36.851562-9.707032 13.101563 4.8125 21.8125 17.285157 21.816407 31.246094v69.785156h-48.710938c-13.25.015626-23.984375 10.753907-24 24v144c.015625 13.25 10.75 23.984376 24 24h48.710938v61.929688c.003906 15.878906-9.132813 30.339844-23.46875 37.15625-14.339844 6.816406-31.320313 4.773438-43.632813-5.25 10.386719-9.988281 16.253906-23.78125 16.246094-38.191406 0-3.3125-2.683594-6-6-6-3.3125 0-6 2.6875-6 6 0 22.722656-18.417969 41.144531-41.140625 41.144531s-41.144532-18.421875-41.144532-41.144531v-15.371094c3.730469.625 7.503907.9375 11.285157.941406 3.316406 0 6-2.6875 6-6s-2.683594-6-6-6c-31.398438 0-56.855469-25.457031-56.855469-56.855468 0-31.402344 25.457031-56.859376 56.855469-56.859376 3.316406 0 6-2.683593 6-6 0-3.3125-2.683594-6-6-6-11.339844-.011718-22.511719 2.796876-32.5 8.171876-3.839844-2.746094-7.144531-6.167969-9.75-10.105469zm0 0" data-original="#000000" class="active-path" data-old_color="#000000" fill="#CA7C89"/><path d="m178.265625 104.679688c3.3125 0 6-2.6875 6-6v-17.515626c0-3.3125-2.6875-6-6-6s-6 2.6875-6 6v17.515626c0 3.3125 2.6875 6 6 6zm0 0" data-original="#000000" class="active-path" data-old_color="#000000" fill="#CA7C89"/><path d="m273.734375 75.164062c-3.3125 0-6 2.6875-6 6v17.515626c0 3.3125 2.6875 6 6 6s6-2.6875 6-6v-17.515626c0-3.3125-2.6875-6-6-6zm0 0" data-original="#000000" class="active-path" data-old_color="#000000" fill="#CA7C89"/><path d="m178.265625 347.164062c3.3125 0 6-2.683593 6-6v-17.515624c0-3.3125-2.6875-6-6-6s-6 2.6875-6 6v17.515624c0 3.316407 2.6875 6 6 6zm0 0" data-original="#000000" class="active-path" data-old_color="#000000" fill="#CA7C89"/><path d="m273.734375 317.648438c-3.3125 0-6 2.6875-6 6v17.515624c0 3.316407 2.6875 6 6 6s6-2.683593 6-6v-17.515624c0-3.3125-2.6875-6-6-6zm0 0" data-original="#000000" class="active-path" data-old_color="#000000" fill="#CA7C89"/><path d="m338.484375 169.429688h17.515625c3.3125 0 6-2.6875 6-6s-2.6875-6-6-6h-17.515625c-3.3125 0-6 2.6875-6 6s2.6875 6 6 6zm0 0" data-original="#000000" class="active-path" data-old_color="#000000" fill="#CA7C89"/><path d="m338.484375 264.898438h17.515625c3.3125 0 6-2.683594 6-6 0-3.3125-2.6875-6-6-6h-17.515625c-3.3125 0-6 2.6875-6 6 0 3.316406 2.6875 6 6 6zm0 0" data-original="#000000" class="active-path" data-old_color="#000000" fill="#CA7C89"/><path d="m96 169.429688h17.515625c3.3125 0 6-2.6875 6-6s-2.6875-6-6-6h-17.515625c-3.3125 0-6 2.6875-6 6s2.6875 6 6 6zm0 0" data-original="#000000" class="active-path" data-old_color="#000000" fill="#CA7C89"/><path d="m96 264.898438h17.515625c3.3125 0 6-2.683594 6-6 0-3.3125-2.6875-6-6-6h-17.515625c-3.3125 0-6 2.6875-6 6 0 3.316406 2.6875 6 6 6zm0 0" data-original="#000000" class="active-path" data-old_color="#000000" fill="#CA7C89"/><path d="m291 140.164062h-130c-3.3125 0-6 2.6875-6 6v130c0 3.316407 2.6875 6 6 6h130c3.3125 0 6-2.683593 6-6v-130c0-3.3125-2.6875-6-6-6zm-6 130h-118v-118h118zm0 0" data-original="#000000" class="active-path" data-old_color="#000000" fill="#CA7C89"/></g> </svg>
