<?xml version="1.0" encoding="UTF-8" standalone="no"?>
<svg
   xmlns:dc="http://purl.org/dc/elements/1.1/"
   xmlns:cc="http://creativecommons.org/ns#"
   xmlns:rdf="http://www.w3.org/1999/02/22-rdf-syntax-ns#"
   xmlns:svg="http://www.w3.org/2000/svg"
   xmlns="http://www.w3.org/2000/svg"
   viewBox="0 0 2122.875 1002"
   height="1002"
   width="2122.875"
   id="svg387"
   version="1.1">
  <metadata
     id="metadata393">
    <rdf:RDF>
      <cc:Work
         rdf:about="">
        <dc:format>image/svg+xml</dc:format>
        <dc:type
           rdf:resource="http://purl.org/dc/dcmitype/StillImage" />
        <dc:title></dc:title>
      </cc:Work>
    </rdf:RDF>
  </metadata>
  <defs
     id="defs391" />
  <g
     transform="translate(-1683.5061,776.93707)"
     id="g1365">
    <rect
       style="color:#000000;clip-rule:nonzero;display:inline;overflow:visible;visibility:visible;opacity:1;isolation:auto;mix-blend-mode:normal;color-interpolation:sRGB;color-interpolation-filters:linearRGB;solid-color:#000000;solid-opacity:1;vector-effect:none;fill:#97cbfd;fill-opacity:1;fill-rule:nonzero;stroke:none;stroke-width:6.46022034;stroke-linecap:butt;stroke-linejoin:miter;stroke-miterlimit:4;stroke-dasharray:none;stroke-dashoffset:0;stroke-opacity:1;color-rendering:auto;image-rendering:auto;shape-rendering:auto;text-rendering:auto;enable-background:accumulate"
       id="rect527"
       width="1060.875"
       height="706.9895"
       x="2745.5061"
       y="-776.93707" />
    <rect
       style="color:#000000;clip-rule:nonzero;display:inline;overflow:visible;visibility:visible;opacity:1;isolation:auto;mix-blend-mode:normal;color-interpolation:sRGB;color-interpolation-filters:linearRGB;solid-color:#000000;solid-opacity:1;vector-effect:none;fill:#fff200;fill-opacity:1;fill-rule:nonzero;stroke:none;stroke-width:6;stroke-linecap:butt;stroke-linejoin:miter;stroke-miterlimit:4;stroke-dasharray:none;stroke-dashoffset:0;stroke-opacity:1;color-rendering:auto;image-rendering:auto;shape-rendering:auto;text-rendering:auto;enable-background:accumulate"
       id="rect1360"
       width="676.78656"
       height="587.21185"
       x="1895.9976"
       y="-719.82458" />
    <path
       style="fill:#040498"
       d="m 3464.5061,224.44905 c 0,-0.6807 9.2783,-45.3968 14.916,-71.8861 l 3.618,-17 7.733,-0.29206 c 7.1425,-0.26977 7.733,-0.14064 7.733,1.69098 0,2.97911 1.696,3.44877 4.7568,1.31727 4.1867,-2.9155 8.9475,-4.21619 15.4323,-4.21619 15.0419,0 22.6202,10.73835 21.5822,30.58189 -0.3932,7.51784 -1.0362,10.38698 -3.5145,15.68301 -5.7443,12.27525 -14.6347,19.50564 -25.1572,20.45979 -8.2484,0.74794 -12.3319,-0.25564 -17.6939,-4.34855 -2.552,-1.94799 -4.9634,-3.16703 -5.3586,-2.70897 -0.3952,0.45806 -1.5007,4.65783 -2.4566,9.33283 -0.956,4.675 -2.4159,11.5375 -3.2444,15.25 l -1.5064,6.75 h -8.4199 c -4.6309,0 -8.4198,-0.2763 -8.4198,-0.6139 z m 48.5285,-38.40371 c 1.7955,-1.10969 4.0257,-3.17924 4.956,-4.59901 5.0674,-7.73395 7.1788,-23.26626 3.9986,-29.41611 -4.1388,-8.00348 -15.9971,-7.94 -22.3368,0.11956 -2.9584,3.76111 -6.1463,14.12416 -6.1463,19.9805 0,12.85293 9.8689,19.88502 19.5285,13.91506 z m -1613.0363,13.2744 c -7.0297,-2.50635 -11.702,-6.39112 -15.0369,-12.50246 -4.3806,-8.02777 -4.0047,-14.01051 2.9377,-46.75433 3.2069,-15.125 6.2854,-28.0625 6.8412,-28.75 0.6539,-0.80869 3.7918,-1.25 8.8882,-1.25 7.3761,0 7.8776,0.13587 7.8776,2.13425 0,1.17383 -2.7455,15.20671 -6.101,31.18416 -3.9766,18.93452 -5.9066,30.24771 -5.5427,32.48978 1.0486,6.4623 6.7376,10.19181 15.5464,10.19181 6.3078,0 9.7599,-1.31498 13.8764,-5.28573 4.2519,-4.10144 5.8206,-9.3137 12.7893,-42.49593 3.083,-14.67988 5.8179,-27.03441 6.0775,-27.45451 0.861,-1.3931 16.366,-0.89624 16.918,0.54213 0.5416,1.41155 -8.3749,45.72534 -11.5082,57.19404 -4.3454,15.90521 -10.3386,24.07904 -21.3214,29.07933 -5.3456,2.43374 -7.7312,2.88289 -16.7343,3.15063 -8.1476,0.24229 -11.622,-0.0878 -15.5078,-1.47317 z m 153.7304,0.14643 c -14.9684,-7.67075 -12.7608,-30.50526 3.4569,-35.75656 2.6513,-0.85847 9.9284,-2.20421 16.1715,-2.99053 12.4644,-1.56989 14.2216,-2.50773 14.3684,-7.66821 0.1327,-4.66776 -3.009,-6.98792 -9.4622,-6.98792 -4.4463,0 -5.4003,0.40206 -8.3335,3.51216 l -3.3124,3.51215 -7.0872,-0.65868 c -3.898,-0.36228 -7.3164,-1.02954 -7.5966,-1.48279 -0.8011,-1.29626 2.0835,-6.08339 5.7371,-9.52089 5.8177,-5.47356 9.3836,-6.72167 20.4876,-7.17086 11.2381,-0.45462 15.6689,0.52537 20.4091,4.51396 6.8764,5.7861 7.3185,10.46958 2.9387,31.13159 -1.9049,8.98647 -3,17.07491 -3,22.15802 v 8.00534 h -7.5215 c -7.2522,0 -7.5637,-0.0984 -8.7025,-2.75 -0.6495,-1.5125 -1.2978,-2.92039 -1.4405,-3.12864 -0.1427,-0.20826 -2.5497,1.09098 -5.3489,2.88719 -6.3381,4.06717 -16.3506,5.16883 -21.764,2.39467 z m 22.5954,-13.43363 c 3.3085,-2.01711 6.6719,-7.95541 7.3459,-12.96959 0.3188,-2.37143 0.1046,-2.48908 -4.1639,-2.28777 -6.614,0.31194 -13.6294,2.20841 -16.4884,4.45731 -3.0002,2.35994 -3.45,8.13615 -0.8567,11.00172 2.306,2.54809 9.8286,2.44097 14.1631,-0.20167 z m 194.6324,13.62381 c -13.1772,-5.73961 -13.6272,-27.90743 -0.6993,-34.45161 4.5159,-2.286 6.6173,-2.7527 20.539,-4.56153 5.9345,-0.77107 11.447,-1.94717 12.25,-2.61355 0.8137,-0.67533 1.4599,-2.90275 1.4599,-5.03245 0,-4.8989 -2.7062,-6.93426 -9.2197,-6.93426 -4.0543,0 -5.3604,0.52929 -8.6582,3.50858 l -3.8835,3.50858 -6.8693,-0.77859 c -7.7764,-0.8814 -8.2975,-1.80081 -4.3149,-7.61306 4.8133,-7.02455 13.4693,-10.78067 24.9456,-10.82468 12.858,-0.0493 20.5519,3.48913 23.6359,10.87036 1.9879,4.75754 1.715,8.70679 -1.6982,24.58415 -1.6981,7.89916 -3.1459,17.80838 -3.25,22.24466 l -0.1877,8 -6.8401,0.29774 c -7.2432,0.3153 -9.6599,-0.66545 -9.6599,-3.92018 0,-2.03327 -2.4558,-2.56719 -3.5636,-0.77478 -0.3748,0.60652 -2.9889,2.17713 -5.809,3.49023 -5.7958,2.69864 -13.3266,3.11311 -18.177,1.00039 z m 22.3577,-13.6178 c 3.6246,-2.20988 7.1346,-8.74 7.1699,-13.33914 0.022,-2.84489 -0.01,-2.85921 -4.728,-2.19833 -2.6125,0.36586 -7.083,1.32094 -9.9344,2.1224 -8.5427,2.4011 -11.4002,8.34375 -6.5827,13.68947 2.2225,2.46628 9.823,2.31811 14.0752,-0.2744 z m 134.6451,13.75631 c -5.7235,-2.31416 -10.4796,-5.90986 -13.3227,-10.07215 -4.3912,-6.42859 -5.4111,-10.77559 -4.9322,-21.0214 0.3531,-7.5541 0.934,-10.16147 3.3509,-15.03988 3.6533,-7.37429 9.4956,-13.46328 15.9666,-16.64074 6.6079,-3.2447 20.4543,-4.00466 27.0525,-1.48478 5.6612,2.16204 11.7548,9.04869 13.5088,15.26699 1.6423,5.8224 1.5957,18.74439 -0.075,20.7573 -0.9824,1.18366 -5.2563,1.51515 -22.3454,1.73317 -23.9435,0.30546 -23.5834,0.15848 -19.756,8.0649 3.4944,7.21843 10.3787,9.56393 17.7728,6.0552 1.9119,-0.90721 4.1444,-2.66943 4.9612,-3.91603 2.0734,-3.1645 3.1836,-3.39297 9.9246,-2.0426 3.8449,0.77022 6.0317,1.72403 6.2224,2.71398 0.4687,2.43392 -7.5629,10.74637 -13.1586,13.61862 -4.1111,2.11025 -6.8027,2.69004 -13.6233,2.93458 -5.1327,0.18402 -9.707,-0.18327 -11.5468,-0.92716 z m 26.9261,-42.05591 c -0.066,-2.1032 -0.7254,-4.9541 -1.4646,-6.33532 -2.8861,-5.39271 -11.5197,-6.98404 -17.5778,-3.23991 -3.5473,2.19233 -7.3369,8.33294 -7.3369,11.88842 0,2.00176 0.4297,2.05981 13.25,1.78984 l 13.25,-0.27903 z m 82.1207,41.90664 c -16.0955,-7.18435 -13.1129,-31.94115 4.401,-36.52983 1.9794,-0.51862 8.659,-1.58551 14.8435,-2.37088 6.1845,-0.78537 11.922,-1.99019 12.75,-2.67738 2.182,-1.81091 1.8951,-7.61491 -0.4945,-10.00455 -1.4664,-1.46636 -3.3334,-2 -6.9972,-2 -4.3,0 -5.5339,0.48499 -8.8455,3.4768 -3.7985,3.43171 -3.9359,3.46863 -10.593,2.84698 -4.3247,-0.40385 -6.9337,-1.12276 -7.2718,-2.00374 -0.8326,-2.16968 4.6533,-9.20397 9.303,-11.9289 5.9959,-3.51382 9.8152,-4.43376 18.5841,-4.4763 9.959,-0.0483 15.3846,1.64945 19.9906,6.25538 5.5527,5.55274 5.6729,8.06574 1.4447,30.20211 -2.0101,10.52337 -3.5324,21.37685 -3.3843,24.12767 l 0.2694,5 h -7.4866 c -7.1809,0 -7.5403,-0.11225 -8.8045,-2.75 -1.3961,-2.9127 -2.6515,-3.46091 -3.7725,-1.64722 -0.3748,0.60652 -2.9889,2.17713 -5.809,3.49023 -5.8036,2.70228 -13.3656,3.11511 -18.1274,0.98963 z m 21.0831,-13.1891 c 4.0908,-1.94121 7.0929,-6.51546 8.0003,-12.18972 0.8016,-5.01334 0.3464,-5.12157 -10.8394,-2.57742 -5.1001,1.16001 -7.9527,2.42838 -9.9474,4.42308 -3.3322,3.33225 -3.5209,5.76003 -0.7241,9.31566 2.4781,3.15035 8.132,3.58071 13.5106,1.0284 z m 88.424,13.01348 c -4.5668,-1.98043 -7.704,-4.98202 -10.3545,-9.90702 -1.8617,-3.45942 -2.1526,-5.62173 -2.1526,-16 0,-11.49232 0.1391,-12.29374 3.2879,-18.94325 6.7675,-14.29136 15.1929,-20.67167 27.3906,-20.74204 7.0936,-0.0409 11.7256,1.53664 16.6137,5.65818 1.8108,1.52679 3.4888,2.57943 3.729,2.33921 0.2403,-0.24022 1.9348,-7.38372 3.7656,-15.87443 l 3.3288,-15.43767 8.1922,-0.29044 c 7.8538,-0.27845 8.1922,-0.19987 8.1922,1.90225 0,3.68638 -17.2408,85.2997 -18.3109,86.67885 -0.6925,0.89245 -3.1901,1.20098 -8.0953,1 -6.4918,-0.26599 -7.121,-0.4816 -7.4134,-2.54066 -0.1757,-1.2375 -0.4676,-2.25 -0.6485,-2.25 -0.1808,0 -2.8952,1.35 -6.0319,3 -4.5875,2.41312 -6.9059,2.99234 -11.8516,2.96086 -3.3816,-0.0215 -7.7202,-0.72076 -9.6413,-1.55384 z m 24.8704,-14.91538 c 9.4726,-8.55785 11.9593,-26.28106 4.7587,-33.91589 -9.581,-10.1588 -22.1721,-1.67959 -25.6032,17.24198 -1.3843,7.63424 -0.092,13.27709 3.9711,17.34029 2.3759,2.37584 3.6743,2.84198 7.9161,2.84198 4.3966,0 5.5924,-0.46839 8.9573,-3.50836 z m 56.5853,14.91701 c -12.8486,-4.56205 -19.9309,-18.39206 -17.4457,-34.06727 3.1443,-19.83251 16.0333,-31.40489 35.0242,-31.44662 11.4663,-0.0252 18.7048,3.86918 23.1984,12.48103 2.776,5.32001 3.8747,23.45443 1.5386,25.39328 -0.9819,0.81486 -8.0203,1.27457 -22.3557,1.46012 -20.7365,0.2684 -20.9254,0.29049 -21.2373,2.48343 -0.4735,3.33007 2.7608,9.27577 6.2347,11.46111 2.2847,1.43729 4.3244,1.83031 7.8994,1.52206 3.9999,-0.34488 5.5302,-1.10672 9,-4.48069 l 4.1806,-4.06516 6.418,1.17503 c 3.5299,0.64627 6.5777,1.65584 6.7728,2.24349 0.6379,1.92092 -5.6682,9.46125 -10.4474,12.49213 -2.5709,1.63042 -6.2649,3.40626 -8.2089,3.94633 -5.0344,1.39861 -15.8321,1.08459 -20.5717,-0.59827 z m 28.1354,-38.80384 c 1.0272,-2.67687 -1.61,-9.43698 -4.6938,-12.03181 -4.0028,-3.36808 -10.2292,-3.50263 -14.9472,-0.323 -3.5654,2.40285 -8.5948,10.90929 -7.4987,12.68284 0.4125,0.66748 5.5181,1.06716 13.6319,1.06716 10.1754,0 13.0878,-0.30082 13.5078,-1.39519 z m 142.9222,38.16432 c -5.5336,-3.21184 -8.4833,-8.77942 -8.5039,-16.05125 -0.019,-6.79508 1.6414,-11.20111 5.6103,-14.88397 3.8556,-3.57771 10.5887,-5.58697 24.3192,-7.25725 12.3172,-1.49835 14.054,-2.43674 14.054,-7.59348 0,-3.99247 -3.8031,-6.98318 -8.8802,-6.98318 -4.909,0 -7.8011,1.27062 -10.6198,4.66565 -1.8892,2.27546 -2.4017,2.37121 -9.25,1.72805 -8.099,-0.76063 -8.6833,-1.53088 -5.3314,-7.02787 4.6465,-7.62013 13.4457,-11.47651 26.23,-11.4957 10.7766,-0.0162 17.7299,2.58549 21.4187,8.0141 3.3416,4.91765 3.1987,11.69476 -0.6325,29.9835 -2.0979,10.01479 -2.9658,16.68346 -2.75,21.13227 l 0.3152,6.5 h -7.9549 c -7.6612,0 -7.9767,-0.0923 -8.5451,-2.5 -0.7518,-3.18477 -1.4282,-3.14134 -7.4809,0.48036 -6.8722,4.11196 -16.1939,4.65807 -21.9987,1.28877 z m 23.5277,-13.02253 c 3.9816,-2.6832 6.5383,-6.81456 7.5153,-12.14386 l 0.7144,-3.89726 -5.3889,0.70555 c -13.3741,1.75102 -18.8889,4.82861 -18.8889,10.54122 0,6.82791 9.0281,9.52506 16.0481,4.79435 z m 55.837,13.87378 c -14.6234,-5.2258 -20.1043,-22.45221 -13.4716,-42.3404 3.3328,-9.99354 13.6017,-19.58756 23.9512,-22.37715 12.0851,-3.25742 25.8489,0.26795 31.4992,8.06801 3.3773,4.66214 4.8598,9.7055 3.3089,11.25639 -0.5663,0.56626 -4.1885,1.25558 -8.0494,1.53182 -6.8571,0.49063 -7.0344,0.44354 -7.6562,-2.03356 -0.8971,-3.57455 -4.5779,-6.70692 -8.6594,-7.36926 -4.4025,-0.71443 -10.762,2.36636 -13.857,6.71286 -5.1955,7.29638 -7.6692,23.70721 -4.498,29.83972 4.2621,8.242 15.8219,5.4243 22.0787,-5.38168 0.9459,-1.63367 1.6304,-1.68053 8.2465,-0.56458 3.9682,0.66933 7.4689,1.62788 7.7793,2.13012 0.9754,1.57831 -4.8192,10.97569 -8.9461,14.50813 -7.8065,6.68205 -22.2198,9.41677 -31.7261,6.01958 z m 72,0 c -17.746,-6.34172 -23.9809,-28.30926 -13.6068,-47.94131 6.2048,-11.74192 16.5383,-17.67907 30.7701,-17.67907 17.107,0 25.9516,9.45547 25.9516,27.74388 0,11.952 1.455,11.25612 -23.5352,11.25612 h -21.4648 v 3.04966 c 0,6.76774 6.1089,12.93904 12.8157,12.9466 4.0834,0.005 6.6626,-1.27048 11.1843,-5.52907 3.4913,-3.28819 3.5149,-3.29381 9.5,-2.27073 3.3,0.56409 6.4093,1.40748 6.9096,1.87419 1.2535,1.16935 -3.5194,8.14857 -7.8112,11.42207 -7.883,6.01269 -21.7557,8.32876 -30.7133,5.12766 z m 27.3563,-38.84457 c 0.2244,-0.6733 0.079,-3.02304 -0.3229,-5.22164 -1.5823,-8.65289 -11.333,-12.39655 -19.0206,-7.30272 -3.5451,2.34899 -8.5411,10.89888 -7.4244,12.70575 0.9683,1.56666 26.2423,1.39539 26.7679,-0.18139 z m 201.7785,38.53648 c -5.3883,-2.80607 -8.0199,-7.52612 -8.0199,-14.38485 0,-5.51922 7.0949,-42.97704 9.0305,-47.67744 0.8441,-2.04955 1.5914,-2.25 8.389,-2.25 4.1044,0 7.7289,0.43103 8.0544,0.95784 0.3256,0.52681 -1.5152,11.11236 -4.0908,23.52345 -5.071,24.43666 -5.0693,26.33766 0.026,28.65909 6.3608,2.89816 16.9241,-4.04744 20.4142,-13.4228 1.0682,-2.86967 3.4214,-12.41758 5.2293,-21.21758 1.8079,-8.8 3.7158,-16.5625 4.2399,-17.25 1.0663,-1.39897 15.2541,-1.79326 16.0861,-0.44705 0.6392,1.03422 -12.1798,62.39866 -13.2609,63.47973 -0.4485,0.44857 -3.921,0.68097 -7.7164,0.51645 -6.7518,-0.29267 -6.9019,-0.35772 -6.9466,-3.01154 -0.061,-3.62285 -1.0723,-4.43373 -3.1982,-2.56464 -6.8074,5.98523 -21.4484,8.62415 -28.2362,5.08934 z m 134.4724,-0.10925 c -13.9919,-4.83839 -20.51,-17.79545 -17.5379,-34.8627 2.3419,-13.448 10.6052,-24.15994 21.8985,-28.38767 4.1436,-1.55119 7.9917,-2.12172 14.4534,-2.14293 7.8836,-0.0259 9.4747,0.30019 15.1866,3.11214 10.2513,5.04672 14.6783,12.69937 14.7966,25.57812 0.1555,16.93193 -9.2953,31.33503 -24.0867,36.70841 -6.2248,2.26131 -18.1631,2.25871 -24.7105,-0.005 z m 19.1024,-12.815 c 10.0284,-4.7588 16.1297,-25.54164 10.1254,-34.49016 -4.731,-7.0508 -15.3004,-7.25088 -22.1324,-0.41896 -6.6204,6.62045 -9.819,22.30559 -6.0392,29.61496 3.2198,6.2264 11.1679,8.55811 18.0462,5.29416 z m 124.8557,13.20536 c -13.1771,-5.73961 -13.6271,-27.90743 -0.6993,-34.45161 4.5009,-2.27838 6.5782,-2.73639 20.4988,-4.51962 5.9124,-0.75738 11.4249,-1.9373 12.25,-2.62206 0.8545,-0.7092 1.5001,-2.88933 1.5001,-5.06585 0,-4.8989 -2.7062,-6.93426 -9.2196,-6.93426 -4.0461,0 -5.3619,0.53053 -8.623,3.4768 -3.7985,3.43171 -3.9359,3.46863 -10.593,2.84698 -4.14,-0.3866 -6.9386,-1.13523 -7.2468,-1.93858 -0.6784,-1.7679 4.3831,-8.64144 8.3802,-11.38027 1.7805,-1.22008 4.9395,-2.82556 7.0198,-3.56773 4.5111,-1.60938 19.2695,-1.84622 24.5013,-0.39319 7.4349,2.06487 12.7811,8.86867 12.7811,16.26585 0,1.85576 -1.3973,9.85771 -3.1052,17.78212 -1.806,8.37998 -3.1658,17.75507 -3.25,22.40802 l -0.1448,8 h -7.4705 c -6.7654,0 -7.5771,-0.21403 -8.601,-2.26771 -1.7629,-3.53604 -2.0851,-3.5918 -5.6128,-0.97138 -6.339,4.70857 -15.9263,6.13712 -22.3653,3.33249 z m 22.2996,-13.74794 c 3.7954,-2.34566 7.1923,-8.55347 7.228,-13.209 0.022,-2.84489 -0.01,-2.85921 -4.728,-2.19833 -8.8301,1.2366 -15.0396,3.47899 -17.1844,6.20559 -2.6077,3.3151 -2.606,5.39958 0.01,8.72142 2.7117,3.44743 9.5163,3.67011 14.6774,0.48032 z m -1613.0932,13.40454 c -0.4066,-0.66128 11.6238,-59.80752 12.8143,-63 0.3162,-0.84809 2.8876,-1.25 7.9975,-1.25 h 7.5314 v 3 c 0,1.65 0.3375,3.00202 0.75,3.00448 0.4125,0.002 3.9506,-1.61753 7.8625,-3.6 5.8157,-2.94729 8.2053,-3.60448 13.1062,-3.60448 13.0458,0 19.3357,7.88104 17.1652,21.50728 -1.7595,11.04622 -8.093,41.1437 -9.0365,42.94272 -0.7482,1.42651 -2.2868,1.75 -8.3236,1.75 -4.0732,0 -7.6613,-0.41333 -7.9735,-0.91852 -0.3122,-0.50518 1.2391,-9.39268 3.4474,-19.75 5.5257,-25.91663 5.7889,-28.54481 3.1255,-31.20828 -2.5096,-2.50959 -7.8799,-2.81751 -11.9981,-0.68794 -4.6647,2.41225 -9.9026,9.07761 -11.595,14.75515 -0.8706,2.92028 -2.9736,12.05959 -4.6734,20.30959 -1.6999,8.25 -3.5431,15.5625 -4.0961,16.25 -1.0981,1.36506 -15.3007,1.80604 -16.1038,0.5 z m 181.1329,-0.5 c -0.2333,-0.6875 2.5311,-15.2 6.143,-32.25 l 6.5673,-31 7.75,-0.29206 7.75,-0.29207 v 3.04207 c 0,3.5959 0.3055,3.67273 4.0376,1.01527 4.9038,-3.49185 10.0737,-5.13439 16.0702,-5.10571 6.827,0.0327 11.3955,2.09468 13.7293,6.1969 2.0236,3.55699 2.4425,3.58684 6.5346,0.4656 8.4314,-6.43092 20.582,-8.67377 27.5288,-5.08145 5.5741,2.88252 7.3139,6.89814 6.7375,15.55145 -0.5577,8.3731 -8.2957,45.80015 -9.8723,47.75 -0.6433,0.79572 -3.6918,1.25 -8.3882,1.25 -8.9695,0 -8.679,1.64066 -3.8124,-21.52753 5.8497,-27.84844 5.7773,-27.30096 3.9766,-30.04904 -2.1747,-3.31905 -7.7957,-3.29444 -12.7259,0.0557 -4.9968,3.39547 -8.3225,10.67485 -11.4537,25.07035 -1.4296,6.57278 -3.3335,15.10051 -4.2307,18.95051 l -1.6314,7 -7.7652,0.29234 c -5.6517,0.21277 -7.9004,-0.0601 -8.262,-1.00259 -0.2733,-0.71221 1.5335,-11.09225 4.0151,-23.06675 2.4816,-11.9745 4.5121,-22.81609 4.5121,-24.09242 0,-5.45903 -7.7318,-7.44263 -13.5283,-3.47075 -6.6957,4.58791 -8.0952,8.12744 -13.578,34.34018 -1.7256,8.25 -3.5878,15.5625 -4.1381,16.25 -0.6352,0.79364 -3.655,1.25 -8.2711,1.25 -4.9235,0 -7.4075,-0.40352 -7.6948,-1.25 z m 182.7799,0.36276 c -0.7181,-1.16191 11.9839,-62.06627 13.1974,-63.27978 0.5122,-0.51218 4.0366,-0.79663 7.8321,-0.63211 l 6.9009,0.29913 0.5,3.27104 0.5,3.27105 3.5609,-2.42864 c 5.9241,-4.04036 11.1132,-5.74254 17.6547,-5.79133 10.8331,-0.0808 17.2844,5.81693 17.2844,15.80135 0,4.87473 -8.1637,47.21428 -9.5298,49.4247 -0.789,1.27662 -15.1843,1.2235 -15.9769,-0.0589 -0.3436,-0.55593 1.5108,-11.36521 4.1208,-24.02062 l 4.7456,-23.00984 -2.0292,-2.72938 c -4.456,-5.99356 -15.6512,-2.65754 -20.8496,6.21293 -3.1368,5.35261 -3.69,7.23313 -7.5173,25.55769 -4.2295,20.24992 -3.4148,19 -12.3832,19 -4.1043,0 -7.7092,-0.39926 -8.0108,-0.88724 z m 145.8526,-0.45489 c -0.6701,-1.74626 11.4415,-60.65876 12.8302,-62.40787 0.6214,-0.78263 3.5639,-1.25 7.87,-1.25 h 6.8776 v 4.61636 4.61636 l 3.9402,-3.55979 c 5.5714,-5.03343 9.2292,-6.67293 14.8877,-6.67293 6.9663,0 7.5547,1.24382 4.1392,8.75 l -2.8438,6.25 h -4.6113 c -5.7645,0 -9.3465,1.82044 -13.7848,7.00551 -3.9973,4.67 -5.4755,8.94354 -10.0292,28.99449 l -3.293,14.5 -7.7177,0.29234 c -5.9612,0.2258 -7.8422,-0.0324 -8.2651,-1.13447 z m 336.9783,-0.0565 c -0.5618,-1.4641 15.9454,-82.43921 17.6032,-86.35138 0.8675,-2.04715 1.6262,-2.25 8.4158,-2.25 4.1044,0 7.7182,0.41378 8.0307,0.9195 0.3126,0.50573 -0.7542,7.1249 -2.3706,14.70928 -1.6164,7.58439 -2.7448,14.10389 -2.5075,14.4878 0.2372,0.38391 3.4746,-0.86339 7.1942,-2.77178 5.7584,-2.95446 7.7707,-3.4698 13.5489,-3.4698 4.7543,0 7.7439,0.5495 9.9854,1.83538 3.7527,2.15276 7.6994,9.31184 7.6994,13.9661 0,4.49834 -8.9658,47.53345 -10.2238,49.07352 -0.6492,0.79478 -3.7078,1.25 -8.3986,1.25 -7.0837,0 -7.3776,-0.0939 -7.3776,-2.35737 0,-1.29655 1.8,-10.9803 4,-21.51943 4.6921,-22.47741 4.9334,-26.35601 1.7775,-28.5665 -3.577,-2.50541 -8.9315,-1.95216 -13.5606,1.40114 -6.6764,4.83634 -8.8789,9.85181 -13.2698,30.21691 -2.1731,10.07889 -4.1611,18.88775 -4.4177,19.57525 -0.6949,1.86159 -15.4095,1.726 -16.1289,-0.14862 z m 285.2508,0.64338 c -0.4161,-0.67329 11.628,-59.8389 12.8326,-63.03886 0.3518,-0.93438 2.5065,-1.21235 7.7516,-1 l 7.2645,0.2941 -0.2681,4.25 c -0.1475,2.3375 0.1017,4.25 0.5538,4.25 0.4521,0 2.3317,-1.55762 4.1769,-3.46139 4.5144,-4.65765 8.8207,-6.53861 14.9699,-6.53861 6.6969,0 7.3214,1.59621 3.489,8.91819 -2.8748,5.49264 -3.0029,5.59 -8.014,6.09473 -12.9789,1.30721 -17.8926,9.51742 -23.9321,39.98708 -0.9266,4.675 -2.1428,9.0625 -2.7026,9.75 -1.1138,1.3681 -15.3125,1.80384 -16.1215,0.49476 z m 85.1413,-0.36682 c -0.5515,-1.65466 17.2224,-86.13437 18.4363,-87.62794 0.7742,-0.95252 8.5882,-1.25 32.8345,-1.25 17.5002,0 32.0275,0.33807 32.2829,0.75127 0.658,1.06478 -1.4397,11.49719 -2.6138,12.99873 -0.7322,0.93638 -6.8331,1.25 -24.3164,1.25 h -23.339 l -0.9621,3.75 c -2.7612,10.76221 -3.3294,15.49919 -1.963,16.36512 0.7414,0.46984 10.8839,0.86115 22.539,0.86957 11.655,0.008 21.4257,0.39504 21.7125,0.85916 0.2868,0.46411 0.1321,2.37661 -0.3439,4.25 -0.476,1.87338 -1.1427,4.64365 -1.4816,6.15615 l -0.6161,2.75 -22.231,0.0153 c -12.227,0.008 -22.7686,0.35715 -23.4258,0.77495 -1.5427,0.98077 -6.6032,22.31168 -5.5443,23.37052 0.4418,0.44183 12.0389,0.9239 25.7713,1.07127 l 24.9679,0.26797 -0.3404,3.447 c -0.1871,1.89585 -0.864,5.04585 -1.504,7 l -1.1637,3.553 -34.1583,0.26302 c -25.0264,0.19271 -34.2606,-0.0439 -34.541,-0.88508 z m 159.7664,0.21748 c -0.7097,-1.14822 12.0452,-62.09963 13.2465,-63.30093 0.491,-0.49101 3.9982,-0.75814 7.7936,-0.59362 l 6.9009,0.29913 -0.3175,4.25 c -0.1746,2.3375 0.075,4.25 0.5539,4.25 0.4792,0 2.422,-1.61339 4.3174,-3.58532 4.6849,-4.87406 7.9762,-6.41746 13.6465,-6.39937 7.5266,0.024 8.1494,0.86667 5.2987,7.16851 -3.369,7.44751 -3.7567,7.81618 -8.2203,7.81618 -12.3502,0 -18.1225,8.84967 -23.8075,36.5 -1.2439,6.05 -2.6621,11.7875 -3.1516,12.75 -0.7267,1.42902 -2.2483,1.75 -8.2958,1.75 -4.0732,0 -7.6573,-0.40706 -7.9648,-0.90458 z m 284.8177,-56.34541 c 0.3446,-1.7875 1.3747,-3.7 2.289,-4.25 7.0765,-4.25682 10.1034,-10.68682 5.3343,-11.33144 -3.8997,-0.5271 -4.2802,-1.54091 -2.9324,-7.81374 2.0247,-9.42374 1.9473,-9.35482 10.499,-9.35482 5.6449,0 7.6343,0.36008 8.0557,1.45805 0.999,2.60331 -4.4397,21.79673 -7.3793,26.04195 -2.9258,4.22533 -10.0066,8.5 -14.0799,8.5 -2.1844,0 -2.3537,-0.30808 -1.7864,-3.25 z m 29.6233,0.39339 c 0,-2.5598 0.7295,-3.57879 4.0729,-5.68941 3.7765,-2.38402 7.3688,-7.9303 6.2787,-9.69407 -0.2583,-0.41795 -1.5822,-0.75991 -2.942,-0.75991 -1.3598,0 -2.7209,-0.64754 -3.0246,-1.43897 -0.6855,-1.78651 1.4671,-12.61148 2.8458,-14.31103 1.138,-1.4027 15.3187,-1.78796 16.1525,-0.43883 0.9162,1.48244 -3.3595,18.6062 -5.9901,23.98982 -2.9014,5.93784 -7.9503,9.92832 -13.753,10.86998 -3.535,0.57364 -3.6402,0.50058 -3.6402,-2.52758 z m -1834.5567,-1.89339 c 3.7595,-21.17152 8.6346,-28.94915 19.8286,-31.63422 5.5059,-1.3207 4.5191,5.88955 -1.2117,8.85305 -3.3093,1.71131 -6.5221,6.88526 -5.664,9.12143 0.3009,0.78398 1.8866,1.40974 3.5724,1.40974 3.3487,0 3.4508,0.35743 1.9988,7 -2.1877,10.00866 -1,9 -10.5978,9 h -8.5922 z m 29.5567,1.66423 c 0,-1.19166 0.9394,-6.168 2.0875,-11.05853 3.2342,-13.77564 9.3708,-21.12428 18.4125,-22.04891 2.7725,-0.28353 2.9841,-0.0793 2.791,2.69321 -0.124,1.77919 -1.0918,3.6104 -2.3784,4.5 -7.9768,5.51572 -10.3005,11.1134 -4.9126,11.83468 1.375,0.18407 2.8138,0.63407 3.1973,1 0.3835,0.36592 -0.067,3.81532 -1,7.66532 l -1.6973,7 -8.25,0.29044 c -7.8843,0.27757 -8.25,0.19438 -8.25,-1.87621 z m 389.8032,-66.313616 c -9.7178,-2.6161 -17.0026,-9.65633 -19.5627,-18.90584 -1.5514,-5.6055 -3.1018,-62.12718 -1.8418,-67.1474 0.6529,-2.60138 0.7406,-2.62445 8.8803,-2.33734 l 8.221,0.28997 0.5,31.5 c 0.553,34.8419 0.6702,35.4928 7.2305,40.16413 2.51,1.78728 4.8732,2.39294 10.265,2.63078 7.9583,0.35104 12.452,-1.37385 15.9334,-6.11604 1.9682,-2.68105 2.0959,-4.44382 2.5711,-35.5 l 0.5,-32.67887 h 8.5 8.5 l 0.2768,29 c 0.2983,31.24562 -0.5014,40.46647 -4.0688,46.91515 -2.8456,5.14396 -9.4312,10.12819 -15.9337,12.05921 -6.2621,1.85966 -23.2661,1.93129 -29.9711,0.12625 z m 222.1968,0.03154 c -18.2506,-5.30778 -28.4948,-19.15623 -29.6872,-40.13215 -1.2201,-21.46332 6.9022,-38.04984 22.3589,-45.65915 5.9299,-2.9193 7.5985,-3.26077 17.8517,-3.65323 13.7104,-0.5248 22.1356,1.59983 29.932,7.54815 10.6607,8.13368 15.4013,17.87422 16.2814,33.45344 1.2711,22.50389 -6.0661,37.41621 -22.3758,45.47691 -7.1268,3.52228 -8.0761,3.72514 -18.6847,3.99278 -7.0724,0.17844 -12.8287,-0.19859 -15.6763,-1.02675 z m 24.8242,-16.23184 c 10.7315,-5.34774 15.8396,-19.22548 13.1873,-35.82773 -2.4562,-15.37551 -10.32,-22.57258 -24.6637,-22.57258 -16.1504,0 -24.6889,10.64762 -24.5968,30.67257 0.047,10.14437 2.2854,17.25235 7.1245,22.61985 7.2835,8.07881 18.8805,10.12506 28.9487,5.10789 z m 277.4972,15.80307 c -6.7123,-2.39494 -11.2325,-5.54333 -14.4503,-10.06501 -5.1424,-7.22618 -5.3711,-9.12698 -5.3711,-44.63837 v -33 h 8.5 8.5 l 0.5,32.17885 c 0.4743,30.52223 0.6061,32.3209 2.5618,34.93821 4.0006,5.35418 7.0243,6.82594 14.7389,7.17409 8.5085,0.38397 13.0347,-1.54513 16.1993,-6.90425 1.8559,-3.14288 2.036,-5.69245 2.5,-35.3869 l 0.5,-32 7.9132,-0.295 c 5.6552,-0.21083 8.1475,0.0745 8.7347,1 1.0328,1.62818 0.988,41.38078 -0.064,56.98307 -1.1838,17.55209 -5.0092,24.02826 -17.5836,29.76802 -1.8499,0.8444 -7.7922,1.50848 -15.5,1.73218 -10.2724,0.29814 -13.4229,0.0335 -17.6786,-1.48489 z m 187.7028,0.19353 c -13.5906,-3.65214 -23.7584,-14.27274 -27.6648,-28.89691 -1.7209,-6.44212 -1.7197,-23.5643 0,-30 3.2706,-12.22553 11.3689,-22.17553 22.1386,-27.20049 5.6398,-2.63147 6.8103,-2.79951 19.5,-2.79951 13.0063,0 13.7378,0.11271 20.0029,3.08181 12.6884,6.01327 20.7051,17.46226 23.0047,32.85398 3.788,25.3544 -7.272,46.18771 -27.9342,52.61848 -7.5613,2.35335 -20.9778,2.5116 -29.0492,0.34264 z m 24.4844,-15.26189 c 2.2047,-1.00158 5.4682,-3.48345 7.2521,-5.51527 5.637,-6.42013 6.6129,-9.79833 6.6794,-23.11975 0.057,-11.39262 -0.092,-12.30369 -2.9401,-18 -4.3353,-8.67051 -9.2571,-11.84787 -19.1244,-12.34615 -9.6344,-0.48651 -14.9889,1.46383 -20.166,7.34536 -4.5957,5.22103 -6.1218,9.54411 -6.8841,19.50079 -1.1647,15.21431 3.6131,26.18961 13.6038,31.25 6.6307,3.35853 15.3476,3.71603 21.5793,0.88502 z m -666.0341,14.65908 c -0.2731,-0.71175 -0.3791,-20.6441 -0.2355,-44.2941 l 0.261,-43 8.1542,-0.28889 c 9.6888,-0.34327 6.3436,-3.99259 26.8475,29.28889 8.1322,13.2 15.6211,24.8875 16.642,25.97222 1.8112,1.92431 1.8566,1.30485 1.8716,-25.5 0.01,-15.10972 0.3855,-28.0559 0.8381,-28.7693 0.5832,-0.91941 2.9809,-1.21058 8.2347,-1 l 7.4119,0.29708 v 44 44 l -8.14,0.28866 c -6.0432,0.21431 -8.5095,-0.081 -9.575,-1.14643 -0.7893,-0.78931 -8.7743,-13.19904 -17.7445,-27.57719 -8.9701,-14.37815 -16.8114,-25.97512 -17.425,-25.77105 -0.7671,0.25515 -1.2717,8.7789 -1.6155,27.28853 l -0.5,26.91748 -7.2645,0.2941 c -5.2417,0.21221 -7.4027,-0.0662 -7.761,-1 z m 89.9987,-0.003 c -0.2724,-0.71029 -0.3778,-20.6411 -0.2342,-44.2911 l 0.261,-43 h 8.5 8.5 v 44 44 l -8.2658,0.2907 c -6.0464,0.21264 -8.3987,-0.0558 -8.761,-1 z m 133.9844,-0.0411 c -0.2638,-0.6875 -0.3622,-20.6 -0.2186,-44.25 l 0.261,-43 8.096,-0.28795 c 6.5895,-0.23437 8.3573,0.024 9.5,1.38823 0.7722,0.9219 8.8399,13.65148 17.9282,28.28795 9.0883,14.63648 16.9633,26.61177 17.5,26.61177 0.5992,0 1.1687,-10.80526 1.4758,-28 l 0.5,-28 h 7.5 7.5 v 44 44 l -8.2422,0.29032 -8.2422,0.29031 -3.0017,-4.29031 c -1.6509,-2.35968 -9.4401,-14.61055 -17.3093,-27.22416 -7.8692,-12.61361 -14.847,-23.11361 -15.5062,-23.33333 -0.9111,-0.30371 -1.1984,5.92656 -1.1984,25.98384 0,19.18703 -0.3274,26.71064 -1.2,27.58333 -1.6529,1.65283 -14.7054,1.61029 -15.3424,-0.05 z m 126.0052,0.0135 c -0.2667,-0.69492 -0.3674,-20.6135 -0.2238,-44.2635 l 0.261,-43 32.4323,-0.26409 c 25.2809,-0.20586 32.6092,0.0146 33.2347,1 1.2543,1.97608 0.9702,10.19732 -0.417,12.0633 -1.0975,1.47638 -4.0554,1.71315 -24.25,1.94113 l -23,0.25966 v 9.5 9.5 l 22,0.5 22,0.5 0.2957,6.75 c 0.2189,4.99661 -0.041,6.76083 -1,6.79171 -0.7126,0.0229 -9.6207,0.0506 -19.7957,0.0614 -10.175,0.0108 -19.7513,0.27215 -21.2807,0.58073 l -2.7807,0.56106 0.2807,11.62756 0.2807,11.62754 24.5,0.5 24.5,0.5 v 7 7 l -33.2762,0.26351 c -26.083,0.20655 -33.381,-0.01 -33.761,-1 z m 175.0104,0.0272 c -0.2723,-0.70989 -0.3777,-20.6407 -0.2342,-44.2907 l 0.261,-43 23,-0.2836 c 27.4639,-0.33864 34.771,0.58346 40.7477,5.142 11.3897,8.6872 12.4424,27.17817 2.0939,36.77744 -3.0776,2.85477 -8.4569,5.85491 -10.5419,5.87947 -0.7149,0.008 -1.9478,0.42536 -2.7398,0.92653 -1.1378,0.71986 -0.1831,2.13416 4.546,6.73469 6.5701,6.39156 22.9698,31.14777 21.5646,32.55297 -0.4674,0.46739 -5.0694,0.71945 -10.2267,0.56015 l -9.3769,-0.28965 -7.2732,-10.5 c -17.6733,-25.51417 -18.5192,-26.2938 -27.9948,-25.80136 l -5.7989,0.30136 -0.5,18 -0.5,18 -8.2658,0.2907 c -6.0464,0.21264 -8.3987,-0.0558 -8.761,-1 z m 48.8518,-51.89195 c 7.4945,-3.4173 7.4566,-16.67549 -0.057,-19.78756 -1.8241,-0.75557 -7.7785,-1.07137 -16.7971,-0.89085 l -13.9709,0.27966 -0.2874,9.85242 c -0.201,6.88848 0.096,10.3149 0.9884,11.38978 1.0734,1.29336 3.341,1.45065 14.2875,0.99102 7.2754,-0.3055 14.2569,-1.11421 15.8365,-1.83447 z m 140.2968,51.55794 c -0.9555,-2.48995 -0.7071,-84.77381 0.2605,-86.30054 0.6845,-1.07994 5.542,-1.27632 24.7347,-1 23.8135,0.34285 23.8996,0.352 29.5824,3.14262 9.9103,4.86664 14.5942,14.22573 13.5611,27.09674 -0.817,10.1771 -5.4326,16.94857 -14.7605,21.65488 -3.9238,1.97971 -6.4545,2.3311 -19.7647,2.74432 -14.5296,0.45109 -15.2883,0.57579 -15.7572,2.5896 -0.2709,1.16363 -0.6018,8.64069 -0.7353,16.61569 l -0.2428,14.5 -8.1282,0.28848 c -6.7452,0.23938 -8.2341,0.0128 -8.75,-1.33179 z m 45.0588,-50.04728 c 1.5507,-1.14982 3.4627,-3.91052 4.2489,-6.13489 1.2395,-3.5066 1.2394,-4.5439 -7e-4,-7.802 -2.6064,-6.84807 -5.3212,-7.97252 -19.2485,-7.97252 h -12.1803 l -0.2857,10.93573 c -0.1572,6.01466 -0.044,11.56484 0.2507,12.33374 0.4282,1.1159 2.9437,1.33065 12.4663,1.06426 10.2153,-0.28577 12.3351,-0.63419 14.7493,-2.42432 z m 39.7996,50.55848 c -0.5025,-0.813 -1.0351,-80.79347 -0.5776,-86.73155 0.077,-0.99631 7.0264,-1.20788 32.8474,-1 l 32.75,0.26366 v 7 7 l -23.4527,0.26893 c -17.2318,0.19759 -23.6601,0.59547 -24.2347,1.5 -1.3697,2.15626 -0.9533,16.36942 0.5153,17.58824 0.852,0.70711 9.0049,1.19895 22.75,1.37244 l 21.4221,0.27039 0.2981,6.26294 c 0.2113,4.44134 -0.08,6.40363 -1,6.74661 -0.714,0.26602 -10.5231,0.59769 -21.7981,0.73706 -11.275,0.13936 -21.0625,0.61745 -21.75,1.06241 -1.4096,0.91228 -1.7873,20.29692 -0.4369,22.42274 0.5769,0.90834 7.2028,1.3022 25.2346,1.5 l 24.4523,0.26824 v 7 7 l -33.1827,0.2634 c -22.5461,0.17896 -33.3925,-0.076 -33.8371,-0.79551 z m 75.1544,0.2499 c -0.4614,-0.74662 30.7024,-81.24195 33.4156,-86.31166 0.8853,-1.65422 2.1888,-1.90613 9.8625,-1.90613 5.8948,0 9.1627,0.41669 9.8033,1.25 1.8469,2.40247 35.2482,85.99893 34.7095,86.87053 -0.2989,0.48371 -4.3382,0.87947 -8.976,0.87947 -9.7029,0 -8.9285,0.64699 -13.7645,-11.5 l -3.185,-8 h -18.4606 -18.4606 l -3.5761,9.5 -3.5761,9.5 -8.631,0.28773 c -4.747,0.15825 -8.8695,-0.0982 -9.161,-0.56994 z m 54.795,-35.10393 c 0.9072,-1.46782 -10.0892,-29.61386 -11.5699,-29.61386 -1.4978,0 -12.2342,28.08505 -11.3087,29.58244 0.7281,1.17822 22.1517,1.20764 22.8786,0.0314 z m -773.4296,-60.1794 c 0,-0.58605 1.5457,-4.41105 3.4349,-8.5 l 3.4349,-7.43446 h 8.5651 c 4.7108,0 8.5651,0.36566 8.5651,0.81257 0,0.44692 -3.1876,4.27192 -7.0835,8.5 -6.9848,7.58034 -7.152,7.68743 -12,7.68743 -2.8126,0 -4.9165,-0.45597 -4.9165,-1.06554 z m -786,-404.434464 v -353.5 h 531 531 v 353.5 353.500004 h -531 -531 z m 524.8938,255.79224 c 2.4165,-1.81073 5.1426,-3.29224 6.0577,-3.29224 0.9152,0 5.6792,2.925 10.5867,6.5 8.5396,6.22088 12.2184,7.94439 11.2061,5.25 -3.1842,-8.47554 -6.9458,-21.78267 -6.4918,-22.96581 0.3193,-0.83205 4.6606,-4.38637 9.6474,-7.8985 4.9867,-3.51213 9.0743,-6.93475 9.0834,-7.60581 0.012,-0.88233 -3.4906,-1.29761 -12.6515,-1.5 l -12.6683,-0.27988 -3.9151,-11.75 c -2.1533,-6.4625 -4.2741,-11.75 -4.7129,-11.75 -0.4388,0 -2.5388,5.2875 -4.6667,11.75 l -3.8688,11.75 -12.75,0.27988 c -9.2357,0.20273 -12.7413,0.61618 -12.7184,1.5 0.017,0.67106 2.8571,3.12368 6.3104,5.45026 3.4533,2.32657 7.9311,5.70157 9.9506,7.5 l 3.6718,3.26986 -3.4714,10.5 c -1.9092,5.775 -3.4762,11.32583 -3.4822,12.33517 -0.011,1.89566 1.552,0.94584 14.883,-9.04293 z m -114.679,-24.9537 c 4.7931,-3.4862 9.3209,-6.33854 10.0617,-6.33854 0.7407,0 5.7327,3.19883 11.0933,7.10851 5.3605,3.90968 9.9813,6.87364 10.2684,6.58658 0.2871,-0.28707 -1.0891,-5.56096 -3.0582,-11.71977 -1.969,-6.1588 -3.58,-11.73193 -3.58,-12.38473 0,-0.65279 4.538,-4.47964 10.0846,-8.5041 5.5552,-4.03075 9.702,-7.69987 9.2326,-8.1692 -0.4686,-0.4686 -6.456,-0.97919 -13.3053,-1.13464 l -12.4533,-0.28265 -3.6026,-11.5 c -1.9815,-6.325 -4.0196,-11.44135 -4.5293,-11.36968 -0.5097,0.0717 -2.6466,5.34598 -4.7486,11.72066 l -3.8218,11.59034 -12.5964,0.27934 c -7.2885,0.16163 -12.7194,0.70072 -12.8883,1.27934 -0.1606,0.55 3.489,3.63584 8.1104,6.85741 12.6857,8.84337 12.121,7.41957 8.0179,20.21367 -1.925,6.00252 -3.4999,11.50615 -3.4999,12.23031 0,1.63405 0.3969,1.40529 11.2148,-6.46285 z m 225.1455,-0.33854 c 5.2921,-3.85 10.0171,-7 10.5,-7 0.4829,0 5.2445,3.17663 10.5813,7.05917 5.3368,3.88254 10.0955,6.92004 10.5748,6.75 0.4793,-0.17004 -0.8686,-5.63141 -2.9953,-12.13637 -4.4997,-13.76321 -5.2009,-11.85924 7.7939,-21.16293 4.5017,-3.22305 8.185,-6.23129 8.185,-6.68498 0,-0.45369 -5.2875,-0.83178 -11.75,-0.8402 -6.4625,-0.008 -12.2453,-0.34592 -12.8506,-0.75 -0.6053,-0.40408 -2.7876,-5.81978 -4.8494,-12.03489 -2.2194,-6.68991 -4.2109,-11.14618 -4.8813,-10.9227 -0.6229,0.20763 -2.5655,4.97614 -4.3168,10.5967 -1.7513,5.62056 -3.7271,10.87328 -4.3905,11.6727 -0.9374,1.12948 -3.9929,1.4535 -13.7063,1.4535 -14.6086,0 -14.5641,-0.32321 -1.247,9.06075 4.9455,3.48486 8.9844,7.03432 8.9753,7.88768 -0.01,0.85336 -1.5815,6.50157 -3.4942,12.55157 -1.9128,6.05 -3.4804,11.1125 -3.4835,11.25 -0.026,1.11359 3.0975,-0.74299 11.3546,-6.75 z m 82.3476,-76 c 5.2227,-3.85 10.0402,-7 10.7056,-7 0.6654,0 5.5957,3.19883 10.9563,7.10851 5.3605,3.90968 10.0375,6.81748 10.3932,6.46176 0.3557,-0.35571 -1.0495,-5.80055 -3.1226,-12.09963 -2.0732,-6.29908 -3.4707,-11.93621 -3.1056,-12.52695 0.3651,-0.59075 4.9547,-4.24321 10.1992,-8.11658 7.0745,-5.22493 9.1781,-7.26883 8.1507,-7.91948 -0.7616,-0.48235 -6.6722,-0.8839 -13.1347,-0.89232 -6.4625,-0.008 -11.7613,-0.12781 -11.775,-0.26531 -0.2283,-2.28467 -7.7328,-22.88847 -8.3917,-23.03966 -0.5042,-0.11569 -2.6792,5.07716 -4.8333,11.53966 l -3.9167,11.75 h -12.3577 c -6.9169,0 -12.6219,0.42767 -12.958,0.97137 -0.3301,0.53425 3.7249,4.17985 9.0113,8.10133 5.2864,3.92148 9.8116,7.65122 10.0561,8.2883 0.2445,0.63709 -1.1372,5.85491 -3.0703,11.59515 -3.479,10.33081 -4.084,13.04385 -2.9087,13.04385 0.3333,0 4.8792,-3.15 10.1019,-7 z m -393.5669,-2.6871 c 4.7525,-3.4721 9.2525,-6.30727 10,-6.30038 0.7474,0.007 5.6212,3.15688 10.8307,7 8.1935,6.04452 11.0466,7.78847 11.0225,6.73748 0,-0.1375 -1.5707,-5.2 -3.4834,-11.25 -1.9128,-6.05 -3.4852,-11.74493 -3.4943,-12.6554 -0.01,-0.9614 4.1934,-4.68201 10.0254,-8.87474 5.523,-3.97064 9.7625,-7.50071 9.4209,-7.8446 -0.3415,-0.34389 -6.3229,-0.85026 -13.2919,-1.12526 l -12.6709,-0.5 -3.8016,-11.75 c -2.0909,-6.4625 -4.1509,-11.75 -4.5777,-11.75 -0.4269,0 -2.5412,5.2875 -4.6984,11.75 l -3.9223,11.75 -12.4827,0.28265 c -6.8654,0.15545 -12.8557,0.65571 -13.3117,1.11168 -0.4559,0.45597 3.6987,4.06167 9.2327,8.01266 7.6577,5.46733 10.0617,7.72315 10.0617,9.44183 0,1.24202 -1.5339,6.8128 -3.4086,12.37952 -1.8746,5.56671 -3.1619,10.3679 -2.8605,10.66929 0.6996,0.69957 1.0689,0.47024 11.4101,-7.08473 z m -41.3621,-129.3129 c 5.2787,-3.85 10.2287,-7 11,-7 0.7713,0 5.749,3.17471 11.0617,7.0549 11.5301,8.42124 11.8003,8.13935 6.6934,-6.983 -4.1161,-12.18843 -4.7,-10.73497 7.862,-19.5719 4.6911,-3.3 8.5461,-6.54906 8.5666,-7.22012 0.027,-0.88419 -3.4731,-1.29719 -12.7126,-1.5 l -12.75,-0.27988 -3.7794,-10.9794 c -2.0787,-6.03866 -4.1656,-11.36554 -4.6375,-11.8375 -0.4775,-0.47747 -2.6077,4.3927 -4.8023,10.9794 l -3.9442,11.8375 -12.401,0.28265 c -6.8205,0.15545 -12.7869,0.66857 -13.2585,1.14025 -0.4769,0.47681 3.6226,4.05636 9.2326,8.06163 6.0416,4.31345 10.0903,7.88985 10.0903,8.91326 0,0.94009 -1.575,6.38608 -3.5,12.10221 -3.6049,10.70436 -3.919,12 -2.9094,12 0.3248,0 4.9096,-3.15 10.1883,-7 z m 473.8607,0 c 5.2921,-3.85 10.0714,-7 10.6205,-7 0.5492,0 5.0486,2.9615 9.9988,6.58112 9.453,6.91216 11.7411,8.22219 11.7411,6.72235 0,-0.50078 -1.575,-5.58734 -3.5,-11.30347 -1.925,-5.71613 -3.4878,-11.09205 -3.4728,-11.94648 0.015,-0.85444 4.6274,-4.92852 10.25,-9.05352 l 10.2228,-7.5 -12.7043,-0.5 c -6.9874,-0.275 -13.1188,-0.95 -13.6254,-1.5 -0.5067,-0.55 -2.5905,-6.06545 -4.6306,-12.25657 -2.0402,-6.19111 -4.1006,-11.01485 -4.5786,-10.71943 -0.478,0.29543 -2.4653,5.65044 -4.4163,11.90002 -2.1721,6.95802 -4.1599,11.59801 -5.1278,11.96943 -0.8693,0.3336 -6.7188,0.60655 -12.9988,0.60655 -6.28,0 -11.4182,0.36071 -11.4182,0.80157 0,0.44086 4.0463,3.65282 8.9918,7.13768 4.9455,3.48486 9.4445,6.88157 9.9978,7.54825 0.697,0.83989 -0.063,4.55966 -2.4734,12.11233 -3.4165,10.70299 -4.0218,13.40017 -3.0074,13.40017 0.2799,0 4.8387,-3.15 10.1308,-7 z M 2006.631,-530.47454 c 4.8988,-3.59561 9.4928,-6.76234 10.209,-7.03717 0.7162,-0.27483 5.6551,2.66704 10.9753,6.53749 8.3333,6.06251 11.6908,7.99631 11.6908,6.73365 0,-0.16693 -1.575,-4.98035 -3.5,-10.69648 -1.925,-5.71613 -3.4906,-11.31705 -3.4789,-12.44648 0.015,-1.43584 2.8722,-4.10628 9.5,-8.87803 5.2133,-3.75348 9.4789,-7.24098 9.4789,-7.75 0,-0.51394 -5.2251,-0.9323 -11.75,-0.9408 -6.4625,-0.008 -12.2572,-0.34592 -12.8771,-0.75 -0.6198,-0.40408 -2.72,-5.67225 -4.667,-11.70704 -1.9471,-6.0348 -3.9827,-11.11989 -4.5236,-11.3002 -0.5409,-0.18032 -2.6705,4.75724 -4.7324,10.97235 -2.0618,6.21511 -4.244,11.63081 -4.8494,12.03489 -0.6053,0.40408 -6.388,0.74158 -12.8505,0.75 -6.8665,0.009 -11.75,0.41611 -11.75,0.97966 0,0.53039 4.275,4.00308 9.5,7.7171 10.6391,7.56249 10.6652,7.62152 7.4661,16.912 -3.883,11.27684 -4.9025,15.40655 -3.8032,15.40655 0.5803,0 5.0632,-2.94187 9.962,-6.53749 z m 394.5147,-0.46251 c 5.2921,-3.85 10.1923,-7 10.8893,-7 0.697,0 5.6111,3.20208 10.9201,7.11573 5.3091,3.91365 9.9471,6.82144 10.3068,6.46176 0.3597,-0.35969 -1.0231,-5.74939 -3.0727,-11.97711 -2.0497,-6.22773 -3.4617,-11.94802 -3.1377,-12.71176 0.3239,-0.76374 4.7056,-4.31362 9.7371,-7.88862 5.0315,-3.575 9.1637,-6.95 9.1828,-7.5 0.021,-0.60177 -5.0135,-1.11124 -12.6418,-1.27933 l -12.6764,-0.27933 -3.9069,-11.72067 c -2.1488,-6.44637 -4.2819,-11.72067 -4.7402,-11.72067 -0.4584,0 -2.5959,5.2875 -4.75,11.75 l -3.9167,11.75 h -12.3577 c -6.8563,0 -12.623,0.42936 -12.9537,0.96448 -0.3278,0.53046 3.7173,4.15013 8.9892,8.04372 5.2718,3.89358 9.7951,7.62642 10.0518,8.29519 0.2566,0.66877 -1.1151,5.91252 -3.0482,11.65276 -3.3969,10.08702 -4.0783,13.04385 -3.0059,13.04385 0.2799,0 4.8387,-3.15 10.1308,-7 z m -78.7458,-78.70776 c 2.4165,-1.81073 5.1426,-3.29224 6.0577,-3.29224 0.9152,0 5.6792,2.925 10.5867,6.5 8.5396,6.22088 12.2184,7.94439 11.2061,5.25 -3.1819,-8.46924 -6.946,-21.78216 -6.4927,-22.9634 0.3188,-0.83073 4.9042,-4.57596 10.1898,-8.32273 5.2855,-3.74678 9.2532,-7.16923 8.817,-7.60545 -0.4362,-0.43622 -6.3736,-0.92032 -13.1941,-1.07577 l -12.4009,-0.28265 -3.9151,-11.75 c -2.1532,-6.4625 -4.274,-11.75 -4.7128,-11.75 -0.4388,0 -2.5388,5.2875 -4.6667,11.75 l -3.8688,11.75 -12.75,0.27988 c -9.2392,0.20281 -12.7399,0.61585 -12.7132,1.5 0.02,0.67106 3.8192,3.85596 8.4422,7.07753 12.5057,8.71477 11.947,7.17104 7.5492,20.85787 -2.0704,6.44341 -3.5334,11.94626 -3.2511,12.22856 0.4814,0.4814 4.7657,-2.3957 15.1167,-10.1516 z m -230.1973,1.81057 c 12.5155,-9.16762 10.7025,-9.07713 21.6914,-1.08274 9.0719,6.59985 11.6121,7.96304 11.6121,6.23181 0,-0.41147 -1.6173,-5.60173 -3.594,-11.53391 -1.9767,-5.93218 -3.3647,-11.38338 -3.0844,-12.11378 0.2803,-0.7304 4.8226,-4.38533 10.094,-8.12205 5.2714,-3.73673 9.5844,-7.17387 9.5844,-7.6381 0,-0.46422 -5.6212,-0.84404 -12.4916,-0.84404 -14.6013,0 -13.2064,1.04824 -17.8647,-13.42511 -1.7569,-5.4588 -3.6361,-10.07235 -4.1761,-10.25233 -0.5399,-0.17998 -2.7785,4.96132 -4.9747,11.4251 l -3.9929,11.75234 -12.75,0.27988 c -7.0125,0.15393 -12.75,0.69604 -12.75,1.20469 0,0.50865 4.5,4.13763 10,8.0644 5.5,3.92677 10,7.45874 10,7.84882 0,0.39009 -1.575,5.38608 -3.5,11.10221 -3.6174,10.7415 -4.0825,13 -2.6772,13 0.4526,0 4.4458,-2.65374 8.8737,-5.89719 z m 112.4184,-30.75612 c 4.7382,-3.49068 9.1543,-6.34669 9.8135,-6.34669 0.6591,0 5.6889,3.20599 11.1773,7.12443 5.4883,3.91844 10.2314,6.87179 10.5402,6.563 0.3087,-0.30879 -1.0603,-5.42813 -3.0423,-11.37631 -1.982,-5.94818 -3.6036,-11.52367 -3.6036,-12.38998 0,-0.86632 4.524,-4.85391 10.0534,-8.86133 5.5294,-4.00742 9.7689,-7.57277 9.421,-7.92301 -0.3479,-0.35024 -6.3277,-0.8618 -13.2884,-1.1368 l -12.6558,-0.5 -3.8247,-11.75 c -2.1036,-6.4625 -4.1501,-11.75 -4.5477,-11.75 -0.3976,0 -2.4358,5.2045 -4.5294,11.56554 -2.0935,6.36105 -4.4252,11.80296 -5.1814,12.09314 -0.7562,0.29019 -6.4536,0.59819 -12.661,0.68446 -7.9212,0.11009 -11.286,0.50893 -11.286,1.33772 0,0.64947 3.825,3.92945 8.5,7.28883 4.675,3.35938 9.0222,6.79651 9.6606,7.63805 0.9135,1.20426 0.4344,3.68661 -2.25,11.65765 -3.6504,10.83953 -4.2219,14.31493 -2.1606,13.14031 0.6875,-0.39178 5.1267,-3.56834 9.8649,-7.05901 z m 1263.0693,495.6348 c -7.8609,-1.63868 -14.1842,-7.35679 -14.1842,-12.82677 0,-2.73615 1.31,-3.37479 5.3629,-2.61446 2.2742,0.42665 3.7679,1.45138 4.5193,3.10047 3.3654,7.38623 20.7312,6.87508 24.6619,-0.72592 1.2806,-2.47648 2.1041,-10.91481 1.0651,-10.91481 -0.2149,0 -2.3524,0.89012 -4.75,1.97804 -5.5853,2.5344 -14.0109,2.59041 -19.4299,0.12915 -12.3329,-5.60148 -17.2707,-24.44133 -9.9373,-37.91524 6.0644,-11.14225 19.1119,-15.0058 30.7041,-9.09191 l 4.0126,2.04706 1.4917,-2.12974 c 1.0922,-1.55929 2.3365,-2.04773 4.6457,-1.82355 l 3.1539,0.30619 0.2778,27 c 0.2306,22.41586 0.015,27.6927 -1.2678,31.07992 -1.8308,4.833 -5.6607,8.75036 -10.553,10.79395 -4.6569,1.94527 -14.3661,2.73468 -19.7728,1.60762 z m 16.087,-29.82511 c 9.5802,-5.57508 8.7393,-27.00257 -1.2712,-32.3931 -4.1298,-2.22383 -10.589,-1.91784 -14.5694,0.69021 -7.7318,5.0661 -8.6861,23.09531 -1.5826,29.90088 4.9777,4.76899 11.2161,5.41419 17.4232,1.80201 z m -583.0323,9.50875 c -4.8776,-1.76896 -9.9665,-6.23482 -12.4885,-10.95968 -3.2125,-6.01814 -3.2626,-21.31693 -0.089,-27.20545 7.2286,-13.41326 24.9385,-17.37566 37.876,-8.47437 6.4341,4.42673 10.271,13.54756 9.5597,22.72437 -0.074,0.95152 -4.5741,1.25366 -18.8469,1.26531 -10.3125,0.008 -19.4072,0.43098 -20.2103,0.93902 -2.2741,1.43837 1.6,9.88622 5.8457,12.7474 7.3522,4.9547 17.0091,3.44104 21.1884,-3.32116 1.9676,-3.18357 2.51,-3.45838 6.2812,-3.18251 5.1791,0.37885 5.7972,2.46241 2.2989,7.74875 -3.9057,5.90195 -11.1802,9.07199 -20.6002,8.97711 -4.1546,-0.0418 -9.0212,-0.6083 -10.8148,-1.25879 z m 23.5691,-30.5253 c 2.9955,-1.89977 -2.1483,-10.17056 -7.6231,-12.25739 -6.6882,-2.54931 -15.0292,0.26814 -18.4973,6.24805 -3.6243,6.24943 -2.5322,6.87164 12.031,6.8542 7.0298,-0.008 13.37,-0.38861 14.0894,-0.84486 z m 30.8293,30.44289 c -4.9787,-1.83609 -9.2903,-6.00132 -10.731,-10.36648 -1.3321,-4.03656 -0.3075,-5.17617 4.6762,-5.20093 2.4716,-0.0123 3.5631,0.72748 5.508,3.73297 2.8462,4.39816 8.3627,6.67172 14.3229,5.90295 7.537,-0.97213 12.0254,-7.15729 7.8839,-10.86444 -0.9885,-0.88487 -6.2973,-2.82569 -11.7973,-4.31294 -11.3708,-3.07474 -14.061,-4.27837 -17.2896,-7.73544 -5.6329,-6.03155 -2.8355,-15.78995 5.7237,-19.9659 9.8548,-4.80809 26.5637,-1.89709 31.0497,5.40946 2.6745,4.3559 2.232,6.03789 -1.9001,7.22294 -3.1186,0.89443 -3.6186,0.72144 -5.9931,-2.07382 -3.4942,-4.11339 -6.1159,-5.33109 -11.4778,-5.33109 -5.7799,0 -9.5019,1.71007 -10.2553,4.71173 -0.9929,3.95608 1.8986,5.77588 14.7318,9.27154 9.6927,2.64024 12.7209,3.91519 15.4803,6.5176 3.0003,2.82961 3.4304,3.84966 3.4304,8.13507 0,6.07913 -3.2367,11.27398 -8.6889,13.94576 -4.9859,2.44325 -19.1996,3.0199 -24.6738,1.00102 z m 49.3627,-0.37873 c -10.7305,-5.84726 -10.57,-19.8509 0.2877,-25.09755 2.3168,-1.1195 8.9373,-2.73801 14.7123,-3.59669 5.775,-0.85867 11.2459,-1.79177 12.1576,-2.07356 2.3681,-0.73191 2.9234,-2.90528 1.6649,-6.51558 -1.3351,-3.82983 -5.7875,-5.92669 -12.5404,-5.90587 -5.922,0.0183 -9.1894,1.60622 -11.7801,5.7253 -1.5165,2.41096 -2.7296,3.18855 -5.002,3.20613 -4.477,0.0346 -5.8954,-1.23483 -5.067,-4.53521 0.9781,-3.8969 6.8368,-9.12082 11.8595,-10.57447 2.3141,-0.66975 8.0325,-1.21312 12.7075,-1.20749 6.7783,0.008 9.3567,0.45388 12.7294,2.20043 6.6571,3.4474 7.3458,5.72092 8.1923,27.04734 0.4066,10.24278 0.9281,19.29823 1.1588,20.12323 0.321,1.14776 -0.6532,1.56983 -4.1484,1.79735 -4.0498,0.26363 -4.698,0.0118 -5.715,-2.22027 l -1.1471,-2.51762 -5.2409,2.72027 c -7.0035,3.63517 -19.4605,4.34973 -24.8291,1.42426 z m 21.7116,-7.3064 c 4.6769,-2.2641 6.6671,-5.19966 7.5929,-11.19985 0.3978,-2.57766 0.1846,-3.95655 -0.6618,-4.28134 -0.6866,-0.26349 -5.9496,0.42483 -11.6956,1.52961 -8.5595,1.64576 -10.8536,2.47455 -12.6971,4.5871 -2.9676,3.40079 -2.8391,5.03159 0.6731,8.54381 2.4122,2.41219 3.7552,2.92308 7.6843,2.92308 2.7946,0 6.5549,-0.86835 9.1042,-2.10241 z m 112.2884,7.01838 c -8.8448,-4.00985 -13.0096,-10.37506 -13.7762,-21.05479 -1.3086,-18.22878 8.5912,-29.47814 25.7762,-29.29003 15.6292,0.17108 24.938,9.65001 24.9725,25.42885 0.021,9.53984 -1.2756,14.13667 -5.2698,18.68579 -7.0082,7.98193 -21.5397,10.83764 -31.7027,6.23018 z m 19.8516,-7.65452 c 5.1092,-3.81452 6.593,-6.93447 6.9844,-14.68536 0.4935,-9.77262 -1.9156,-15.55571 -7.7119,-18.5128 -7.5374,-3.84527 -15.198,-1.94155 -20.3877,5.0665 -2.8492,3.84757 -3.5217,14.52537 -1.2838,20.38514 1.7051,4.46477 6.1038,8.76204 10.0474,9.81566 3.485,0.9311 9.7356,-0.11601 12.3516,-2.06914 z m 84.2532,7.10346 c -9.3627,-4.66561 -13.8801,-14.11751 -12.8544,-26.89566 1.2675,-15.78986 14.7922,-25.74029 30.664,-22.56018 13.4535,2.69558 20.3598,11.46724 20.2973,25.77972 -0.043,9.85823 -2.0814,15.14635 -7.7676,20.15154 -5.1888,4.56735 -10.0006,6.15967 -18.6138,6.15967 -4.9503,0 -7.6593,-0.60879 -11.7255,-2.63509 z m 19.5194,-6.42502 c 5.7835,-2.79977 8.3758,-8.17088 8.3758,-17.35449 0,-12.21234 -4.9285,-18.0854 -15.1767,-18.0854 -10.2406,0 -15.3233,6.13641 -15.3233,18.5 0,9.34928 2.1128,13.52025 8.4848,16.75 5.4935,2.7845 8.2017,2.8222 13.6394,0.18989 z m 145.3758,6.97608 c -9.1873,-4.1651 -13.0996,-10.39486 -13.7635,-21.91597 -1.1239,-19.50368 12.6614,-31.86178 31.2393,-28.00503 10.7463,2.23093 17.9967,10.76889 18.6865,22.00503 l 0.3377,5.5 -18.9249,0.27271 c -11.0847,0.15973 -19.4387,0.69917 -20.1652,1.30211 -1.4393,1.1945 -0.4406,5.70314 2.1334,9.63167 1.8309,2.79419 8.7181,6.24959 12.4567,6.24959 4.2812,0 10.7491,-3.57026 12.4594,-6.8775 1.3513,-2.61313 2.1626,-3.07858 5.3663,-3.07858 5.4269,0 6.4835,1.47395 4.2266,5.89589 -2.3329,4.57096 -4.4706,6.48716 -10.0703,9.02716 -6.2001,2.81235 -17.7705,2.80894 -23.982,-0.007 z m 25.6274,-30.38738 c 0.9593,-2.49993 -2.905,-8.75324 -6.6118,-10.69929 -7.1196,-3.73778 -16.9835,-1.01789 -20.5891,5.67729 -3.216,5.97173 -2.1656,6.49341 13.0735,6.49341 11.0162,0 13.6688,-0.27628 14.1274,-1.47141 z m 114.3726,30.38738 c -9.2119,-4.17626 -13.09,-10.37661 -13.787,-22.0426 -0.6098,-10.20685 1.4313,-16.36899 7.176,-21.66429 5.1896,-4.78359 10.1655,-6.61278 18.111,-6.65773 8.0644,-0.0456 14.4131,2.54585 19.3452,7.89653 4.6588,5.0542 6.1436,9.53805 6.1436,18.55212 0,8.56147 -1.4064,13.26712 -5.2861,17.68579 -7.0082,7.98193 -21.5397,10.83764 -31.7027,6.23018 z m 19.9382,-7.75557 c 5.0088,-3.66478 6.5073,-6.85044 6.9023,-14.67355 0.4746,-9.39697 -1.9035,-15.02989 -7.7267,-18.30276 -7.2017,-4.04755 -15.1453,-2.11959 -20.3774,4.9457 -4.5588,6.15616 -3.0439,21.41439 2.6581,26.77107 4.627,4.34688 13.5004,4.94958 18.5437,1.25954 z m 91.3898,7.96258 c -8.8287,-4.13791 -10.9174,-13.70379 -4.625,-21.18188 3.6055,-4.28489 7.1981,-5.63852 20.0139,-7.54093 12.1871,-1.80909 14.2831,-2.61636 14.2831,-5.5011 0,-5.38456 -5.3385,-8.89907 -13.5175,-8.89907 -5.717,0 -9.988,2.14312 -11.9913,6.01693 -1.2318,2.38211 -2.1921,2.97999 -4.7669,2.96776 -5.8175,-0.0276 -6.5645,-1.28225 -3.8393,-6.44844 1.8884,-3.57988 3.5488,-5.09063 7.9747,-7.25601 4.8672,-2.38131 6.7562,-2.72887 14.615,-2.68902 10.1806,0.0516 15.357,1.89138 18.9375,6.73058 1.878,2.53825 2.1512,4.69875 2.7184,21.5 0.3469,10.27301 0.7969,19.5782 1,20.6782 0.3139,1.69927 -0.2474,2.04515 -3.7327,2.30027 -3.4757,0.25442 -4.3592,-0.0923 -5.7866,-2.2707 l -1.6845,-2.57096 -4.6213,2.70825 c -6.2918,3.68723 -18.6767,4.40924 -24.9775,1.45612 z m 21.344,-7.06115 c 5.077,-2.30509 7.1133,-5.21637 7.9577,-11.37679 0.7611,-5.55265 1.5389,-5.38484 -12.5325,-2.70357 -11.6018,2.21071 -14.0972,3.73319 -14.0972,8.60094 0,6.86296 9.4907,9.64806 18.672,5.47942 z m -866.0053,7.2715 c -0.3667,-0.36666 -0.6667,-15.61156 -0.6667,-33.87755 0,-28.29769 0.2219,-33.39502 1.4997,-34.45551 1.121,-0.93033 6.1083,-1.13207 19.75,-0.79892 21.6391,0.52847 25.866,1.79673 33.2092,9.96422 5.9605,6.62949 7.9872,12.90753 8.0172,24.83443 0.046,18.17604 -7.5747,29.98398 -21.7182,33.65276 -5.4022,1.40132 -38.8035,1.96832 -40.0912,0.68057 z m 37.2454,-9.30812 c 4.9777,-1.42759 8.6929,-4.66774 11.1906,-9.75969 1.9956,-4.0683 2.3394,-6.30173 2.3501,-15.26552 0.014,-11.7738 -1.6126,-16.43235 -7.4544,-21.34791 -4.426,-3.7242 -9.4946,-4.75887 -21.7315,-4.43609 l -10.7669,0.284 -0.2675,25.43014 c -0.2071,19.67568 0.019,25.61338 1,26.23993 1.5321,0.97884 21.3564,0.095 25.6796,-1.14486 z m 206.5598,8.76205 c -0.2805,-0.73075 -0.3888,-11.84561 -0.2409,-24.69969 0.2315,-20.11486 0.4913,-23.51114 1.8642,-24.37656 2.437,-1.53613 6.9048,-0.0427 6.9048,2.30804 0,2.51348 1.2023,2.51993 3.4659,0.0186 2.8189,-3.11481 7.7388,-4.32889 12.4268,-3.06655 5.082,1.36844 5.5127,2.12297 3.6949,6.4734 -1.4493,3.46867 -1.5578,3.52132 -6.0054,2.91172 -5.015,-0.68739 -8.5255,0.90504 -10.7882,4.89378 -0.8309,1.46482 -1.4539,8.18248 -1.7852,19.25 l -0.5088,17 -4.2591,0.30794 c -2.8523,0.20623 -4.4276,-0.13094 -4.769,-1.02068 z m 35,0 c -0.2805,-0.73075 -0.3888,-11.84561 -0.2409,-24.69969 0.2315,-20.11486 0.4913,-23.51114 1.8642,-24.37656 2.437,-1.53613 6.9048,-0.0427 6.9048,2.30804 0,2.51348 1.2023,2.51993 3.4659,0.0186 2.8022,-3.09633 7.7424,-4.32792 12.3662,-3.08286 4.711,1.26853 5.4038,2.57895 3.6139,6.83575 -1.2924,3.07366 -1.4988,3.16396 -5.8664,2.56532 -5.0123,-0.68701 -8.5234,0.9062 -10.7856,4.89414 -0.8309,1.46482 -1.4539,8.18248 -1.7852,19.25 l -0.5088,17 -4.2591,0.30794 c -2.8523,0.20623 -4.4276,-0.13094 -4.769,-1.02068 z m 93.17,-0.27806 c -0.9524,-2.48181 -0.5486,-63.62435 0.4373,-66.21738 0.7795,-2.05048 1.4806,-2.36614 4.669,-2.10229 l 3.7518,0.31047 0.263,34.75 0.2629,34.75 h -4.406 c -2.9818,0 -4.5908,-0.48187 -4.978,-1.4908 z m 23.5951,-33.20388 0.263,-34.80532 3.5856,-0.30056 c 2.1977,-0.18423 4.0416,0.24887 4.7636,1.1189 0.8642,1.04128 1.1078,10.31321 0.9144,34.80056 l -0.2636,33.3811 -4.763,0.30532 -4.763,0.30533 z m 112.389,33.16254 c -0.3443,-0.89729 -0.626,-16.16453 -0.626,-33.9272 0,-27.2224 0.2314,-32.48779 1.4728,-33.51809 1.0932,-0.90729 6.9568,-1.12019 22.75,-0.82603 22.1884,0.41326 26.0892,1.11389 31.1318,5.5916 4.911,4.36084 6.9576,14.13544 4.2944,20.5096 -1.8263,4.37075 -7.7443,9.38157 -12.6359,10.69872 -2.2072,0.59435 -4.0131,1.26685 -4.0131,1.49447 0,0.22761 2.1465,2.57276 4.77,5.21145 4.8262,4.85401 18.23,23.45411 18.23,25.29715 0,0.55472 -2.6398,1.00047 -5.9249,1.00047 h -5.9249 l -7.5416,-10.75 c -12.384,-17.65251 -13.7971,-18.8159 -24.0167,-19.77356 -12.022,-1.12655 -11.4929,-1.81313 -11.8155,15.33257 l -0.2764,14.69099 -4.624,0.29964 c -3.5409,0.22947 -4.7705,-0.0825 -5.25,-1.33178 z m 39.874,-38.43863 c 5.2937,-1.2216 9.5,-5.88359 9.5,-10.52923 0,-5.77695 -4.1272,-9.3976 -12,-10.52718 -7.3622,-1.05631 -23.0312,-1.28183 -25.4182,-0.36583 -1.2997,0.49874 -1.5818,2.43073 -1.5818,10.83333 0,5.62449 0.3,10.52635 0.6667,10.89301 1.0009,1.00097 24.24,0.75587 28.8333,-0.3041 z m 152.2137,39.35116 c -0.3925,-0.39255 -0.7137,-11.61558 -0.7137,-24.94007 0,-26.22508 -0.1684,-25.44032 5.4593,-25.44032 4.3723,0 4.5931,1.36429 4.3091,26.62463 l -0.2684,23.87537 -4.0363,0.29705 c -2.2199,0.16338 -4.3574,-0.0241 -4.75,-0.41666 z m 81.2863,-24.2734 c 0,-21.77668 0.198,-24.969 1.5818,-25.5 3.048,-1.16962 5.358,-0.58736 6.5185,1.64301 0.6438,1.2375 1.3087,2.41159 1.4776,2.60909 0.1688,0.1975 1.6022,-0.56321 3.1853,-1.69047 9.4916,-6.75863 25.061,-4.21052 29.7568,4.87002 1.1623,2.24767 1.48,7.16593 1.48,22.9117 v 20.04966 h -4.5 -4.5 l -0.056,-16.75 c -0.066,-19.51919 -0.8612,-22.93774 -5.9436,-25.54653 -3.9197,-2.01194 -9.918,-1.63774 -13.7292,0.85649 -4.6725,3.0579 -5.5913,6.79219 -6.0744,24.69004 l -0.4522,16.75 h -4.3721 -4.3721 v -24.89301 z m 116.6667,24.22634 c -0.3667,-0.36666 -0.6667,-15.61156 -0.6667,-33.87755 0,-36.5998 -0.1262,-35.87978 6.1847,-35.27401 l 3.3153,0.31823 0.263,34.75 0.2629,34.75 h -4.3463 c -2.3904,0 -4.6463,-0.3 -5.0129,-0.66667 z m -197.4816,-59.19775 c -0.8497,-0.53882 -1.2034,-2.39076 -1,-5.23469 0.2989,-4.17731 0.4833,-4.41706 3.6302,-4.71912 1.8235,-0.17503 3.961,0.21757 4.75,0.87244 1.7419,1.44565 1.8933,7.08719 0.2347,8.74579 -1.3764,1.37641 -5.6748,1.56584 -7.6149,0.33558 z m -165.5089,-35.38558 c -1.5586,-1.14191 -1.6832,-4.13747 -1.4412,-34.6414 0.2325,-29.29316 0.4608,-33.51485 1.8602,-34.39725 2.2985,-1.44932 6.5753,-0.0793 7.1991,2.30607 0.5245,2.00554 0.5929,1.99886 4.1328,-0.40341 10.1063,-6.8583 24.9081,-2.65711 30.7676,8.73272 4.8914,9.50803 3.1661,25.75597 -3.5468,33.40151 -6.2026,7.06439 -18.0475,9.46533 -25.9091,5.25176 -2.0523,-1.1 -3.9582,-2 -4.2352,-2 -0.277,0 -0.5036,4.635 -0.5036,10.3 0,6.67778 -0.422,10.72201 -1.2,11.5 -1.5571,1.55706 -4.963,1.53315 -7.1238,-0.05 z m 29.2196,-27.67578 c 3.9359,-2.80264 6.1042,-8.76261 6.1042,-16.77873 0,-11.7212 -5.0386,-18.29549 -14.0219,-18.29549 -7.5,0 -13.9669,8.79743 -13.9669,19 0,14.72634 11.7043,23.32319 21.8846,16.07422 z m -493.6569,8.59091 c -9.0228,-3.27229 -14.2876,-11.07071 -15.0175,-22.24451 -0.6653,-10.18414 1.522,-17.00764 7.1003,-22.14952 5.4409,-5.01524 10.3341,-6.73326 18.8639,-6.62319 8.8733,0.1145 15.9773,3.9186 20.3144,10.87819 2.5664,4.11813 3.0497,5.98812 3.3441,12.93746 0.1893,4.46794 -0.1765,10.05722 -0.8129,12.42062 -1.5757,5.85161 -7.9157,12.54772 -13.7687,14.54204 -5.3593,1.8261 -15.3196,1.94494 -20.0236,0.23891 z m 16.5449,-7.65332 c 5.7158,-2.59424 8.1639,-7.83062 8.1942,-17.52741 0.036,-11.37763 -4.4729,-17.38273 -13.6535,-18.18557 -9.9444,-0.86964 -16.3245,6.30125 -16.3245,18.34796 0,9.53563 2.897,15.00683 9.5,17.94157 4.1462,1.84278 7.2771,1.69583 12.2838,-0.57655 z m 96.2162,7.02983 c -8.7725,-4.68693 -13,-12.58961 -13,-24.30135 0,-9.22714 1.5195,-13.91286 6.2572,-19.29513 6.5927,-7.48966 17.148,-9.26763 25.6398,-4.31883 1.8683,1.08882 3.7639,1.61275 4.2124,1.16428 0.4485,-0.44847 0.9448,-5.53482 1.103,-11.303 l 0.2876,-10.48761 h 4 4 l 0.263,34.75 0.2629,34.75 h -3.9456 c -3.0687,0 -4.0867,-0.44494 -4.581,-2.00224 -0.6215,-1.95806 -0.7297,-1.94703 -4.9053,0.5 -5.3687,3.14632 -14.2611,3.39315 -19.594,0.54388 z m 17.9766,-7.83662 c 4.2468,-3.10873 6.0203,-7.88249 6.0203,-16.20502 0,-8.85214 -1.8607,-13.36708 -6.8948,-16.73007 -6.376,-4.25945 -14.6023,-2.10561 -18.0659,4.73007 -5.4015,10.66037 -2.1546,25.78103 6.3601,29.6183 3.7617,1.69529 9.1625,1.08856 12.5803,-1.41328 z m 40.6389,8.32268 c -5.5425,-1.97546 -11.2687,-7.96737 -13.2156,-13.82901 -1.1844,-3.56598 -1.5174,-7.23842 -1.2017,-13.2533 0.3686,-7.02368 0.8938,-9.05395 3.3693,-13.02684 10.3108,-16.54777 38.4692,-13.75188 44.8896,4.45718 1.8355,5.20555 1.998,14.43131 0.3682,20.90376 -1.4932,5.92997 -8.5362,13.24455 -14.4413,14.99819 -5.4036,1.60468 -14.9019,1.48457 -19.7685,-0.24998 z m 18.2361,-8.26625 c 5.2286,-3.90367 6.6202,-6.92093 6.9548,-15.07896 0.2653,-6.4705 -0.049,-8.38074 -1.9957,-12.1085 -3.0313,-5.80628 -7.6429,-8.34291 -14.1352,-7.77516 -9.146,0.79982 -13.6755,6.80129 -13.6755,18.11984 0,9.26281 2.5368,14.62793 8.3008,17.55514 4.9189,2.49807 10.625,2.21871 14.5508,-0.71236 z m 133.1713,7.55157 c -7.7184,-3.98755 -8.4593,-6.33104 -8.878,-28.08024 -0.391,-20.31312 -0.079,-21.74548 4.7275,-21.71747 4.8864,0.0285 4.9801,0.38711 5.3133,20.34268 l 0.3143,18.81941 2.8058,2.4113 c 3.3299,2.86179 10.1244,3.27442 14.7269,0.89437 5.2774,-2.72903 6.2252,-6.19873 6.7608,-24.74837 0.475,-16.45433 0.5266,-16.77693 2.7731,-17.34076 1.259,-0.31599 3.2215,-0.27857 4.3612,0.0831 2.0233,0.64215 2.0722,1.24648 2.0722,25.5903 v 24.93261 h -3.8916 c -3.3176,0 -3.9842,-0.36894 -4.5194,-2.50136 l -0.6278,-2.50135 -4.1201,2.72655 c -5.8626,3.87972 -15.4868,4.36016 -21.8182,1.08918 z m 94.2436,0.53019 c -5.4667,-1.9355 -11.6691,-8.9135 -13.1499,-14.79433 -1.5458,-6.13914 -1.3961,-15.50518 0.3259,-20.38584 2.2318,-6.32557 5.4799,-9.97798 11.4874,-12.91716 12.8668,-6.29513 28.6238,-1.66582 34.8318,10.23334 2.1683,4.15616 2.8299,17.33627 1.168,23.27178 -1.6879,6.02878 -8.7245,13.29795 -14.5457,15.02668 -5.468,1.62381 -14.878,1.42059 -20.1175,-0.43447 z m 18.5851,-8.08176 c 5.3447,-3.9904 6.6299,-6.87873 6.9343,-15.58403 0.2459,-7.02977 -0.035,-8.72419 -2,-12.07332 -6.0218,-10.26288 -20.1747,-10.02357 -25.5359,0.43178 -2.4931,4.86189 -3.0819,14.63841 -1.1834,19.64902 3.4176,9.01991 14.6292,12.91917 21.785,7.57655 z m 96.6484,8.235 c -5.1127,-1.80959 -12.0071,-9.05819 -13.4053,-14.09392 -1.5656,-5.63863 -1.3405,-16.45431 0.4478,-21.52308 3.9258,-11.12687 16.63,-17.62745 29.055,-14.86715 10.6306,2.36166 17.2485,10.20045 18.156,21.50544 l 0.5168,6.43813 -19.3852,0.27206 -19.3851,0.27207 0.1633,3.39533 c 0.2909,6.05 6.2299,11.87828 13.034,12.7909 5.2754,0.70758 10.9514,-1.97649 13.5719,-6.4179 1.8109,-3.0692 2.3566,-3.34378 6.1012,-3.06953 5.2109,0.38166 5.7764,2.46991 2.152,7.94674 -5.1794,7.8266 -19.8541,11.30384 -31.0224,7.35091 z m 24.1346,-30.98653 c 0.9337,-2.4334 -2.9761,-8.68752 -6.6695,-10.66829 -7.3608,-3.94766 -16.5227,-1.17086 -20.1813,6.11661 -2.7539,5.48548 -1.5229,6.04176 13.37,6.04176 10.514,0 13.0151,-0.27646 13.4808,-1.49008 z m 32.8654,30.98653 c -5.3789,-1.9038 -12.0423,-9.08285 -13.5183,-14.56444 -0.6435,-2.38971 -1.0151,-8.00051 -0.8258,-12.46845 0.2944,-6.94934 0.7777,-8.81933 3.3441,-12.93746 4.3218,-6.93503 11.4324,-10.75345 20.3144,-10.90901 17.3272,-0.30346 27.2783,10.90572 25.9618,29.24409 -0.7666,10.67973 -4.9314,17.04494 -13.7762,21.05479 -5.3734,2.43607 -15.4859,2.7091 -21.5,0.58048 z m 18.3516,-8.235 c 4.9935,-3.72819 6.4147,-6.72987 6.9209,-14.61826 0.4064,-6.33231 0.1359,-8.20094 -1.7513,-12.09948 -5.4512,-11.26054 -20.8411,-11.32544 -26.4098,-0.11138 -2.6871,5.41113 -2.5163,15.87351 0.3508,21.49354 3.826,7.4997 14.3802,10.19544 20.8894,5.33558 z m 66.0009,7.72304 c -4.7787,-2.52474 -10.2372,-8.98753 -11.6919,-13.84293 -2.0332,-6.78622 -1.4582,-17.96042 1.2202,-23.71242 4.5406,-9.75131 14.6528,-14.91473 24.4078,-12.46304 2.5913,0.65126 5.5095,1.90468 6.485,2.78537 2.8594,2.58149 3.6306,0.47386 3.9388,-10.76386 l 0.2876,-10.48761 h 4 4 l 0.263,34.75 0.2629,34.75 h -3.9456 c -3.0114,0 -4.0897,-0.45422 -4.5544,-1.91845 -0.5861,-1.8466 -0.7665,-1.82833 -4.8174,0.48796 -5.3961,3.08548 -14.4436,3.27457 -19.856,0.41498 z m 18.1241,-7.77292 c 1.3878,-1.01235 3.3423,-3.48734 4.3433,-5.49998 2.4624,-4.95142 2.4504,-16.48103 -0.023,-21.52149 -2.1618,-4.40654 -7.4949,-8.1901 -11.5442,-8.1901 -4.0141,0 -9.2919,2.64703 -11.2568,5.6458 -3.911,5.96895 -3.7235,20.75458 0.3342,26.3542 4.2589,5.87727 12.4934,7.33465 18.146,3.21157 z m 39.4825,7.42156 c -6.2632,-2.91655 -9.9587,-7.20884 -11.9344,-13.86205 -5.6848,-19.14273 5.0402,-36.06975 22.912,-36.16134 14.8132,-0.0759 24.1318,8.51721 24.8229,22.89026 l 0.2404,5 -19.2897,0.27173 c -21.7705,0.30668 -21.6228,0.24658 -18.4154,7.49755 4.8795,11.03092 18.4764,12.79686 25.692,3.33683 2.1348,-2.79889 3.4514,-3.60268 5.8818,-3.5908 1.7222,0.008 3.8053,0.4414 4.6291,0.96216 3.2148,2.0323 -4.4461,11.62772 -11.7157,14.67407 -5.3355,2.23584 -16.9472,1.7177 -22.823,-1.01841 z m 24.8863,-32.44899 c -0.5416,-11.61554 -19.3912,-13.85893 -25.6578,-3.05365 -3.7018,6.383 -2.5997,6.96722 12.5422,6.64868 l 13.2702,-0.27917 z m -828.8906,32.55875 c -0.2653,-0.69141 -0.3637,-16.32891 -0.2186,-34.75 l 0.2638,-33.49289 h 24.5 24.5 v 4 4 l -19.5,0.5 -19.5,0.5 -0.2965,7.99664 c -0.4978,13.42566 -1.8981,12.41056 17.5595,12.72924 l 16.737,0.27412 0.3011,3.08517 c 0.1691,1.7334 -0.3,3.58403 -1.0708,4.2237 -0.8652,0.71802 -7.2552,1.24057 -17.3011,1.41483 l -15.9292,0.2763 -0.276,15.25 -0.2761,15.25 h -4.5053 c -2.6954,0 -4.6992,-0.50503 -4.9878,-1.25711 z m 118.1719,-0.27337 c -1.0781,-2.8094 -0.7117,-45.44215 0.4085,-47.53526 1.7228,-3.21915 6.8974,-2.36551 8.2753,1.36517 0.6132,1.66004 1.0336,1.58258 5.4271,-1 3.9536,-2.32402 5.8785,-2.79025 11.3345,-2.74539 7.3378,0.0603 11.7845,2.02385 15.3234,6.76623 1.9561,2.62136 2.1261,4.29648 2.4106,23.75 l 0.3062,20.92973 h -4.5562 -4.5561 v -17.03212 c 0,-19.8192 -0.8449,-23.16948 -6.4319,-25.50387 -4.6126,-1.92725 -6.1359,-1.85166 -11.0986,0.55075 -6.1629,2.98343 -6.8016,5.08992 -7.424,24.48524 l -0.5455,17 -4.1233,0.30131 c -3.0828,0.22527 -4.2815,-0.11082 -4.75,-1.33179 z m 202.0557,0.87955 c -0.3753,-0.37532 -0.6824,-15.6273 -0.6824,-33.89329 0,-26.94109 0.2593,-33.42609 1.3735,-34.35077 0.9679,-0.80327 8.8672,-1.06091 26.75,-0.87245 l 25.3765,0.26744 v 4 4 l -21.2848,0.26999 -21.2847,0.26999 0.2847,10.23001 0.2848,10.23001 19.75,0.27114 19.75,0.27114 v 3.95772 3.95772 l -19.75,0.27114 -19.75,0.27114 -0.2855,10.91901 c -0.2105,8.04723 0.053,11.14409 1,11.77476 0.707,0.47066 9.8643,0.55898 20.3495,0.19627 21.7968,-0.754 23.7545,-0.33909 23.2444,4.9264 l -0.3084,3.18356 -27.0676,0.26574 c -14.8872,0.14616 -27.3747,-0.0413 -27.75,-0.41667 z m 124.5504,-24.59907 0.2672,-25.25 3.2428,-0.31282 c 2.6688,-0.25745 3.4509,0.14377 4.418,2.26647 l 1.1752,2.57929 2.125,-1.99634 c 3.4492,-3.24027 7.7671,-4.32154 12.3402,-3.09012 4.742,1.27689 5.437,2.58179 3.6448,6.84406 -1.2849,3.05599 -1.5189,3.16121 -5.7429,2.58224 -9.9539,-1.36434 -11.9611,2.6252 -12.5161,24.87722 l -0.4178,16.75 h -4.4018 -4.4017 z m -437.7719,-209 c -0.262,-0.6875 -0.3604,-46.925 -0.2186,-102.75 l 0.2577,-101.5 h 65.5 65.5 v 12 12 l -52.1458,0.25887 -52.1458,0.25886 -0.3542,3.74114 c -0.1948,2.05762 -0.2095,16.22407 -0.033,31.48099 l 0.3214,27.73986 45.1786,0.26014 45.1785,0.26014 v 12 12 l -45.25,0.26019 c -42.229,0.24282 -45.2498,0.37634 -45.2474,2 0.059,40.33085 -0.3223,88.90943 -0.7062,89.90976 -0.7109,1.85259 -25.1312,1.92826 -25.8355,0.0801 z m 165.1486,-0.32528 c -0.9175,-2.39099 -0.7026,-201.72986 0.2191,-203.18157 0.6308,-0.99359 15.447,-1.20305 70.7347,-1 l 69.9367,0.25685 v 12 12 l -57.25,0.25819 -57.25,0.25819 v 30.99181 30.99181 h 52.8776 c 44.0046,0 53.0717,0.234 54.0349,1.39452 0.7619,0.91808 1.06,5.10324 0.8724,12.25 l -0.2849,10.85548 -53.5,0.5 -53.5,0.5 -0.2631,34.25 -0.2632,34.25 h 58.322 c 45.4014,0 58.7047,0.27982 60.0494,1.26308 1.4879,1.088 1.6877,2.78601 1.4411,12.25 l -0.2862,10.98692 -72.6405,0.2565 c -65.5915,0.23161 -72.6997,0.10238 -73.25,-1.33178 z m 180.8758,0.38892 c -0.2754,-0.7225 -0.3848,-46.98864 -0.243,-102.81364 l 0.2577,-101.5 38.5,-0.30278 c 51.8774,-0.40799 63.5168,0.85149 79,8.54847 9.1479,4.54759 22.8828,17.62407 28.2566,26.90206 5.2248,9.02076 10.6742,23.31933 13.054,34.25239 2.8626,13.15053 3.0942,49.00866 0.4025,62.30967 -3.6507,18.04029 -10.2054,33.29734 -19.7606,45.99625 -9.2246,12.25943 -22.1532,20.53059 -38.9768,24.93565 -8.0339,2.10357 -10.8608,2.23922 -54.2327,2.60241 -37.1377,0.31098 -45.8513,0.13571 -46.2577,-0.93048 z m 94.0147,-26.17842 c 9.5075,-2.72697 14.5754,-5.60221 20.8015,-11.80162 7.3771,-7.34548 12.8364,-18.67285 16.4401,-34.11109 2.3279,-9.97325 2.6242,-13.33754 2.6613,-30.22251 0.025,-11.45089 -0.4624,-21.58259 -1.2274,-25.5 -4.3671,-22.36529 -14.528,-38.53922 -28.8849,-45.97844 -9.2631,-4.79981 -13.0177,-5.26903 -46.0406,-5.75382 l -31.25,-0.45877 v 78.17179 78.1718 l 30.75,-0.3982 c 25.2307,-0.32673 31.8269,-0.7071 36.75,-2.11914 z m 104.1667,26.69811 c -0.9563,-0.95628 -0.7964,-202.58084 0.1619,-204.09018 0.6308,-0.99359 15.447,-1.20305 70.7347,-1 l 69.9367,0.25685 v 12 12 l -57.25,0.25819 -57.25,0.25819 v 30.99181 30.99181 h 52.9648 c 51.3413,0 52.9966,0.0593 54,1.93426 1.2043,2.25016 1.3801,19.97438 0.2164,21.8068 -0.6078,0.9571 -12.9025,1.3003 -53.7347,1.5 l -52.9465,0.25894 -0.2631,34.25 -0.2632,34.25 58.2632,0.0153 c 32.0447,0.008 58.7988,0.35592 59.4536,0.77223 0.979,0.62248 1.7903,14.22373 1.3697,22.96246 -0.048,0.98792 -15.2256,1.25 -72.3935,1.25 -39.7834,0 -72.6334,-0.3 -73,-0.66667 z m 180.9514,-0.88612 c -0.9482,-2.47107 -0.7036,-201.76409 0.2495,-203.26728 0.6817,-1.07507 10.8399,-1.24435 54.7347,-0.9121 59.2382,0.44838 61.6909,0.67155 74.0438,6.73726 7.102,3.48733 16.3316,12.75482 20.6258,20.71055 6.1461,11.3867 8.2628,28.37966 5.2851,42.42834 -4.2636,20.11574 -19.501,34.34521 -43.307,40.44219 -3.9875,1.02124 -7.25,2.16438 -7.25,2.5403 0,0.37592 1.9125,1.80911 4.25,3.18487 5.2976,3.11799 14.2095,12.01381 21.2269,21.18866 5.63,7.36105 41.5231,65.71598 41.5231,67.5083 0,0.68991 -5.4305,0.94853 -16.0941,0.76647 l -16.094,-0.27477 -15.496,-25.5 c -22.2605,-36.63162 -29.0945,-46.60558 -37.1233,-54.17951 -10.2721,-9.69021 -12.6351,-10.32049 -38.6926,-10.32049 h -21 l -0.5,45 -0.5,45 -12.6319,0.279 c -10.8581,0.23981 -12.7187,0.0528 -13.25,-1.33179 z m 95.3819,-114.48144 c 15.9181,-2.06399 24.2833,-7.19538 30,-18.40259 3.1969,-6.26724 3.5,-7.60647 3.5,-15.46236 0,-7.40365 -0.3913,-9.39759 -2.8109,-14.32507 -5.0641,-10.31258 -14.2212,-15.83906 -29.587,-17.85643 -4.1812,-0.54894 -21.5521,-0.86785 -38.6021,-0.70869 l -31,0.28937 -0.2642,32.49188 c -0.1453,17.87053 -0.047,33.05803 0.2186,33.75 0.5987,1.56012 56.8238,1.74378 68.5456,0.22389 z"
       id="path457" />
  </g>
</svg>
