<?xml version="1.0" encoding="UTF-8" standalone="no"?>
<svg
   xmlns:dc="http://purl.org/dc/elements/1.1/"
   xmlns:cc="http://creativecommons.org/ns#"
   xmlns:rdf="http://www.w3.org/1999/02/22-rdf-syntax-ns#"
   xmlns:svg="http://www.w3.org/2000/svg"
   xmlns="http://www.w3.org/2000/svg"
   viewBox="0 0 490.60599 149.38268"
   height="149.38268"
   width="490.60599"
   xml:space="preserve"
   id="svg2"
   version="1.1"><metadata
     id="metadata8"><rdf:RDF><cc:Work
         rdf:about=""><dc:format>image/svg+xml</dc:format><dc:type
           rdf:resource="http://purl.org/dc/dcmitype/StillImage" /><dc:title></dc:title></cc:Work></rdf:RDF></metadata><defs
     id="defs6"><clipPath
       id="clipPath18"
       clipPathUnits="userSpaceOnUse"><path
         id="path16"
         d="M 0,793.701 H 623.622 V 0 H 0 Z" /></clipPath><clipPath
       id="clipPath26"
       clipPathUnits="userSpaceOnUse"><path
         id="path24"
         d="m 0.09,793.62 h 623.7 V 0 H 0.09 Z" /></clipPath><clipPath
       id="clipPath36"
       clipPathUnits="userSpaceOnUse"><path
         id="path34"
         d="m 91.807,295.673 h 336.856 v 80.348 H 91.807 Z" /></clipPath><clipPath
       id="clipPath44"
       clipPathUnits="userSpaceOnUse"><path
         style="clip-rule:evenodd"
         id="path42"
         d="M 91.807,375.994 H 428.558 V 295.671 H 91.807 Z" /></clipPath><clipPath
       id="clipPath52"
       clipPathUnits="userSpaceOnUse"><path
         id="path50"
         d="M 0,793.701 H 623.622 V 0 H 0 Z" /></clipPath><clipPath
       id="clipPath60"
       clipPathUnits="userSpaceOnUse"><path
         id="path58"
         d="m 0.09,793.62 h 623.7 V 0 H 0.09 Z" /></clipPath></defs><g
     transform="matrix(1.3333333,0,0,-1.3333333,-103.782,520.488)"
     id="g10"><g
       id="g12"><g
         clip-path="url(#clipPath18)"
         id="g14"><g
           id="g20"><g
             clip-path="url(#clipPath26)"
             id="g22"><path
               id="path28"
               style="fill:#ffffff;fill-opacity:0;fill-rule:nonzero;stroke:none"
               d="m 91.807,295.671 h 336.751 v 80.323 H 91.807 Z" /></g></g></g></g><g
       id="g30"><g
         clip-path="url(#clipPath36)"
         id="g32"><g
           id="g38"><g
             clip-path="url(#clipPath44)"
             id="g40"><g
               id="g46"><g
                 clip-path="url(#clipPath52)"
                 id="g48"><g
                   id="g54"><g
                     clip-path="url(#clipPath60)"
                     id="g56"><g
                       transform="translate(153.91,375.96)"
                       id="g62"><path
                         id="path64"
                         style="fill:#3d5191;fill-opacity:1;fill-rule:nonzero;stroke:none"
                         d="m 0,0 -11.071,-79.554 c 0,0 -4.4,-0.733 -10.412,-0.733 -6.012,0 -20.907,1.983 -29.768,10.118 -8.066,7.405 -10.852,16.571 -10.852,21.923 0,5.353 0.073,18.185 16.058,32.848 8.675,7.959 18.11,11.071 23.169,12.686 C -12.14,0.71 0,0 0,0" /></g><g
                       transform="translate(153.91,375.96)"
                       id="g66"><path
                         id="path68"
                         style="fill:#3d5191;fill-opacity:1;fill-rule:nonzero;stroke:none"
                         d="m 0,0 -11.071,-79.554 c 0,0 -4.4,-0.733 -10.412,-0.733 -6.012,0 -20.907,1.983 -29.768,10.118 -8.066,7.405 -10.852,16.571 -10.852,21.923 0,5.353 0.073,18.185 16.058,32.848 8.675,7.959 18.11,11.071 23.169,12.686 C -12.14,0.71 0,0 0,0" /></g><g
                       transform="translate(173.558,358.863)"
                       id="g70"><path
                         id="path72"
                         style="fill:#b7c0db;fill-opacity:1;fill-rule:nonzero;stroke:none"
                         d="m 0,0 h -8.535 l -0.698,-4.89 h 7.501 L -2.218,-8.352 H -9.72 l -0.759,-5.437 H 0.273 l -0.485,-3.463 h -15.157 l 2.916,20.716 H 0.486" /></g><g
                       transform="translate(273.794,360.461)"
                       id="g74"><path
                         id="path76"
                         style="fill:#3e5293;fill-opacity:1;fill-rule:nonzero;stroke:none"
                         d="m 0,0 c 0,-1.258 -0.999,-2.259 -2.257,-2.259 -1.258,0 -2.257,1.001 -2.257,2.259 0,1.258 0.999,2.258 2.257,2.258 C -0.999,2.258 0,1.258 0,0 Z m -2.643,-18.712 h -4.356 l 2.064,14.646 h 4.356 l -2.064,-14.646" /></g><g
                       transform="translate(281.118,354.526)"
                       id="g78"><path
                         id="path80"
                         style="fill:#3e5293;fill-opacity:1;fill-rule:nonzero;stroke:none"
                         d="m 0,0 0.063,-0.065 c 1.421,1.355 2.905,2.192 4.583,2.192 1.936,0 3.323,-1 3.71,-2.677 2.065,1.969 3.549,2.677 5.322,2.677 3.195,0 4.71,-2.484 4.227,-5.807 l -1.258,-9.097 h -4.356 l 1.195,8.421 c 0.29,2.064 -0.098,3.259 -1.162,3.259 -0.967,0 -2.322,-0.873 -3.548,-2.292 L 7.454,-12.777 H 3.098 l 1.128,8.389 c 0.291,2.226 -0.031,3.291 -1.258,3.291 -0.935,0 -2.064,-0.743 -3.451,-2.292 l -1.322,-9.388 h -4.356 l 2.064,14.646 h 4.355" /></g><g
                       transform="translate(307.411,345.297)"
                       id="g82"><path
                         id="path84"
                         style="fill:#3e5293;fill-opacity:1;fill-rule:nonzero;stroke:none"
                         d="m 0,0 c 0.517,-0.226 0.774,-0.289 1.323,-0.289 3.678,0 4.806,3.063 4.806,5.162 0,2.547 -1.775,3.774 -5.032,3.064 z m 1.549,11.097 c 0.485,0.098 0.966,0.162 1.419,0.195 0.451,0.033 0.903,0.064 1.258,0.064 3.839,0 6.421,-2.548 6.421,-6.387 0,-4.904 -4.066,-8.808 -9.195,-8.808 -0.743,0 -1.195,0.098 -1.969,0.291 l -1.031,-7.42 H -5.904 L -3.58,5.647 C -6.002,3.839 -6.097,2.518 -6.871,2.518 c -0.162,0 -0.259,0.129 -0.259,0.29 0,0.515 0.967,3.355 3.969,5.775 l 0.741,5.356 H 1.936 L 1.549,11.097" /></g><g
                       transform="translate(333.672,341.749)"
                       id="g86"><path
                         id="path88"
                         style="fill:#3e5293;fill-opacity:1;fill-rule:nonzero;stroke:none"
                         d="m 0,0 h -4.356 l 0.259,1.647 C -5.549,0.42 -7.259,-0.258 -8.84,-0.258 c -3.355,0 -4.645,2.549 -4.193,5.613 l 1.322,9.291 h 4.355 L -8.454,6.872 c -0.419,-2.936 0.129,-3.904 1.163,-3.904 1.129,0 2.387,0.743 3.677,2.131 l 1.323,9.547 h 4.355" /></g><g
                       transform="translate(342.026,341.749)"
                       id="g90"><path
                         id="path92"
                         style="fill:#3e5293;fill-opacity:1;fill-rule:nonzero;stroke:none"
                         d="m 0,0 h -4.353 l 3.096,22.003 h 4.354" /></g><g
                       transform="translate(356.06,351.88)"
                       id="g94"><path
                         id="path96"
                         style="fill:#3e5293;fill-opacity:1;fill-rule:nonzero;stroke:none"
                         d="m 0,0 c -1.582,0.806 -3.484,1.225 -4.226,1.225 -0.581,0 -0.967,-0.258 -0.967,-0.644 0,-1.615 4.871,-2.841 4.871,-6.389 0,-2.676 -2.259,-4.581 -5.485,-4.581 -1.742,0 -3.226,0.387 -5.064,1.323 l 0.612,3.258 c 1.226,-0.451 2.614,-1.033 4,-1.033 0.873,0 1.421,0.323 1.421,0.807 0,1.58 -4.905,3.162 -4.905,6.066 0,2.807 2.259,4.742 5.484,4.742 1.55,0 2.936,-0.386 4.613,-1.323" /></g><g
                       transform="translate(368.74,352.977)"
                       id="g98"><path
                         id="path100"
                         style="fill:#3e5293;fill-opacity:1;fill-rule:nonzero;stroke:none"
                         d="m 0,0 c -5.42,0.547 -6.227,-3.646 -6.227,-5.453 0,-1.774 0.807,-2.807 2.13,-2.807 1.001,0 2.129,0.452 3.128,1.29 z M 2.774,-11.228 H -1.58 l 0.192,1.356 c -1.419,-1.13 -2.709,-1.647 -4.226,-1.647 -2.967,0 -5.129,2.614 -5.129,6.292 0,4.259 2.709,8.904 10.614,8.904 C 1.71,3.677 3,3.547 4.807,3.193 L 2.774,-11.228" /></g><g
                       transform="translate(189.5,341.749)"
                       id="g102"><path
                         id="path104"
                         style="fill:#b7c0db;fill-opacity:1;fill-rule:nonzero;stroke:none"
                         d="m 0,0 h -4.356 l 0.259,1.647 C -5.55,0.42 -7.259,-0.258 -8.84,-0.258 c -3.354,0 -4.645,2.549 -4.193,5.613 l 1.322,9.291 h 4.356 L -8.453,6.872 c -0.419,-2.936 0.13,-3.904 1.162,-3.904 1.128,0 2.387,0.743 3.678,2.131 l 1.322,9.547 h 4.356" /></g><g
                       transform="translate(199.307,354.298)"
                       id="g106"><path
                         id="path108"
                         style="fill:#b7c0db;fill-opacity:1;fill-rule:nonzero;stroke:none"
                         d="m 0,0 0.064,-0.065 c 1.356,1.679 2.484,2.42 3.549,2.42 0.872,0 1.613,-0.452 2.614,-1.612 L 4.193,-3.291 C 3.452,-2.194 2.839,-1.71 2.13,-1.71 c -1.033,0 -2.162,-1.16 -2.647,-2.128 l -1.226,-8.712 h -4.355 l 2.065,14.646 h 4.356" /></g><g
                       transform="translate(212.799,353.105)"
                       id="g110"><path
                         id="path112"
                         style="fill:#b7c0db;fill-opacity:1;fill-rule:nonzero;stroke:none"
                         d="m 0,0 c -2.839,0 -3.742,-3.355 -3.742,-4.838 0,-2.228 1.613,-3.26 2.904,-3.26 2.515,0 3.774,2.839 3.774,4.871 C 2.936,-1.292 1.775,0 0,0 Z m -0.87,-11.647 c -4.163,0 -7.389,3.097 -7.389,7.065 0,4.454 3.808,8.13 8.452,8.13 4.194,0 7.26,-2.709 7.26,-6.903 0,-4.679 -3.613,-8.292 -8.323,-8.292" /></g><g
                       transform="translate(228.381,345.297)"
                       id="g114"><path
                         id="path116"
                         style="fill:#b7c0db;fill-opacity:1;fill-rule:nonzero;stroke:none"
                         d="m 0,0 c 0.516,-0.226 0.774,-0.289 1.322,-0.289 3.678,0 4.807,3.063 4.807,5.162 0,2.547 -1.774,3.774 -5.032,3.064 z m 1.548,11.097 c 0.485,0.098 0.967,0.162 1.42,0.195 0.452,0.033 0.903,0.064 1.258,0.064 3.839,0 6.421,-2.548 6.421,-6.387 0,-4.904 -4.066,-8.808 -9.196,-8.808 -0.742,0 -1.193,0.098 -1.967,0.291 l -1.032,-7.42 h -4.356 l 2.323,16.615 c -2.42,-1.808 -2.517,-3.129 -3.291,-3.129 -0.161,0 -0.258,0.129 -0.258,0.29 0,0.515 0.967,3.355 3.967,5.775 l 0.743,5.356 H 1.936 L 1.548,11.097" /></g><g
                       transform="translate(251.995,352.977)"
                       id="g118"><path
                         id="path120"
                         style="fill:#b7c0db;fill-opacity:1;fill-rule:nonzero;stroke:none"
                         d="m 0,0 c -5.42,0.547 -6.226,-3.646 -6.226,-5.453 0,-1.774 0.806,-2.807 2.129,-2.807 1.001,0 2.129,0.452 3.13,1.29 z M 2.775,-11.228 H -1.58 l 0.193,1.356 c -1.418,-1.13 -2.71,-1.647 -4.226,-1.647 -2.968,0 -5.129,2.614 -5.129,6.292 0,4.259 2.71,8.904 10.613,8.904 1.839,0 3.13,-0.13 4.936,-0.484 L 2.775,-11.228" /></g><g
                       transform="translate(159.594,321.074)"
                       id="g122"><path
                         id="path124"
                         style="fill:#3e5293;fill-opacity:1;fill-rule:nonzero;stroke:none"
                         d="m 0,0 c 1.773,1.353 3.225,1.903 5,1.903 3.387,0 4.291,-2.84 3.872,-5.839 L 7.614,-13.002 H 3.257 l 1.227,8.743 c 0.194,1.42 -0.13,2.935 -1.291,2.935 -1,0 -2.193,-0.677 -3.678,-2.257 l -1.322,-9.421 h -4.357 l 2.066,14.646 h 4.356" /></g><g
                       transform="translate(184.439,308.072)"
                       id="g126"><path
                         id="path128"
                         style="fill:#3e5293;fill-opacity:1;fill-rule:nonzero;stroke:none"
                         d="m 0,0 h -4.356 l 0.258,1.644 C -5.55,0.419 -7.26,-0.259 -8.84,-0.259 c -3.355,0 -4.646,2.551 -4.195,5.614 l 1.323,9.291 h 4.355 L -8.453,6.872 c -0.419,-2.936 0.129,-3.905 1.162,-3.905 1.128,0 2.387,0.742 3.677,2.129 l 1.322,9.55 h 4.356" /></g><g
                       transform="translate(198.664,317.299)"
                       id="g130"><path
                         id="path132"
                         style="fill:#3e5293;fill-opacity:1;fill-rule:nonzero;stroke:none"
                         d="M 0,0 C 0.258,1.581 -0.613,2.678 -2.097,2.678 -3.516,2.678 -4.484,1.838 -5.129,0 Z m -5.549,-2.516 c -0.225,-2.387 1.258,-3.776 3.355,-3.776 1.356,0 3.033,0.516 5.42,1.484 L 2.452,-8.453 c -1.806,-0.677 -3.581,-1.065 -5.097,-1.065 -4.452,0 -7.291,2.807 -7.291,7.13 0,4.484 3.516,8.066 7.936,8.066 4.582,0 7.065,-3.517 6.033,-8.194 h -9.582" /></g><g
                       transform="translate(215.279,318.202)"
                       id="g134"><path
                         id="path136"
                         style="fill:#3e5293;fill-opacity:1;fill-rule:nonzero;stroke:none"
                         d="m 0,0 c -1.581,0.805 -3.484,1.225 -4.226,1.225 -0.581,0 -0.968,-0.257 -0.968,-0.645 0,-1.612 4.871,-2.839 4.871,-6.386 0,-2.68 -2.258,-4.583 -5.484,-4.583 -1.742,0 -3.227,0.389 -5.065,1.324 l 0.613,3.259 c 1.225,-0.453 2.614,-1.033 4,-1.033 0.872,0 1.42,0.322 1.42,0.806 0,1.58 -4.904,3.161 -4.904,6.066 0,2.806 2.259,4.742 5.485,4.742 1.548,0 2.935,-0.388 4.613,-1.323" /></g><g
                       transform="translate(224.473,322.718)"
                       id="g138"><path
                         id="path140"
                         style="fill:#3e5293;fill-opacity:1;fill-rule:nonzero;stroke:none"
                         d="M 0,0 H 3.226 L 2.646,-3.225 H -0.58 l -0.839,-4.743 c -0.291,-1.645 -0.032,-3.065 1.194,-3.065 0.58,0 1.226,0.225 2.516,0.871 v -3.839 c -1.42,-0.677 -2.452,-0.936 -3.742,-0.936 -3.613,0 -5.001,3.065 -4.453,6.13 l 1.033,5.582 H -7.84 L -7.29,0 h 2.968 l 0.515,3.098 h 4.421" /></g><g
                       transform="translate(234.765,320.622)"
                       id="g142"><path
                         id="path144"
                         style="fill:#3e5293;fill-opacity:1;fill-rule:nonzero;stroke:none"
                         d="m 0,0 0.064,-0.065 c 1.355,1.677 2.485,2.42 3.548,2.42 0.872,0 1.614,-0.452 2.614,-1.614 L 4.194,-3.291 c -0.743,1.097 -1.355,1.581 -2.065,1.581 -1.033,0 -2.161,-1.162 -2.646,-2.129 l -1.225,-8.711 h -4.356 l 2.065,14.646 h 4.355" /></g><g
                       transform="translate(248.45,319.427)"
                       id="g146"><path
                         id="path148"
                         style="fill:#3e5293;fill-opacity:1;fill-rule:nonzero;stroke:none"
                         d="m 0,0 c -2.838,0 -3.742,-3.354 -3.742,-4.84 0,-2.224 1.613,-3.256 2.904,-3.256 2.517,0 3.774,2.839 3.774,4.871 C 2.936,-1.29 1.775,0 0,0 Z m -0.87,-11.646 c -4.162,0 -7.389,3.097 -7.389,7.065 0,4.454 3.807,8.131 8.453,8.131 4.195,0 7.259,-2.709 7.259,-6.904 0,-4.678 -3.613,-8.292 -8.323,-8.292" /></g><g
                       transform="translate(279.255,318.524)"
                       id="g150"><path
                         id="path152"
                         style="fill:#3e5293;fill-opacity:1;fill-rule:nonzero;stroke:none"
                         d="m 0,0 c -0.871,0.323 -1.386,0.483 -1.807,0.58 -0.45,0.066 -0.805,0.066 -1.354,0.066 -2.937,0 -5.194,-1.937 -5.194,-4.485 0,-2.129 1.388,-3.354 3.806,-3.354 1.323,0 2.194,0.192 4.163,0.967 l -0.518,-3.969 c -1.258,-0.321 -3.063,-0.548 -4.516,-0.548 -4.387,0 -7.452,2.903 -7.452,7.065 0,4.614 4.097,8.131 9.388,8.131 1.42,0 3.13,-0.227 4.033,-0.517" /></g><g
                       transform="translate(287.126,320.622)"
                       id="g154"><path
                         id="path156"
                         style="fill:#3e5293;fill-opacity:1;fill-rule:nonzero;stroke:none"
                         d="m 0,0 0.066,-0.065 c 1.353,1.677 2.483,2.42 3.547,2.42 0.873,0 1.612,-0.452 2.614,-1.614 L 4.195,-3.291 C 3.452,-2.194 2.839,-1.71 2.13,-1.71 c -1.033,0 -2.162,-1.162 -2.646,-2.129 l -1.226,-8.711 h -4.356 l 2.064,14.646 h 4.356" /></g><g
                       transform="translate(302.716,317.299)"
                       id="g158"><path
                         id="path160"
                         style="fill:#3e5293;fill-opacity:1;fill-rule:nonzero;stroke:none"
                         d="M 0,0 C 0.259,1.581 -0.613,2.678 -2.096,2.678 -3.515,2.678 -4.484,1.838 -5.129,0 Z m -5.548,-2.516 c -0.227,-2.387 1.258,-3.776 3.354,-3.776 1.356,0 3.033,0.516 5.421,1.484 L 2.453,-8.453 c -1.807,-0.677 -3.581,-1.065 -5.099,-1.065 -4.451,0 -7.29,2.807 -7.29,7.13 0,4.484 3.517,8.066 7.937,8.066 4.58,0 7.065,-3.517 6.033,-8.194 h -9.582" /></g><g
                       transform="translate(322.008,318.524)"
                       id="g162"><path
                         id="path164"
                         style="fill:#3e5293;fill-opacity:1;fill-rule:nonzero;stroke:none"
                         d="m 0,0 c -0.872,0.323 -1.388,0.483 -1.807,0.58 -0.452,0.066 -0.806,0.066 -1.355,0.066 -2.936,0 -5.193,-1.937 -5.193,-4.485 0,-2.129 1.386,-3.354 3.806,-3.354 1.322,0 2.194,0.192 4.161,0.967 l -0.516,-3.969 c -1.258,-0.321 -3.065,-0.548 -4.516,-0.548 -4.388,0 -7.453,2.903 -7.453,7.065 0,4.614 4.097,8.131 9.388,8.131 1.42,0 3.129,-0.227 4.033,-0.517" /></g><g
                       transform="translate(330.977,326.783)"
                       id="g166"><path
                         id="path168"
                         style="fill:#3e5293;fill-opacity:1;fill-rule:nonzero;stroke:none"
                         d="m 0,0 c 0,-1.258 -1.001,-2.257 -2.259,-2.257 -1.258,0 -2.258,0.999 -2.258,2.257 0,1.258 1,2.257 2.258,2.257 C -1.001,2.257 0,1.258 0,0 Z M -2.646,-18.711 H -7 l 2.065,14.646 h 4.354 l -2.065,-14.646" /></g><g
                       transform="translate(338.396,320.847)"
                       id="g170"><path
                         id="path172"
                         style="fill:#3e5293;fill-opacity:1;fill-rule:nonzero;stroke:none"
                         d="M 0,0 0.065,-0.064 C 1.484,1.29 2.97,2.13 4.646,2.13 c 1.936,0 3.323,-0.999 3.71,-2.677 2.066,1.966 3.55,2.677 5.323,2.677 3.194,0 4.711,-2.484 4.228,-5.807 l -1.259,-9.098 h -4.355 l 1.193,8.419 c 0.291,2.067 -0.097,3.259 -1.161,3.259 -0.967,0 -2.323,-0.87 -3.549,-2.289 L 7.454,-12.775 H 3.098 l 1.129,8.387 c 0.29,2.227 -0.032,3.291 -1.257,3.291 -0.937,0 -2.066,-0.743 -3.452,-2.289 l -1.323,-9.389 h -4.356 l 2.065,14.646 h 4.354" /></g><g
                       transform="translate(365.721,326.783)"
                       id="g174"><path
                         id="path176"
                         style="fill:#3e5293;fill-opacity:1;fill-rule:nonzero;stroke:none"
                         d="m 0,0 c 0,-1.258 -0.999,-2.257 -2.257,-2.257 -1.258,0 -2.259,0.999 -2.259,2.257 0,1.258 1.001,2.257 2.259,2.257 C -0.999,2.257 0,1.258 0,0 Z M -2.644,-18.711 H -7 l 2.064,14.646 h 4.357 l -2.065,-14.646" /></g><g
                       transform="translate(377.142,317.299)"
                       id="g178"><path
                         id="path180"
                         style="fill:#3e5293;fill-opacity:1;fill-rule:nonzero;stroke:none"
                         d="M 0,0 C 0.258,1.581 -0.614,2.678 -2.097,2.678 -3.516,2.678 -4.484,1.838 -5.129,0 Z m -5.549,-2.516 c -0.226,-2.387 1.258,-3.776 3.355,-3.776 1.355,0 3.034,0.516 5.42,1.484 L 2.452,-8.453 c -1.805,-0.677 -3.58,-1.065 -5.098,-1.065 -4.451,0 -7.291,2.807 -7.291,7.13 0,4.484 3.517,8.066 7.936,8.066 4.583,0 7.066,-3.517 6.034,-8.194 h -9.582" /></g><g
                       transform="translate(389.563,321.074)"
                       id="g182"><path
                         id="path184"
                         style="fill:#3e5293;fill-opacity:1;fill-rule:nonzero;stroke:none"
                         d="m 0,0 c 1.775,1.353 3.226,1.903 5.001,1.903 3.386,0 4.29,-2.84 3.868,-5.839 L 7.614,-13.002 H 3.259 l 1.224,8.743 c 0.195,1.42 -0.129,2.935 -1.29,2.935 -0.999,0 -2.194,-0.677 -3.678,-2.257 l -1.322,-9.421 h -4.356 l 2.064,14.646 h 4.358" /></g><g
                       transform="translate(408.468,322.718)"
                       id="g186"><path
                         id="path188"
                         style="fill:#3e5293;fill-opacity:1;fill-rule:nonzero;stroke:none"
                         d="M 0,0 H 3.225 L 2.646,-3.225 h -3.225 l -0.843,-4.743 c -0.288,-1.645 -0.03,-3.065 1.195,-3.065 0.579,0 1.227,0.225 2.518,0.871 v -3.839 c -1.421,-0.677 -2.455,-0.936 -3.743,-0.936 -3.613,0 -5.001,3.065 -4.452,6.13 l 1.03,5.582 H -7.841 L -7.293,0 h 2.968 l 0.518,3.098 h 4.419" /></g><g
                       transform="translate(421.21,319.427)"
                       id="g190"><path
                         id="path192"
                         style="fill:#3e5293;fill-opacity:1;fill-rule:nonzero;stroke:none"
                         d="m 0,0 c -2.84,0 -3.743,-3.354 -3.743,-4.84 0,-2.224 1.615,-3.256 2.903,-3.256 2.516,0 3.777,2.839 3.777,4.871 C 2.937,-1.29 1.773,0 0,0 Z m -0.873,-11.646 c -4.161,0 -7.386,3.097 -7.386,7.065 0,4.454 3.806,8.131 8.45,8.131 4.195,0 7.262,-2.709 7.262,-6.904 0,-4.678 -3.616,-8.292 -8.326,-8.292" /></g><g
                       transform="translate(132.371,323.381)"
                       id="g194"><path
                         id="path196"
                         style="fill:#ced6e4;fill-opacity:1;fill-rule:nonzero;stroke:none"
                         d="m 0,0 c 0,0 -0.903,-1.885 -2.53,-1.512 0,0 -0.057,-1.077 0.798,-1.504 0,0 0.42,-0.05 0.612,0.027 l 0.083,-0.48 c 0,0 -0.392,-0.11 -0.525,-0.052 0,0 0.139,-0.55 0.147,-0.835 0,0 0.5,-0.037 0.619,-0.016 l 0.072,-0.645 c 0,0 -0.452,0.003 -0.593,0.101 l 0.052,-0.525 c 0,0 0.346,-0.104 0.539,-0.029 l 0.145,-0.591 c 0,0 -0.566,-0.058 -0.754,0.073 L -1.4,-6.78 -4.99,-7.41 c 0,0 -0.541,2.618 2.183,1.616 0,0 0.847,0.56 -0.745,2.377 0,0 -1.581,-0.36 -2.207,0.393 0,0 -0.365,-0.021 -0.965,1.516 0,0 -0.57,1.38 -1.609,1.445 0,0 1.029,0.75 1.794,1.481 l 0.623,0.111 -0.623,-0.108 c 0.34,0.322 0.628,0.643 0.749,0.894 0,0 -0.15,-0.364 -0.126,-0.786 0.02,-0.386 0.185,-0.823 0.74,-1.08 0,0 1.968,-0.436 2.614,-1.308 0,0 2.57,-0.124 1.787,1.998 0,0 -0.189,0.378 -0.525,0.648 0,0 -0.17,0.191 -0.317,0.493 l 0.569,0.101 -0.57,-0.097 c -0.175,0.354 -0.318,0.872 -0.098,1.403 0,0 0.266,0.828 0.205,1.187 l 0.553,-1.055 c 0,0 -0.382,-0.393 -0.118,-0.967 0,0 -0.015,-0.17 0.137,-0.449 h 0.001 c 0.098,-0.181 0.265,-0.407 0.55,-0.664 0,0 0.63,-1.245 0.388,-1.739 z m -7.774,-6.294 -0.559,-0.099 c 0,0 -0.242,0.451 -0.205,0.705 0,0 -0.737,-0.252 -0.95,-0.208 0,0 -0.069,-0.547 0.166,-0.712 l -0.614,-0.024 c 0,0 -0.236,0.41 -0.244,0.697 0,0 -0.319,-0.057 -0.547,0.067 0,0 -0.256,-0.413 -0.199,-0.732 l -0.648,0.174 c 0,0 -0.004,0.492 0.135,0.64 0,0 -0.827,0.019 -1.006,0.111 l -1.307,3.471 c 0,0 1.398,0.696 2.168,-0.648 0,0 0.26,-0.777 0.219,-1.483 0,0 0.224,-0.576 2.024,-0.055 0,0 -1.162,1.234 -0.368,2.564 0,0 0.501,1.363 2.051,0.729 0,0 0.702,-0.493 0.911,-1.442 0,0 -1.542,-0.353 -1.027,-3.755 z m -6.348,6.384 -0.881,0.156 -0.521,3.198 c 0,0 2.079,0.568 1.762,-2.075 0,0 1.419,-0.12 1.856,0.204 0,0 0.489,-0.465 1.036,-0.912 h 10e-4 c 0.434,-0.357 0.904,-0.701 1.193,-0.796 0,0 -0.224,-0.367 -0.307,-0.835 l -0.637,-0.111 c 0,0 0.029,0.541 0.16,0.727 0,0 -0.945,0 -1.079,0.058 l -0.326,-0.715 -0.713,0.081 0.148,0.558 -1.059,0.186 -0.189,-0.567 -0.614,0.222 0.221,0.613 z m 0.176,6.55 c 0,0 0.862,-0.994 2.301,-1.562 l -0.651,-0.115 0.651,0.112 c 0.489,-0.192 1.044,-0.333 1.655,-0.373 0,0 -1.075,-1.134 -1.819,-1.347 0,0 -0.305,-0.135 -0.567,-0.511 l -0.576,0.229 c 0,0 -0.076,0.44 0.421,0.648 0,0 -1.028,0.479 -1.157,0.743 0,0 -0.379,-0.189 -0.434,-0.569 l -0.509,0.321 c 0,0 0.13,0.218 0.325,0.396 l 0.007,0.001 c 0.058,0.057 0.121,0.107 0.188,0.147 0,0 -0.784,0.726 -0.88,1.039 l -0.47,2.917 c 0,0 2.038,0.561 1.515,-2.076 z m 3.697,-0.463 c 0.509,-0.322 0.74,0.007 0.74,0.007 0.767,0.544 0.881,0.359 0.881,0.359 -0.431,-0.116 -0.765,-0.791 -0.765,-0.791 -0.786,-0.673 -1.285,0.063 -1.285,0.063 -0.409,0.461 -0.895,0.418 -0.895,0.418 0.673,0.61 1.324,-0.056 1.324,-0.056 z m 1.026,3.057 1.915,0.337 c 0.254,-0.983 -0.4,-3.114 -0.4,-3.114 -0.436,-1.269 -1.3,-0.555 -1.3,-0.555 1.851,0.694 0.233,1.48 0.233,1.48 -1.039,0.064 -0.943,-0.947 -0.943,-0.947 l -1.084,0.55 c 0.258,1.114 1.579,2.249 1.579,2.249 z m 0.438,1.021 0.413,0.69 0.677,-0.58 0.36,0.761 0.255,-0.982 -2.075,-0.364 -0.199,0.91 z m -2.774,-8.088 -0.443,0.413 c 0,0 2.044,0.771 2.981,2.457 l 0.743,0.211 c 0,0 -0.916,-1.804 -3.281,-3.081 z m 5.481,6.016 C -6.107,7.386 -6.295,6.642 -6.58,5.964 L -6.884,5.91 -6.579,5.963 C -7.76,3.14 -10.601,1.389 -10.601,1.389 l -0.569,0.432 c 2.074,1.364 3.214,2.791 3.835,4.01 h 0.002 C -6.42,7.619 -6.624,8.95 -6.624,8.95 Z M -5.622,7.686 -5.13,6.993 C -5.21,6.707 -5.296,6.434 -5.39,6.172 -6.478,3.108 -8.447,1.515 -9.311,0.936 L -9.316,0.933 C -9.577,0.757 -9.736,0.678 -9.736,0.678 l -0.208,0.144 -0.308,0.217 c 2.514,1.665 3.671,3.65 4.198,5.017 h 0.001 c 0.375,0.973 0.431,1.63 0.431,1.63 z m 0.713,-1.427 c 0.012,0.05 0.017,0.077 0.017,0.077 L -4.864,6.264 -4.525,5.413 C -5.235,3.599 -6.494,2.17 -7.472,1.257 L -7.477,1.255 C -8.258,0.529 -8.86,0.132 -8.86,0.132 l -0.541,0.275 c 0.339,0.221 0.654,0.447 0.945,0.677 2.717,2.156 3.433,4.703 3.547,5.173 l 0.045,0.007 z m 1.125,4.545 c 1.323,0.192 1.812,-1.203 1.812,-1.203 L -2.569,9.497 C -4.127,11.115 -4.424,9.295 -4.424,9.295 -4.372,7.824 -3.198,6.756 -3.198,6.756 -3.172,6.695 -3.149,6.633 -3.129,6.57 -2.847,5.677 -3.227,4.573 -3.227,4.573 -3.549,4.062 -3.39,2.693 -3.39,2.693 l -0.657,0.463 c -0.151,0.629 0.305,1.778 0.305,1.778 0.337,1.127 -0.092,1.463 -0.092,1.463 -0.012,0.014 -0.024,0.028 -0.035,0.042 -0.7,0.835 -1.192,2.497 -1.192,2.497 -0.366,1.621 1.277,1.868 1.277,1.868 z M -2.19,2.183 v 0 c 0.019,-0.047 0.039,-0.092 0.062,-0.13 l -0.229,0.101 -0.439,0.193 c 0,0 -0.246,0.944 0.027,1.73 0,0 0.407,1.427 0.201,2.132 l 0.557,-0.601 c 0,0 0.173,-0.752 -0.26,-1.567 0,0 -0.18,-1.21 0.081,-1.858 z m 0.754,4.84 c 0,0 -0.008,-0.066 -0.007,-0.157 l -0.193,-0.035 0.193,0.033 c 0,-0.14 0.02,-0.346 0.119,-0.478 0,0 -0.298,0.108 -0.608,0.393 v 0 C -2.357,7.174 -2.805,7.898 -2.546,9.13 l 0.711,0.166 c 0,0 0.99,-0.484 0.399,-2.273 z m 1.164,6.599 0.002,-0.012 -18.46,-3.237 1.959,-11.167 c 1.491,-8.513 11,-9.567 17.787,-9.018 1.358,0.112 2.359,0.267 2.761,0.336 l -4.049,23.098" /></g><g
                       transform="translate(123.252,332.215)"
                       id="g198"><path
                         id="path200"
                         style="fill:#ced6e4;fill-opacity:1;fill-rule:nonzero;stroke:none"
                         d="m 0,0 -0.46,-0.607 0.518,0.091 C -0.136,-0.227 -0.031,-0.044 0,0" /></g><g
                       transform="translate(138.196,356.115)"
                       id="g202"><path
                         id="path204"
                         style="fill:#ced6e4;fill-opacity:1;fill-rule:nonzero;stroke:none"
                         d="m 0,0 -0.46,-0.605 0.518,0.089 C -0.136,-0.228 -0.031,-0.044 0,0" /></g><g
                       transform="translate(148.894,339.928)"
                       id="g206"><path
                         id="path208"
                         style="fill:#ced6e4;fill-opacity:1;fill-rule:nonzero;stroke:none"
                         d="m 0,0 0.703,4.931 -2.868,16.361 -18.308,-3.21 3.683,-21.018 h 10e-4 l -0.002,0.011" /></g><g
                       transform="translate(139.541,340.988)"
                       id="g210"><path
                         id="path212"
                         style="fill:#ced6e4;fill-opacity:1;fill-rule:nonzero;stroke:none"
                         d="m 0,0 -0.558,-0.098 c 0,0 -0.243,0.451 -0.205,0.704 0,0 -0.737,-0.253 -0.95,-0.207 0,0 -0.069,-0.547 0.165,-0.711 L -2.16,-0.337 c 0,0 -0.236,0.411 -0.245,0.696 0,0 -0.319,-0.056 -0.547,0.068 0,0 -0.256,-0.414 -0.201,-0.732 l -0.646,0.173 c 0,0 -0.004,0.493 0.135,0.639 0,0 -0.825,0.022 -1.006,0.113 l -1.307,3.469 c 0,0 1.398,0.698 2.167,-0.648 0,0 0.26,-0.777 0.219,-1.481 0,0 0.225,-0.578 2.024,-0.057 0,0 -1.162,1.236 -0.366,2.567 0,0 0.5,1.361 2.049,0.729 0,0 0.703,-0.494 0.912,-1.443 C 1.028,3.756 -0.514,3.404 0,0" /></g><g
                       transform="translate(138.86,348.367)"
                       id="g214"><path
                         id="path216"
                         style="fill:#ced6e4;fill-opacity:1;fill-rule:nonzero;stroke:none"
                         d="M 0,0 C 2.717,2.157 3.434,4.702 3.547,5.172 L 3.591,5.179 3.547,5.172 C 3.558,5.223 3.564,5.249 3.564,5.249 L 3.591,5.179 3.931,4.328 C 3.221,2.514 1.96,1.084 0.982,0.172 H 0.979 C 0.198,-0.556 -0.405,-0.954 -0.405,-0.954 l -0.541,0.276 C -0.606,-0.459 -0.292,-0.233 0,0 l 0.192,0.033" /></g><g
                       transform="translate(146.24,350.136)"
                       id="g218"><path
                         id="path220"
                         style="fill:#ced6e4;fill-opacity:1;fill-rule:nonzero;stroke:none"
                         d="m 0,0 c 0,0 -0.016,-0.172 0.136,-0.452 0.099,-0.18 0.267,-0.406 0.551,-0.661 0,0 0.63,-1.246 0.388,-1.741 0,0 -0.902,-1.883 -2.53,-1.513 0,0 -0.057,-1.078 0.798,-1.504 0,0 0.421,-0.047 0.613,0.027 l 0.083,-0.478 c 0,0 -0.392,-0.112 -0.525,-0.052 0,0 0.137,-0.551 0.147,-0.836 0,0 0.5,-0.038 0.619,-0.017 l 0.072,-0.645 c 0,0 -0.453,0.003 -0.594,0.104 l 0.052,-0.526 c 0,0 0.346,-0.103 0.54,-0.029 l 0.144,-0.591 c 0,0 -0.565,-0.06 -0.753,0.073 l -0.067,-0.793 -3.59,-0.63 c 0,0 -0.54,2.62 2.184,1.615 0,0 0.848,0.561 -0.744,2.378 0,0 -1.583,-0.358 -2.208,0.395 0,0 -0.366,-0.024 -0.964,1.515 0,0 -0.57,1.379 -1.609,1.444 0,0 1.028,0.751 1.792,1.482 l 0.509,0.09 -0.509,-0.089 c 0.341,0.324 0.629,0.646 0.749,0.894 0,0 -0.148,-0.361 -0.125,-0.784 0.019,-0.389 0.185,-0.825 0.741,-1.081 0,0 1.967,-0.437 2.614,-1.309 0,0 2.569,-0.124 1.786,1.998 0,0 -0.189,0.378 -0.525,0.648 0,0 -0.169,0.193 -0.316,0.494 l 0.544,0.098 -0.545,-0.095 c -0.174,0.357 -0.318,0.872 -0.098,1.404 0,0 0.266,0.827 0.203,1.186 L 0.118,0.965 C 0.118,0.965 -0.265,0.57 0,0" /></g><g
                       transform="translate(144.748,353.49)"
                       id="g222"><path
                         id="path224"
                         style="fill:#ced6e4;fill-opacity:1;fill-rule:nonzero;stroke:none"
                         d="m 0,0 0.557,-0.6 c 0,0 0.173,-0.751 -0.259,-1.566 0,0 -0.181,-1.213 0.079,-1.86 h 0.001 c 0.018,-0.047 0.039,-0.091 0.063,-0.129 l -0.23,0.1 -0.438,0.194 c 0,0 -0.247,0.943 0.025,1.731 0,0 0.407,1.427 0.202,2.13" /></g><g
                       transform="translate(145.879,354.306)"
                       id="g226"><path
                         id="path228"
                         style="fill:#ced6e4;fill-opacity:1;fill-rule:nonzero;stroke:none"
                         d="m 0,0 c 0,0 -0.008,-0.066 -0.007,-0.159 l -0.145,-0.026 0.145,0.025 c 0,-0.141 0.02,-0.347 0.119,-0.48 0,0 -0.296,0.109 -0.606,0.394 H -0.496 C -0.921,0.149 -1.368,0.872 -1.11,2.107 l 0.711,0.164 C -0.399,2.271 0.59,1.787 0,0" /></g><g
                       transform="translate(143.531,358.086)"
                       id="g230"><path
                         id="path232"
                         style="fill:#ced6e4;fill-opacity:1;fill-rule:nonzero;stroke:none"
                         d="M 0,0 C 1.323,0.19 1.814,-1.203 1.814,-1.203 L 1.215,-1.308 c -1.558,1.617 -1.855,-0.201 -1.855,-0.201 0.053,-1.471 1.227,-2.54 1.227,-2.54 0.026,-0.06 0.048,-0.122 0.069,-0.185 v 0 C 0.937,-5.125 0.558,-6.233 0.558,-6.233 0.236,-6.74 0.394,-8.109 0.394,-8.109 l -0.657,0.46 c -0.151,0.63 0.305,1.778 0.305,1.778 0.337,1.128 -0.092,1.464 -0.092,1.464 -0.013,0.014 -0.023,0.027 -0.036,0.042 -0.7,0.834 -1.19,2.496 -1.19,2.496 C -1.643,-0.248 0,0 0,0" /></g><g
                       transform="translate(141.693,354.97)"
                       id="g234"><path
                         id="path236"
                         style="fill:#ced6e4;fill-opacity:1;fill-rule:nonzero;stroke:none"
                         d="M 0,0 0.492,-0.696 C 0.413,-0.981 0.326,-1.253 0.232,-1.516 l -0.17,-0.03 0.172,0.029 C -0.856,-4.58 -2.824,-6.172 -3.687,-6.753 H -3.692 C -3.954,-6.93 -4.114,-7.011 -4.114,-7.011 l -0.208,0.147 -0.307,0.214 c 2.513,1.665 3.67,3.65 4.197,5.018 H -0.43 C -0.055,-0.658 0,0 0,0" /></g><g
                       transform="translate(141.236,355.464)"
                       id="g238"><path
                         id="path240"
                         style="fill:#ced6e4;fill-opacity:1;fill-rule:nonzero;stroke:none"
                         d="M 0,0 C -0.028,-0.795 -0.216,-1.538 -0.5,-2.217 L -0.735,-2.26 -0.5,-2.217 c -1.181,-2.824 -4.022,-4.576 -4.022,-4.576 l -0.569,0.434 c 2.075,1.362 3.214,2.789 3.836,4.009 h 0.002 c 0.912,1.787 0.709,3.117 0.709,3.117" /></g><g
                       transform="translate(135.757,349.448)"
                       id="g242"><path
                         id="path244"
                         style="fill:#ced6e4;fill-opacity:1;fill-rule:nonzero;stroke:none"
                         d="m 0,0 -0.443,0.415 c 0,0 2.043,0.769 2.982,2.456 L 3.282,3.082 C 3.282,3.082 2.365,1.278 0,0" /></g><g
                       transform="translate(138.53,357.538)"
                       id="g246"><path
                         id="path248"
                         style="fill:#ced6e4;fill-opacity:1;fill-rule:nonzero;stroke:none"
                         d="M 0,0 0.414,0.689 1.091,0.11 1.45,0.871 1.706,-0.111 -0.369,-0.476 -0.568,0.435" /></g><g
                       transform="translate(138.093,356.516)"
                       id="g250"><path
                         id="path252"
                         style="fill:#ced6e4;fill-opacity:1;fill-rule:nonzero;stroke:none"
                         d="M 0,0 1.914,0.336 C 2.168,-0.647 1.515,-2.775 1.515,-2.775 1.079,-4.044 0.214,-3.333 0.214,-3.333 c 1.851,0.695 0.234,1.48 0.234,1.48 -1.038,0.064 -0.942,-0.946 -0.942,-0.946 l -1.085,0.55 C -1.321,-1.136 0,0 0,0" /></g><g
                       transform="translate(137.067,353.458)"
                       id="g254"><path
                         id="path256"
                         style="fill:#ced6e4;fill-opacity:1;fill-rule:nonzero;stroke:none"
                         d="M 0,0 C 0.508,-0.321 0.739,0.008 0.739,0.008 1.507,0.553 1.621,0.368 1.621,0.368 1.19,0.251 0.856,-0.424 0.856,-0.424 0.069,-1.097 -0.429,-0.362 -0.429,-0.362 -0.84,0.101 -1.326,0.057 -1.326,0.057 -0.652,0.669 0,0 0,0" /></g><g
                       transform="translate(133.369,353.921)"
                       id="g258"><path
                         id="path260"
                         style="fill:#ced6e4;fill-opacity:1;fill-rule:nonzero;stroke:none"
                         d="m 0,0 c 0,0 0.862,-0.994 2.301,-1.562 l -0.747,-0.131 0.747,0.13 c 0.489,-0.191 1.044,-0.335 1.656,-0.373 0,0 -1.076,-1.135 -1.819,-1.347 0,0 -0.305,-0.137 -0.569,-0.51 l -0.573,0.227 c 0,0 -0.078,0.439 0.419,0.649 0,0 -1.028,0.478 -1.157,0.743 0,0 -0.377,-0.189 -0.434,-0.569 l -0.508,0.322 c 0,0 0.13,0.215 0.325,0.395 l 0.006,0.002 c 0.058,0.055 0.121,0.105 0.19,0.146 0,0 -0.785,0.726 -0.881,1.037 l -0.471,2.919 c 0,0 2.039,0.561 1.515,-2.078" /></g><g
                       transform="translate(133.553,348.65)"
                       id="g262"><path
                         id="path264"
                         style="fill:#ced6e4;fill-opacity:1;fill-rule:nonzero;stroke:none"
                         d="m 0,0 c 0,0 1.419,-0.12 1.857,0.202 0,0 0.488,-0.462 1.035,-0.909 l 0.002,0.001 c 0.434,-0.358 0.904,-0.7 1.193,-0.797 0,0 -0.223,-0.368 -0.306,-0.834 L 3.142,-2.449 c 0,0 0.029,0.539 0.161,0.727 0,0 -0.945,-0.001 -1.079,0.057 L 1.898,-2.379 1.185,-2.3 1.332,-1.739 0.273,-1.554 0.085,-2.123 -0.53,-1.9 l 0.222,0.613 -0.051,0.01 -0.881,0.156 -0.521,3.197 c 0,0 2.08,0.57 1.761,-2.076" /></g><g
                       transform="translate(146.412,333.182)"
                       id="g266"><path
                         id="path268"
                         style="fill:#5c77b6;fill-opacity:1;fill-rule:nonzero;stroke:none"
                         d="M 0,0 -0.142,0.797 C -0.178,1 -0.373,1.136 -0.577,1.102 -0.782,1.065 -0.918,0.872 -0.883,0.666 l 0.139,-0.797" /></g><g
                       transform="translate(143.047,332.778)"
                       id="g270"><path
                         id="path272"
                         style="fill:#5c77b6;fill-opacity:1;fill-rule:nonzero;stroke:none"
                         d="M 0,0 -0.217,1.214 C -0.253,1.419 -0.447,1.554 -0.651,1.52 -0.857,1.482 -0.992,1.29 -0.957,1.085 l 0.214,-1.216" /></g><g
                       transform="translate(146.495,322.71)"
                       id="g274"><path
                         id="path276"
                         style="fill:#5c77b6;fill-opacity:1;fill-rule:nonzero;stroke:none"
                         d="m 0,0 -0.629,-0.111 -0.202,1.156 1.006,0.173 z m -0.266,-1.961 -8.314,-1.457 -0.234,1.335 8.741,1.533 z m -8.683,0.88 0.848,0.909 4.326,0.76 0.204,-1.156 -5.304,-0.931 z m -0.101,12.415 1.313,0.23 0.074,-0.417 0.481,0.087 -0.074,0.417 1.138,0.198 0.062,-0.359 -0.24,-0.042 0.42,-2.391 -2.377,-0.416 -0.423,2.347 -0.302,-0.056 z m 4.458,1.832 0.1,-0.567 0.536,0.092 -0.099,0.57 1.032,0.18 0.074,-0.42 -0.268,-0.047 0.592,-3.379 -2.258,-0.395 -0.59,3.363 -0.254,-0.043 -0.074,0.418 z m 3.536,-0.492 0.074,-0.42 0.48,0.087 -0.074,0.419 1.137,0.2 0.062,-0.36 -0.239,-0.042 0.42,-2.392 -2.377,-0.418 -0.423,2.35 -0.303,-0.056 -0.071,0.405 z M 1.361,9.715 1.242,8.853 l -0.14,-0.3 -9.166,-1.607 -0.614,0.602 -0.099,0.569 1.763,0.308 0.095,-0.538 0.986,0.172 -0.09,0.523 1.614,0.283 0.091,-0.522 1.152,0.203 -0.092,0.523 1.795,0.314 0.091,-0.523 1.002,0.176 -0.095,0.538 1.796,0.314 z M -3.845,1.11 -8.052,0.373 -7.908,6.46 1.128,8.047 0.243,1.705 -0.874,1.506 -1.499,4.974 C -1.565,5.349 -2.262,5.537 -3.056,5.397 -3.85,5.26 -4.441,4.842 -4.375,4.47 Z m -3.813,-9.295 c -1.301,-0.355 -2.287,-0.547 -2.685,-0.618 l -4.047,23.084 c -10e-4,0 16.794,2.937 16.794,2.937 0,0 -2.807,-20.187 -3.153,-22.644 -2.21,-1.251 -4.67,-2.147 -6.909,-2.759" /></g><g
                       transform="translate(139.733,332.073)"
                       id="g278"><path
                         id="path280"
                         style="fill:#5c77b6;fill-opacity:1;fill-rule:nonzero;stroke:none"
                         d="m 0,0 -0.142,0.797 c -0.036,0.204 -0.232,0.34 -0.436,0.304 -0.204,-0.034 -0.34,-0.23 -0.305,-0.435 l 0.14,-0.797" /></g><g
                       transform="translate(140.094,327.811)"
                       id="g282"><path
                         id="path284"
                         style="fill:#5c77b6;fill-opacity:1;fill-rule:nonzero;stroke:none"
                         d="m 0,0 c -0.287,-0.05 -0.479,-0.325 -0.429,-0.612 l 0.198,-1.127 1.053,0.167 -0.208,1.144 C 0.564,-0.142 0.289,0.05 0,0" /></g><g
                       transform="translate(117.889,345.669)"
                       id="g286"><path
                         id="path288"
                         style="fill:#5c77b6;fill-opacity:1;fill-rule:nonzero;stroke:none"
                         d="m 0,0 c -0.288,-0.05 -0.482,-0.325 -0.431,-0.613 l 0.196,-1.125 1.054,0.164 -0.206,1.145 C 0.562,-0.141 0.288,0.052 0,0" /></g><g
                       transform="translate(116.552,352.131)"
                       id="g290"><path
                         id="path292"
                         style="fill:#5c77b6;fill-opacity:1;fill-rule:nonzero;stroke:none"
                         d="M 0,0 0.073,-0.418 0.554,-0.332 0.481,0.087 1.617,0.285 1.68,-0.073 1.442,-0.114 1.861,-2.506 -0.518,-2.923 -0.939,-0.575 -1.242,-0.632 -1.313,-0.227 Z M 3.144,1.602 3.243,1.033 3.782,1.128 3.682,1.697 4.713,1.876 4.787,1.459 4.518,1.411 5.11,-1.969 2.852,-2.364 2.263,1 2.009,0.957 1.936,1.374 Z M 6.68,1.11 6.753,0.69 7.233,0.777 7.16,1.197 8.298,1.395 8.36,1.038 8.12,0.995 8.541,-1.397 6.162,-1.813 5.741,0.534 5.437,0.478 5.366,0.883 Z m 2.493,-3.399 -0.335,-0.722 -9.166,-1.605 -0.615,0.601 -0.099,0.568 1.765,0.31 0.093,-0.54 0.988,0.175 -0.091,0.522 1.614,0.284 0.093,-0.524 1.151,0.201 -0.092,0.524 1.794,0.314 0.092,-0.523 1.002,0.176 -0.095,0.539 1.794,0.314 z M 6.862,-10.055 6.237,-6.589 C 6.171,-6.217 5.475,-6.027 4.681,-6.164 3.885,-6.304 3.295,-6.72 3.361,-7.094 l 0.53,-3.36 -4.208,-0.737 0.146,6.088 9.052,1.587 2.129,-5.813 z m 5.476,-0.272 0.073,-0.418 -5.303,-0.93 -0.203,1.156 4.326,0.758 z m 0.416,-2.273 -13.597,-2.382 -0.235,1.335 13.597,2.384 z m -13.966,-0.042 0.847,0.909 4.326,0.758 0.203,-1.157 -5.304,-0.929 z m 16.759,-2.486 -3.682,21.006 -18.46,-3.235 3.684,-21.02 -10e-4,0.012 18.459,3.237" /></g><g
                       transform="translate(124.327,346.715)"
                       id="g294"><path
                         id="path296"
                         style="fill:#5c77b6;fill-opacity:1;fill-rule:nonzero;stroke:none"
                         d="m 0,0 c -0.288,-0.05 -0.48,-0.325 -0.43,-0.613 l 0.197,-1.126 1.054,0.163 -0.208,1.145 C 0.563,-0.143 0.288,0.05 0,0" /></g><g
                       transform="translate(117.526,349.931)"
                       id="g298"><path
                         id="path300"
                         style="fill:#5c77b6;fill-opacity:1;fill-rule:nonzero;stroke:none"
                         d="m 0,0 -0.144,0.797 c -0.035,0.204 -0.23,0.34 -0.434,0.304 -0.205,-0.036 -0.341,-0.23 -0.306,-0.434 l 0.14,-0.796" /></g><g
                       transform="translate(120.84,350.635)"
                       id="g302"><path
                         id="path304"
                         style="fill:#5c77b6;fill-opacity:1;fill-rule:nonzero;stroke:none"
                         d="M 0,0 -0.216,1.215 C -0.253,1.419 -0.447,1.557 -0.652,1.52 -0.856,1.483 -0.993,1.29 -0.957,1.085 l 0.213,-1.215" /></g><g
                       transform="translate(124.207,351.041)"
                       id="g306"><path
                         id="path308"
                         style="fill:#5c77b6;fill-opacity:1;fill-rule:nonzero;stroke:none"
                         d="M 0,0 -0.144,0.794 C -0.18,1.001 -0.375,1.136 -0.579,1.101 -0.783,1.065 -0.919,0.871 -0.884,0.666 l 0.14,-0.797" /></g><g
                       transform="translate(132.099,337.003)"
                       id="g310"><path
                         id="path312"
                         style="fill:#ced6e4;fill-opacity:1;fill-rule:nonzero;stroke:none"
                         d="m 0,0 -18.459,-3.236 0.001,-0.012 18.46,3.236" /></g><g
                       transform="translate(132.099,337.003)"
                       id="g314"><path
                         id="path316"
                         style="fill:#5c77b6;fill-opacity:1;fill-rule:nonzero;stroke:none"
                         d="m 0,0 -18.459,-3.236 0.001,-0.012 18.46,3.236" /></g><g
                       transform="translate(139.154,333.174)"
                       id="g318"><path
                         id="path320"
                         style="fill:#ced6e4;fill-opacity:1;fill-rule:nonzero;stroke:none"
                         d="m 0,0 c 0.205,0.035 0.4,-0.101 0.436,-0.304 l 0.142,-0.797 -0.743,-0.131 -0.14,0.797 C -0.34,-0.23 -0.203,-0.035 0,0 Z M -0.913,-1.824 1.464,-1.408 1.045,0.983 1.285,1.025 1.222,1.385 0.085,1.187 0.159,0.769 -0.323,0.682 -0.396,1.1 -1.709,0.869 l 0.072,-0.401 0.302,0.055 0.422,-2.347" /></g><g
                       transform="translate(145.836,334.284)"
                       id="g322"><path
                         id="path324"
                         style="fill:#ced6e4;fill-opacity:1;fill-rule:nonzero;stroke:none"
                         d="m 0,0 c 0.204,0.034 0.399,-0.102 0.434,-0.305 l 0.143,-0.797 -0.744,-0.131 -0.139,0.797 C -0.342,-0.23 -0.205,-0.037 0,0 Z M -1.337,0.523 -0.914,-1.826 1.464,-1.409 1.043,0.983 1.283,1.026 1.221,1.385 0.083,1.185 0.157,0.767 -0.323,0.679 -0.396,1.1 -1.71,0.872 -1.639,0.468 -1.337,0.523" /></g><g
                       transform="translate(142.396,334.298)"
                       id="g326"><path
                         id="path328"
                         style="fill:#ced6e4;fill-opacity:1;fill-rule:nonzero;stroke:none"
                         d="M 0,0 C 0.204,0.034 0.398,-0.101 0.434,-0.306 L 0.651,-1.52 -0.092,-1.651 -0.306,-0.435 C -0.341,-0.23 -0.206,-0.037 0,0 Z m -1.374,0.975 0.59,-3.363 2.259,0.395 L 0.882,1.386 1.15,1.434 1.076,1.853 0.045,1.673 0.144,1.103 -0.393,1.011 -0.493,1.578 -1.702,1.35 -1.628,0.932 -1.374,0.975" /></g><g
                       transform="translate(146.125,331.746)"
                       id="g330"><path
                         id="path332"
                         style="fill:#ced6e4;fill-opacity:1;fill-rule:nonzero;stroke:none"
                         d="m 0,0 -1.002,-0.176 -0.091,0.524 -1.795,-0.315 0.092,-0.523 -1.152,-0.203 -0.091,0.523 -1.614,-0.283 0.091,-0.524 -0.987,-0.171 -0.095,0.538 -1.763,-0.308 0.099,-0.57 0.614,-0.601 9.166,1.606 0.136,0.273 0.123,0.904 -0.03,0.158 -1.796,-0.314" /></g><g
                       transform="translate(139.863,326.072)"
                       id="g334"><path
                         id="path336"
                         style="fill:#ced6e4;fill-opacity:1;fill-rule:nonzero;stroke:none"
                         d="M 0,0 -0.198,1.128 C -0.248,1.414 -0.055,1.689 0.231,1.739 0.52,1.789 0.795,1.597 0.845,1.311 L 1.053,0.167 Z M 6.671,2.786 C 6.959,2.836 7.234,2.643 7.285,2.355 L 7.371,1.877 7.27,1.176 6.439,1.047 6.241,2.173 c -0.05,0.288 0.143,0.563 0.43,0.613 z M 3.576,2.035 C 4.37,2.175 5.067,1.987 5.133,1.612 l 0.625,-3.468 1.118,0.197 0.88,6.34 -9.031,-1.583 -0.144,-6.087 4.206,0.737 -0.53,3.36 C 2.191,1.48 2.782,1.898 3.576,2.035" /></g><g
                       transform="translate(146.674,323.928)"
                       id="g338"><path
                         id="path340"
                         style="fill:#ced6e4;fill-opacity:1;fill-rule:nonzero;stroke:none"
                         d="m 0,0 -1.006,-0.169 0.204,-1.155 0.629,0.109" /></g><g
                       transform="translate(142.72,323.298)"
                       id="g342"><path
                         id="path344"
                         style="fill:#ced6e4;fill-opacity:1;fill-rule:nonzero;stroke:none"
                         d="M 0,0 -4.326,-0.76 -5.174,-1.669 -5.1,-2.087 0.204,-1.156" /></g><g
                       transform="translate(137.92,319.295)"
                       id="g346"><path
                         id="path348"
                         style="fill:#ced6e4;fill-opacity:1;fill-rule:nonzero;stroke:none"
                         d="M 0,0 8.31,1.449 8.507,2.87 -0.234,1.338" /></g><g
                       transform="translate(116.948,351.032)"
                       id="g350"><path
                         id="path352"
                         style="fill:#ced6e4;fill-opacity:1;fill-rule:nonzero;stroke:none"
                         d="m 0,0 c 0.204,0.036 0.399,-0.1 0.434,-0.304 l 0.144,-0.797 -0.744,-0.129 -0.14,0.797 C -0.341,-0.23 -0.206,-0.036 0,0 Z M -1.335,0.525 -0.914,-1.824 1.465,-1.406 1.045,0.986 1.283,1.027 1.221,1.385 0.085,1.187 0.158,0.768 -0.324,0.682 -0.396,1.1 -1.709,0.872 l 0.07,-0.404 0.304,0.057" /></g><g
                       transform="translate(120.188,352.155)"
                       id="g354"><path
                         id="path356"
                         style="fill:#ced6e4;fill-opacity:1;fill-rule:nonzero;stroke:none"
                         d="M 0,0 C 0.204,0.037 0.399,-0.1 0.435,-0.305 L 0.652,-1.52 -0.092,-1.649 -0.305,-0.435 C -0.342,-0.23 -0.204,-0.037 0,0 Z m -1.374,0.977 0.59,-3.365 2.258,0.395 L 0.881,1.388 1.15,1.435 1.077,1.853 0.045,1.673 0.145,1.105 -0.393,1.01 -0.492,1.578 -1.7,1.351 -1.628,0.933 -1.374,0.977" /></g><g
                       transform="translate(124.094,344.976)"
                       id="g358"><path
                         id="path360"
                         style="fill:#ced6e4;fill-opacity:1;fill-rule:nonzero;stroke:none"
                         d="m 0,0 -0.197,1.126 c -0.05,0.288 0.142,0.563 0.43,0.613 0.288,0.05 0.563,-0.142 0.613,-0.431 L 1.054,0.164 Z m -6.44,-1.045 -0.196,1.124 c -0.051,0.289 0.143,0.564 0.431,0.614 0.288,0.051 0.562,-0.142 0.613,-0.43 l 0.206,-1.144 z m -1.273,3.098 -0.145,-6.089 4.207,0.737 -0.53,3.36 c -0.066,0.374 0.524,0.79 1.32,0.93 0.794,0.138 1.491,-0.053 1.556,-0.425 L -0.68,-2.899 3.468,-2.174 1.339,3.64 -7.713,2.053" /></g><g
                       transform="translate(123.628,352.142)"
                       id="g362"><path
                         id="path364"
                         style="fill:#ced6e4;fill-opacity:1;fill-rule:nonzero;stroke:none"
                         d="m 0,0 c 0.204,0.035 0.399,-0.1 0.435,-0.307 l 0.144,-0.794 -0.744,-0.131 -0.14,0.797 C -0.34,-0.23 -0.204,-0.036 0,0 Z M -1.335,0.523 -0.914,-1.824 1.465,-1.408 1.044,0.984 1.284,1.027 1.222,1.385 0.084,1.187 0.158,0.767 -0.322,0.679 -0.396,1.099 -1.71,0.872 -1.639,0.468 -1.335,0.523" /></g><g
                       transform="translate(123.919,349.603)"
                       id="g366"><path
                         id="path368"
                         style="fill:#ced6e4;fill-opacity:1;fill-rule:nonzero;stroke:none"
                         d="m 0,0 -1.002,-0.176 -0.092,0.523 -1.795,-0.314 0.093,-0.523 -1.152,-0.201 -0.092,0.523 -1.614,-0.284 0.091,-0.522 -0.988,-0.174 -0.093,0.539 -1.765,-0.31 0.099,-0.568 0.615,-0.601 9.166,1.605 0.335,0.722 -0.107,0.615 -1.794,-0.315" /></g><g
                       transform="translate(115.709,337.15)"
                       id="g370"><path
                         id="path372"
                         style="fill:#ced6e4;fill-opacity:1;fill-rule:nonzero;stroke:none"
                         d="M 0,0 13.596,2.381 13.361,3.719 -0.235,1.335" /></g><g
                       transform="translate(120.512,341.157)"
                       id="g374"><path
                         id="path376"
                         style="fill:#ced6e4;fill-opacity:1;fill-rule:nonzero;stroke:none"
                         d="m 0,0 -4.325,-0.759 -0.847,-0.909 0.071,-0.419 5.305,0.929" /></g><g
                       transform="translate(123.66,340.456)"
                       id="g378"><path
                         id="path380"
                         style="fill:#ced6e4;fill-opacity:1;fill-rule:nonzero;stroke:none"
                         d="M 0,0 5.303,0.931 5.229,1.348 4.123,1.914 -0.203,1.156" /></g><g
                       transform="translate(137.914,347.689)"
                       id="g382"><path
                         id="path384"
                         style="fill:#3d5191;fill-opacity:1;fill-rule:nonzero;stroke:none"
                         d="m 0,0 0.541,-0.276 c 0,0 0.604,0.398 1.385,1.126 H 1.928 C 2.907,1.762 4.167,3.192 4.877,5.006 L 4.538,5.857 4.493,5.85 C 4.38,5.38 3.663,2.835 0.946,0.678 L 1.138,0.711 0.946,0.678 C 0.654,0.445 0.34,0.219 0,0" /></g><g
                       transform="translate(139.657,346.187)"
                       id="g386"><path
                         id="path388"
                         style="fill:#3d5191;fill-opacity:1;fill-rule:nonzero;stroke:none"
                         d="m 0,0 c -1.549,0.632 -2.05,-0.73 -2.05,-0.73 -0.795,-1.33 0.367,-2.566 0.367,-2.566 -1.799,-0.521 -2.024,0.057 -2.024,0.057 0.041,0.704 -0.219,1.481 -0.219,1.481 -0.769,1.346 -2.167,0.648 -2.167,0.648 l 1.307,-3.469 c 0.18,-0.091 1.006,-0.113 1.006,-0.113 -0.139,-0.146 -0.135,-0.639 -0.135,-0.639 l 0.646,-0.173 c -0.055,0.318 0.201,0.732 0.201,0.732 0.228,-0.124 0.546,-0.068 0.546,-0.068 0.01,-0.285 0.245,-0.696 0.245,-0.696 l 0.612,0.025 C -1.898,-5.347 -1.83,-4.8 -1.83,-4.8 c 0.214,-0.046 0.95,0.207 0.95,0.207 -0.037,-0.253 0.206,-0.704 0.206,-0.704 l 0.558,0.098 C -0.63,-1.795 0.911,-1.443 0.911,-1.443 0.703,-0.494 0,0 0,0" /></g><g
                       transform="translate(144.521,349.628)"
                       id="g390"><path
                         id="path392"
                         style="fill:#3d5191;fill-opacity:1;fill-rule:nonzero;stroke:none"
                         d="m 0,0 0.438,-0.193 0.23,-0.1 C 0.644,-0.255 0.623,-0.212 0.605,-0.164 H 0.604 C 0.344,0.482 0.525,1.695 0.525,1.695 0.958,2.511 0.784,3.261 0.784,3.261 l -0.557,0.6 C 0.433,3.158 0.026,1.731 0.026,1.731 -0.246,0.943 0,0 0,0" /></g><g
                       transform="translate(137.064,348.32)"
                       id="g394"><path
                         id="path396"
                         style="fill:#3d5191;fill-opacity:1;fill-rule:nonzero;stroke:none"
                         d="m 0,0 0.307,-0.214 0.208,-0.147 c 0,0 0.16,0.081 0.422,0.258 H 0.942 C 1.805,0.478 3.774,2.07 4.863,5.133 L 4.691,5.104 4.862,5.134 c 0.094,0.263 0.18,0.535 0.259,0.82 L 4.629,6.65 c 0,0 -0.055,-0.658 -0.43,-1.632 H 4.198 C 3.67,3.65 2.513,1.665 0,0" /></g><g
                       transform="translate(138.295,352.319)"
                       id="g398"><path
                         id="path400"
                         style="fill:#3d5191;fill-opacity:1;fill-rule:nonzero;stroke:none"
                         d="m 0,0 c -0.938,-1.686 -2.982,-2.456 -2.982,-2.456 l 0.443,-0.415 c 2.365,1.279 3.282,3.082 3.282,3.082" /></g><g
                       transform="translate(145.804,352.155)"
                       id="g402"><path
                         id="path404"
                         style="fill:#3d5191;fill-opacity:1;fill-rule:nonzero;stroke:none"
                         d="m 0,0 c 0.062,-0.359 -0.203,-1.187 -0.203,-1.187 -0.22,-0.531 -0.076,-1.046 0.098,-1.403 l 0.545,0.095 -0.544,-0.098 c 0.146,-0.301 0.316,-0.494 0.316,-0.494 0.336,-0.27 0.525,-0.648 0.525,-0.648 0.782,-2.122 -1.787,-1.998 -1.787,-1.998 -0.647,0.872 -2.613,1.308 -2.613,1.308 -0.556,0.257 -0.722,0.693 -0.742,1.081 -0.022,0.423 0.126,0.785 0.126,0.785 -0.12,-0.248 -0.408,-0.571 -0.749,-0.894 l 0.509,0.088 -0.509,-0.09 c -0.764,-0.731 -1.792,-1.481 -1.792,-1.481 1.039,-0.065 1.608,-1.445 1.608,-1.445 0.599,-1.538 0.965,-1.514 0.965,-1.514 0.625,-0.753 2.207,-0.395 2.207,-0.395 1.593,-1.817 0.745,-2.378 0.745,-2.378 -2.724,1.005 -2.184,-1.615 -2.184,-1.615 l 3.59,0.629 0.067,0.793 c 0.188,-0.132 0.753,-0.072 0.753,-0.072 l -0.144,0.59 c -0.194,-0.074 -0.54,0.029 -0.54,0.029 l -0.052,0.527 c 0.141,-0.101 0.594,-0.104 0.594,-0.104 l -0.072,0.645 c -0.12,-0.021 -0.62,0.016 -0.62,0.016 -0.009,0.286 -0.146,0.837 -0.146,0.837 0.132,-0.06 0.525,0.051 0.525,0.051 L 0.393,-7.863 C 0.2,-7.938 -0.22,-7.89 -0.22,-7.89 c -0.855,0.426 -0.798,1.504 -0.798,1.504 1.628,-0.37 2.53,1.513 2.53,1.513 0.242,0.494 -0.388,1.741 -0.388,1.741 -0.285,0.255 -0.453,0.481 -0.551,0.661 -0.152,0.28 -0.136,0.452 -0.136,0.452 -0.265,0.569 0.118,0.965 0.118,0.965" /></g><g
                       transform="translate(133.194,347.374)"
                       id="g406"><path
                         id="path408"
                         style="fill:#3d5191;fill-opacity:1;fill-rule:nonzero;stroke:none"
                         d="m 0,0 0.051,-0.011 -0.222,-0.613 0.615,-0.222 0.188,0.568 1.059,-0.185 -0.147,-0.56 0.713,-0.079 0.325,0.713 C 2.716,-0.447 3.662,-0.446 3.662,-0.446 3.53,-0.633 3.501,-1.172 3.501,-1.172 L 4.14,-1.06 c 0.082,0.465 0.306,0.834 0.306,0.834 C 4.157,-0.129 3.687,0.213 3.253,0.571 L 3.25,0.57 C 2.704,1.016 2.216,1.479 2.216,1.479 1.778,1.156 0.359,1.277 0.359,1.277 0.677,3.922 -1.402,3.353 -1.402,3.353 l 0.521,-3.197" /></g><g
                       transform="translate(138.196,356.115)"
                       id="g410"><path
                         id="path412"
                         style="fill:#3d5191;fill-opacity:1;fill-rule:nonzero;stroke:none"
                         d="M 0,0 C -0.031,-0.044 -0.136,-0.228 0.058,-0.516 L -0.46,-0.605 Z m 0.345,-1.451 c 0,0 1.617,-0.785 -0.234,-1.481 0,0 0.865,-0.71 1.301,0.558 0,0 0.653,2.128 0.398,3.111 L -0.103,0.401 c 0,0 -1.322,-1.136 -1.579,-2.249 l 1.085,-0.55 c 0,0 -0.097,1.01 0.942,0.947" /></g><g
                       transform="translate(140.235,357.427)"
                       id="g414"><path
                         id="path416"
                         style="fill:#3d5191;fill-opacity:1;fill-rule:nonzero;stroke:none"
                         d="M 0,0 -0.256,0.982 -0.615,0.221 -1.292,0.8 -1.706,0.111 l -0.568,0.435 0.2,-0.911" /></g><g
                       transform="translate(133.206,352.043)"
                       id="g418"><path
                         id="path420"
                         style="fill:#3d5191;fill-opacity:1;fill-rule:nonzero;stroke:none"
                         d="m 0,0 c -0.069,-0.041 -0.132,-0.092 -0.19,-0.147 l -0.006,-0.001 c -0.195,-0.18 -0.325,-0.395 -0.325,-0.395 l 0.508,-0.323 c 0.057,0.381 0.434,0.57 0.434,0.57 0.129,-0.266 1.158,-0.743 1.158,-0.743 -0.498,-0.21 -0.42,-0.649 -0.42,-0.649 l 0.574,-0.227 c 0.263,0.373 0.568,0.51 0.568,0.51 0.743,0.211 1.819,1.346 1.819,1.346 C 3.508,-0.02 2.953,0.124 2.465,0.315 L 1.717,0.185 2.465,0.316 C 1.025,0.884 0.163,1.878 0.163,1.878 0.687,4.517 -1.352,3.955 -1.352,3.955 L -0.881,1.037 C -0.785,0.725 0,0 0,0" /></g><g
                       transform="translate(136.638,353.096)"
                       id="g422"><path
                         id="path424"
                         style="fill:#3d5191;fill-opacity:1;fill-rule:nonzero;stroke:none"
                         d="m 0,0 c 0,0 0.499,-0.735 1.285,-0.062 0,0 0.334,0.675 0.765,0.792 0,0 -0.114,0.184 -0.882,-0.36 0,0 -0.231,-0.329 -0.739,-0.008 0,0 -0.651,0.669 -1.325,0.057 0,0 0.486,0.044 0.896,-0.419" /></g><g
                       transform="translate(139.983,353.115)"
                       id="g426"><path
                         id="path428"
                         style="fill:#3d5191;fill-opacity:1;fill-rule:nonzero;stroke:none"
                         d="m 0,0 h -0.002 c -0.622,-1.22 -1.761,-2.647 -3.836,-4.01 l 0.569,-0.433 c 0,0 2.841,1.752 4.023,4.575 L 0.519,0.09 0.754,0.132 C 1.038,0.811 1.226,1.554 1.253,2.35 L 0.709,3.116 C 0.709,3.116 0.912,1.787 0,0" /></g><g
                       transform="translate(142.407,353.54)"
                       id="g430"><path
                         id="path432"
                         style="fill:#3d5191;fill-opacity:1;fill-rule:nonzero;stroke:none"
                         d="M 0,0 0.045,0.007 0.017,0.077 C 0.017,0.077 0.012,0.051 0,0" /></g><g
                       transform="translate(145.383,354.061)"
                       id="g434"><path
                         id="path436"
                         style="fill:#3d5191;fill-opacity:1;fill-rule:nonzero;stroke:none"
                         d="M 0,0 H 0.002 C 0.312,-0.286 0.608,-0.394 0.608,-0.394 0.51,-0.262 0.49,-0.056 0.489,0.086 L 0.344,0.061 0.489,0.087 c 0,0.093 0.007,0.159 0.007,0.159 0.591,1.786 -0.399,2.27 -0.399,2.27 L -0.614,2.352 C -0.872,1.118 -0.425,0.394 0,0" /></g><g
                       transform="translate(143.446,353.721)"
                       id="g438"><path
                         id="path440"
                         style="fill:#3d5191;fill-opacity:1;fill-rule:nonzero;stroke:none"
                         d="m 0,0 c 0.012,-0.015 0.023,-0.028 0.035,-0.042 0,0 0.43,-0.336 0.093,-1.464 0,0 -0.457,-1.148 -0.305,-1.778 l 0.657,-0.46 c 0,0 -0.158,1.369 0.164,1.876 0,0 0.379,1.108 0.098,1.999 H 0.741 c -0.02,0.063 -0.043,0.125 -0.068,0.185 0,0 -1.175,1.069 -1.227,2.54 0,0 0.297,1.818 1.855,0.2 L 1.9,3.162 c 0,0 -0.491,1.393 -1.814,1.203 0,0 -1.643,-0.248 -1.276,-1.869 0,0 0.49,-1.663 1.19,-2.496" /></g><g
                       transform="translate(118.694,322.628)"
                       id="g442"><path
                         id="path444"
                         style="fill:#3d5191;fill-opacity:1;fill-rule:nonzero;stroke:none"
                         d="M 0,0 0.188,0.567 1.248,0.382 1.1,-0.177 1.813,-0.258 2.139,0.457 C 2.272,0.399 3.218,0.399 3.218,0.399 3.086,0.213 3.058,-0.328 3.058,-0.328 l 0.637,0.111 C 3.778,0.251 4.002,0.618 4.002,0.618 3.712,0.714 3.243,1.057 2.809,1.414 H 2.808 C 2.261,1.861 1.771,2.326 1.771,2.326 1.335,2.002 -0.085,2.122 -0.085,2.122 0.232,4.766 -1.846,4.197 -1.846,4.197 l 0.52,-3.198 0.882,-0.156 0.051,-0.008 -0.221,-0.613" /></g><g
                       transform="translate(131.433,325.784)"
                       id="g446"><path
                         id="path448"
                         style="fill:#3d5191;fill-opacity:1;fill-rule:nonzero;stroke:none"
                         d="M 0,0 H -0.001 C -0.153,0.279 -0.138,0.449 -0.138,0.449 -0.402,1.023 -0.02,1.417 -0.02,1.417 L -0.573,2.471 C -0.512,2.112 -0.777,1.285 -0.777,1.285 -0.997,0.754 -0.854,0.235 -0.68,-0.119 l 0.57,0.098 -0.569,-0.102 c 0.147,-0.301 0.317,-0.493 0.317,-0.493 0.336,-0.27 0.525,-0.648 0.525,-0.648 0.784,-2.122 -1.787,-1.998 -1.787,-1.998 -0.646,0.873 -2.614,1.309 -2.614,1.309 -0.555,0.256 -0.72,0.694 -0.74,1.079 l -0.623,-0.11 c -0.765,-0.731 -1.794,-1.482 -1.794,-1.482 1.039,-0.065 1.609,-1.445 1.609,-1.445 0.6,-1.537 0.965,-1.516 0.965,-1.516 0.626,-0.753 2.207,-0.393 2.207,-0.393 1.592,-1.816 0.745,-2.376 0.745,-2.376 -2.724,1.001 -2.183,-1.617 -2.183,-1.617 l 3.59,0.631 0.065,0.791 c 0.188,-0.131 0.754,-0.073 0.754,-0.073 l -0.145,0.591 c -0.193,-0.075 -0.539,0.029 -0.539,0.029 l -0.052,0.525 C -0.238,-7.417 0.214,-7.42 0.214,-7.42 l -0.072,0.646 c -0.119,-0.022 -0.618,0.015 -0.618,0.015 -0.009,0.286 -0.147,0.836 -0.147,0.836 0.133,-0.059 0.524,0.051 0.524,0.051 l -0.083,0.48 c -0.192,-0.077 -0.612,-0.027 -0.612,-0.027 -0.855,0.427 -0.798,1.504 -0.798,1.504 1.627,-0.372 2.53,1.512 2.53,1.512 C 1.18,-1.909 0.55,-0.663 0.55,-0.663 0.265,-0.407 0.098,-0.181 0,0" /></g><g
                       transform="translate(124.713,322.284)"
                       id="g450"><path
                         id="path452"
                         style="fill:#3d5191;fill-opacity:1;fill-rule:nonzero;stroke:none"
                         d="m 0,0 c -1.55,0.634 -2.051,-0.729 -2.051,-0.729 -0.795,-1.33 0.368,-2.564 0.368,-2.564 -1.8,-0.521 -2.024,0.055 -2.024,0.055 0.041,0.706 -0.219,1.483 -0.219,1.483 -0.771,1.344 -2.168,0.647 -2.168,0.647 l 1.307,-3.47 c 0.179,-0.092 1.006,-0.111 1.006,-0.111 -0.139,-0.148 -0.135,-0.64 -0.135,-0.64 l 0.648,-0.174 c -0.057,0.318 0.199,0.732 0.199,0.732 0.228,-0.124 0.547,-0.067 0.547,-0.067 0.008,-0.287 0.244,-0.697 0.244,-0.697 l 0.613,0.024 c -0.235,0.165 -0.165,0.712 -0.165,0.712 0.213,-0.045 0.95,0.208 0.95,0.208 -0.037,-0.254 0.205,-0.705 0.205,-0.705 l 0.559,0.099 C -0.631,-1.795 0.91,-1.442 0.91,-1.442 0.702,-0.493 0,0 0,0" /></g><g
                       transform="translate(122.119,324.42)"
                       id="g454"><path
                         id="path456"
                         style="fill:#3d5191;fill-opacity:1;fill-rule:nonzero;stroke:none"
                         d="m 0,0 0.308,-0.217 0.208,-0.144 c 0,0 0.159,0.079 0.42,0.255 l 0.005,0.003 c 0.864,0.579 2.833,2.173 3.921,5.236 0.094,0.262 0.18,0.535 0.26,0.821 L 4.63,6.648 c 0,0 -0.056,-0.657 -0.431,-1.631 H 4.198 C 3.671,3.65 2.514,1.665 0,0" /></g><g
                       transform="translate(123.35,328.418)"
                       id="g458"><path
                         id="path460"
                         style="fill:#3d5191;fill-opacity:1;fill-rule:nonzero;stroke:none"
                         d="m 0,0 c -0.937,-1.685 -2.981,-2.457 -2.981,-2.457 l 0.444,-0.412 c 2.364,1.277 3.281,3.08 3.281,3.08" /></g><g
                       transform="translate(123.915,324.465)"
                       id="g462"><path
                         id="path464"
                         style="fill:#3d5191;fill-opacity:1;fill-rule:nonzero;stroke:none"
                         d="m 0,0 c -0.291,-0.23 -0.606,-0.456 -0.945,-0.677 l 0.541,-0.275 c 0,0 0.602,0.397 1.383,1.124 L 0.984,0.173 C 1.962,1.086 3.221,2.515 3.932,4.329 L 3.592,5.181 3.547,5.173 C 3.434,4.703 2.717,2.157 0,0" /></g><g
                       transform="translate(126.581,325.697)"
                       id="g466"><path
                         id="path468"
                         style="fill:#3d5191;fill-opacity:1;fill-rule:nonzero;stroke:none"
                         d="m 0,0 c -0.121,-0.251 -0.409,-0.572 -0.749,-0.895 l 0.623,0.109 C -0.151,-0.365 0,0 0,0" /></g><g
                       transform="translate(130.36,328.989)"
                       id="g470"><path
                         id="path472"
                         style="fill:#3d5191;fill-opacity:1;fill-rule:nonzero;stroke:none"
                         d="M 0,0 -0.557,0.601 C -0.351,-0.103 -0.759,-1.531 -0.759,-1.531 -1.031,-2.317 -0.785,-3.26 -0.785,-3.26 l 0.439,-0.194 0.228,-0.101 c -0.022,0.038 -0.043,0.083 -0.061,0.131 H -0.18 c -0.26,0.647 -0.08,1.858 -0.08,1.858 C 0.172,-0.752 0,0 0,0" /></g><g
                       transform="translate(123.252,332.215)"
                       id="g474"><path
                         id="path476"
                         style="fill:#3d5191;fill-opacity:1;fill-rule:nonzero;stroke:none"
                         d="M 0,0 C -0.031,-0.044 -0.136,-0.227 0.058,-0.516 L -0.46,-0.607 Z m 0.345,-1.451 c 0,0 1.618,-0.786 -0.233,-1.48 0,0 0.864,-0.714 1.3,0.555 0,0 0.654,2.13 0.399,3.113 L -0.104,0.4 c 0,0 -1.321,-1.135 -1.578,-2.249 l 1.083,-0.549 c 0,0 -0.095,1.01 0.944,0.947" /></g><g
                       transform="translate(118.26,328.142)"
                       id="g478"><path
                         id="path480"
                         style="fill:#3d5191;fill-opacity:1;fill-rule:nonzero;stroke:none"
                         d="M 0,0 C -0.067,-0.04 -0.131,-0.09 -0.188,-0.147 L -0.195,-0.148 C -0.39,-0.326 -0.52,-0.545 -0.52,-0.545 l 0.508,-0.321 c 0.056,0.381 0.435,0.57 0.435,0.57 0.128,-0.264 1.156,-0.743 1.156,-0.743 -0.497,-0.209 -0.42,-0.649 -0.42,-0.649 l 0.576,-0.229 c 0.262,0.376 0.567,0.512 0.567,0.512 0.744,0.213 1.818,1.347 1.818,1.347 -0.61,0.04 -1.165,0.181 -1.654,0.372 L 1.815,0.202 2.466,0.317 C 1.027,0.885 0.165,1.879 0.165,1.879 0.688,4.517 -1.35,3.955 -1.35,3.955 L -0.88,1.039 C -0.784,0.726 0,0 0,0" /></g><g
                       transform="translate(121.693,329.196)"
                       id="g482"><path
                         id="path484"
                         style="fill:#3d5191;fill-opacity:1;fill-rule:nonzero;stroke:none"
                         d="m 0,0 c 0,0 0.499,-0.736 1.285,-0.063 0,0 0.334,0.675 0.765,0.791 0,0 -0.114,0.185 -0.882,-0.359 0,0 -0.23,-0.329 -0.739,-0.007 0,0 -0.651,0.666 -1.324,0.056 0,0 0.486,0.043 0.895,-0.418" /></g><g
                       transform="translate(130.439,330.16)"
                       id="g486"><path
                         id="path488"
                         style="fill:#3d5191;fill-opacity:1;fill-rule:nonzero;stroke:none"
                         d="M 0,0 H 0.001 C 0.311,-0.284 0.608,-0.393 0.608,-0.393 0.509,-0.261 0.489,-0.054 0.489,0.086 L 0.297,0.053 0.489,0.087 C 0.488,0.179 0.496,0.244 0.496,0.244 1.087,2.034 0.097,2.517 0.097,2.517 L -0.613,2.351 C -0.873,1.119 -0.425,0.395 0,0" /></g><g
                       transform="translate(127.462,329.64)"
                       id="g490"><path
                         id="path492"
                         style="fill:#3d5191;fill-opacity:1;fill-rule:nonzero;stroke:none"
                         d="M 0,0 0.045,0.005 0.017,0.077 C 0.017,0.077 0.012,0.05 0,0" /></g><g
                       transform="translate(125.038,329.212)"
                       id="g494"><path
                         id="path496"
                         style="fill:#3d5191;fill-opacity:1;fill-rule:nonzero;stroke:none"
                         d="m 0,0 h -0.002 c -0.621,-1.218 -1.761,-2.646 -3.835,-4.01 l 0.569,-0.432 c 0,0 2.841,1.751 4.022,4.574 L 0.449,0.079 0.753,0.134 C 1.038,0.812 1.226,1.555 1.255,2.352 L 0.709,3.119 C 0.709,3.119 0.913,1.788 0,0" /></g><g
                       transform="translate(128.502,329.82)"
                       id="g498"><path
                         id="path500"
                         style="fill:#3d5191;fill-opacity:1;fill-rule:nonzero;stroke:none"
                         d="m 0,0 c 0.011,-0.013 0.023,-0.028 0.035,-0.042 0,0 0.429,-0.336 0.092,-1.463 0,0 -0.456,-1.149 -0.305,-1.778 l 0.657,-0.462 c 0,0 -0.159,1.369 0.164,1.879 0,0 0.379,1.105 0.097,1.997 -0.02,0.063 -0.043,0.125 -0.069,0.186 0,0 -1.174,1.068 -1.226,2.539 0,0 0.297,1.82 1.855,0.202 l 0.597,0.105 c 0,0 -0.489,1.394 -1.812,1.202 0,0 -1.643,-0.247 -1.276,-1.867 0,0 0.491,-1.663 1.191,-2.498" /></g><g
                       transform="translate(125.291,333.526)"
                       id="g502"><path
                         id="path504"
                         style="fill:#3d5191;fill-opacity:1;fill-rule:nonzero;stroke:none"
                         d="m 0,0 -0.254,0.982 -0.361,-0.761 -0.676,0.58 -0.414,-0.69 -0.569,0.435 0.2,-0.911" /></g><g
                       transform="translate(120.48,367.411)"
                       id="g506"><path
                         id="path508"
                         style="fill:#f6c33b;fill-opacity:1;fill-rule:nonzero;stroke:none"
                         d="M 0,0 1.72,-1.865 4.067,-0.9 2.824,-3.112 4.467,-5.046 1.979,-4.549 0.647,-6.708 l -0.294,2.521 -2.466,0.599 2.305,1.059" /></g><g
                       transform="translate(109.326,355.476)"
                       id="g510"><path
                         id="path512"
                         style="fill:#f6c33b;fill-opacity:1;fill-rule:nonzero;stroke:none"
                         d="m 0,0 3.413,-3.702 4.657,1.912 -2.465,-4.389 3.259,-3.838 -4.937,0.989 -2.642,-4.286 -0.586,5.002 -4.893,1.187 4.575,2.103" /></g><g
                       transform="translate(102.93,336.994)"
                       id="g514"><path
                         id="path516"
                         style="fill:#f6c33b;fill-opacity:1;fill-rule:nonzero;stroke:none"
                         d="m 0,0 6.712,-7.281 9.159,3.763 -4.849,-8.633 6.41,-7.546 -9.71,1.943 -5.197,-8.43 -1.151,9.837 -9.623,2.338 8.998,4.134" /></g><g
                       transform="translate(127.103,315.374)"
                       id="g518"><path
                         id="path520"
                         style="fill:#f6c33b;fill-opacity:1;fill-rule:nonzero;stroke:none"
                         d="m 0,0 4.797,-5.203 6.547,2.688 -3.466,-6.169 4.582,-5.395 -6.94,1.388 -3.715,-6.024 -0.824,7.031 -6.878,1.67 6.432,2.955" /></g></g></g></g></g></g></g></g></g></g></svg>