<?xml version="1.0"?>
<svg xmlns="http://www.w3.org/2000/svg" height="512px" viewBox="-13 0 477 477.37287" width="512px" class=""><g><path d="m304.152344 389.839844c-10.882813-22.210938-3.542969-49.050782 17.132812-62.632813 20.671875-13.582031 48.21875-9.660156 64.285156 9.148438 1.960938 2.300781 5.332032 2.785156 7.863282 1.125l21.660156-14.230469c2.039062-1.339844 3.066406-3.78125 2.59375-6.175781l-14.128906-71.675781c-.152344-.761719-.445313-1.484376-.871094-2.132813l-61.992188-94.363281c-5.945312-9.027344-17.675781-12.226563-27.378906-7.46875l-171.359375 84.230468c-5.519531 2.714844-9.605469 7.667969-11.226562 13.601563-1.617188 5.933594-.609375 12.277344 2.765625 17.417969l74.992187 114.15625c.425781.648437.972657 1.207031 1.609375 1.648437l60.171875 41.425781c2.011719 1.386719 4.660157 1.414063 6.699219.074219l25.09375-16.484375c2.53125-1.664062 3.425781-4.949218 2.089844-7.664062zm-30.398438 11.898437-47.480468-32.6875 42.675781-28.035156c2.769531-1.820313 3.539062-5.542969 1.71875-8.3125l-31.160157-47.433594c6.476563-7.648437 6.761719-18.769531.6875-26.734375-6.074218-7.96875-16.875-10.640625-25.960937-6.421875-9.089844 4.21875-14.019531 14.191407-11.855469 23.972657 2.167969 9.78125 10.84375 16.742187 20.863282 16.730468 2.117187 0 4.222656-.316406 6.246093-.945312l27.859375 42.40625-40.875 26.855468-72.945312-111.042968c-1.488282-2.261719-1.933594-5.054688-1.21875-7.667969.710937-2.613281 2.511718-4.792969 4.941406-5.988281l68.164062-33.507813 21.046876 32.035157c1.820312 2.769531 5.539062 3.539062 8.308593 1.722656l31.988281-21.015625c2.742188 2.34375 6.035157 3.953125 9.566407 4.679687 1.445312.300782 2.914062.453125 4.390625.453125 9.257812-.007812 17.46875-5.953125 20.363281-14.75s-.183594-18.457031-7.628906-23.957031c-7.449219-5.503906-17.585938-5.609375-25.144531-.257812-7.558594 5.347656-10.832032 14.945312-8.117188 23.796874l-26.984375 17.726563-16.933594-25.769531 92.339844-45.390625c4.273437-2.09375 9.4375-.683594 12.054687 3.292969l29.457032 44.835937-66.796875 43.882813c-2.769531 1.820312-3.542969 5.539062-1.722657 8.308593l10.144532 15.445313c-6.925782 8.125-6.824219 20.101562.238281 28.105468 7.0625 8.003907 18.933594 9.597657 27.855469 3.738282s12.175781-17.386719 7.636718-27.046875c-4.539062-9.660157-15.492187-14.511719-25.699218-11.382813l-6.851563-10.433594 61.78125-40.585937 25.300781 38.511719 13.121094 66.5625-14.054687 9.234375c-20.519531-20.171875-52.335938-23.296875-76.386719-7.496094s-33.816406 46.238281-23.445312 73.082031zm-52.46875-121.121093c-4.734375-.984376-7.960937-5.386719-7.472656-10.199219s4.53125-8.480469 9.371094-8.492188c.648437 0 1.296875.066407 1.933594.199219 5.0625 1.097656 8.296874 6.070312 7.246093 11.144531s-5.992187 8.351563-11.078125 7.347657zm64.203125-89.15625c4.359375-2.859376 10.210938-1.648438 13.078125 2.707031 2.859375 4.359375 1.648438 10.214843-2.710937 13.078125-4.359375 2.863281-10.210938 1.648437-13.074219-2.707032-2.863281-4.359374-1.652344-10.214843 2.707031-13.078124zm32.558594 80.964843c3.183594-.003906 6.15625 1.59375 7.90625 4.257813 2.378906 3.613281 2 8.382812-.921875 11.578125-2.921875 3.191406-7.640625 3.992187-11.453125 1.941406-3.808594-2.050781-5.742187-6.429687-4.6875-10.625 1.054687-4.199219 4.828125-7.144531 9.15625-7.152344zm0 0" data-original="#000000" class="active-path" data-old_color="#000000" fill="#bf596d"/><path d="m154.886719 164.773438c1.820312 2.769531 5.539062 3.539062 8.308593 1.722656l28.671876-18.835938c2.769531-1.820312 3.539062-5.542968 1.71875-8.308594l-21.667969-32.988281c-5.460938-8.3125-16.628907-10.625-24.9375-5.164062l-8.601563 5.648437c-8.300781 5.46875-10.613281 16.625-5.164062 24.941406zm-9.917969-47.898438 8.601562-5.648438c.972657-.644531 2.117188-.988281 3.285157-.988281.414062 0 .824219.042969 1.230469.125 1.5625.320313 2.929687 1.253907 3.800781 2.585938l18.375 27.972656-18.644531 12.246094-18.375-27.972657c-1.8125-2.773437-1.039063-6.496093 1.730468-8.316406zm0 0" data-original="#000000" class="active-path" data-old_color="#000000" fill="#bf596d"/><path d="m202.421875 140.941406c1.820313 2.769532 5.539063 3.539063 8.308594 1.71875l28.671875-18.835937c2.769531-1.820313 3.542968-5.539063 1.722656-8.308594l-24.5-37.289063c-5.46875-8.300781-16.625-10.609374-24.9375-5.164062l-8.601562 5.648438c-8.3125 5.460937-10.625 16.628906-5.164063 24.941406zm-15.328125-48.398437c.320312-1.558594 1.25-2.929688 2.585938-3.796875l8.601562-5.648438c2.773438-1.820312 6.5-1.050781 8.324219 1.722656l21.199219 32.273438-18.644532 12.246094-21.199218-32.273438c-.882813-1.332031-1.195313-2.960937-.867188-4.523437zm0 0" data-original="#000000" class="active-path" data-old_color="#000000" fill="#bf596d"/><path d="m250.523438 117.964844c1.816406 2.769531 5.539062 3.539062 8.308593 1.722656l28.667969-18.835938c2.769531-1.820312 3.542969-5.542968 1.722656-8.3125l-17.714844-26.960937c-5.460937-8.316406-16.625-10.625-24.9375-5.164063l-8.601562 5.648438c-8.300781 5.46875-10.609375 16.625-5.160156 24.9375zm-5.964844-41.875 8.601562-5.644532c.972656-.644531 2.117188-.988281 3.285156-.992187.414063 0 .828126.042969 1.230469.128906 1.5625.320313 2.929688 1.25 3.800781 2.585938l14.417969 21.949219-18.636719 12.246093-14.421874-21.949219c-1.816407-2.777343-1.046876-6.496093 1.722656-8.324218zm0 0" data-original="#000000" class="active-path" data-old_color="#000000" fill="#bf596d"/><path d="m357.746094 327.125c-14.734375-3.121094-30.015625 1.878906-40.054688 13.113281-10.035156 11.230469-13.296875 26.976563-8.542968 41.269531 4.75 14.292969 16.789062 24.953126 31.554687 27.9375 2.832031.589844 5.714844.886719 8.605469.886719 21.542968-.042969 39.5625-16.367187 41.738281-37.796875 2.171875-21.433594-12.207031-41.039062-33.300781-45.410156zm7.96875 66.261719c-13.863282 9.101562-32.476563 5.246093-41.578125-8.613281-9.101563-13.859376-5.246094-32.476563 8.609375-41.578126 13.859375-9.105468 32.472656-5.253906 41.578125 8.601563 9.09375 13.867187 5.238281 32.476563-8.609375 41.59375zm0 0" data-original="#000000" class="active-path" data-old_color="#000000" fill="#bf596d"/><path d="m340.277344 354.667969c-5.503906 3.621093-8.289063 10.199219-7.050782 16.671875 1.234376 6.472656 6.242188 11.5625 12.691407 12.902344 1.097656.230468 2.21875.34375 3.339843.34375 6.964844-.007813 13.152344-4.445313 15.402344-11.035157 2.25-6.59375.058594-13.886719-5.449218-18.152343-5.503907-4.265626-13.113282-4.558594-18.933594-.730469zm13.152344 14.488281c-.414063 2.003906-2.191407 3.4375-4.238282 3.421875s-3.796875-1.476563-4.183594-3.488281c-.382812-2.011719.707032-4.015625 2.605469-4.785156 1.898438-.765626 4.074219-.089844 5.199219 1.621093.628906.953125.851562 2.117188.617188 3.230469zm0 0" data-original="#000000" class="active-path" data-old_color="#000000" fill="#bf596d"/><path d="m182.15625 164.113281c-5.503906 3.621094-8.289062 10.199219-7.054688 16.671875 1.234376 6.476563 6.246094 11.566406 12.699219 12.90625 1.097657.226563 2.214844.34375 3.335938.34375 6.964843-.011718 13.152343-4.445312 15.402343-11.039062 2.246094-6.589844.058594-13.882813-5.449218-18.148438-5.503906-4.265625-13.113282-4.558594-18.933594-.730468zm13.15625 14.488281c-.417969 2.007813-2.191406 3.4375-4.238281 3.421876-2.050781-.015626-3.800781-1.476563-4.183594-3.488282-.382813-2.011718.707031-4.011718 2.605469-4.78125 1.898437-.769531 4.074218-.089844 5.199218 1.621094.628907.949219.847657 2.113281.617188 3.226562zm0 0" data-original="#000000" class="active-path" data-old_color="#000000" fill="#bf596d"/><path d="m241.941406 137.941406c-7.617187-1.578125-15.285156 2.441406-18.316406 9.605469-3.03125 7.160156-.585938 15.464844 5.847656 19.835937 6.433594 4.371094 15.058594 3.589844 20.597656-1.867187 5.542969-5.457031 6.457032-14.066406 2.183594-20.566406-2.363281-3.621094-6.078125-6.144531-10.3125-7.007813zm.898438 16.828125c-.414063 2.003907-2.191406 3.4375-4.238282 3.421875-2.046874-.015625-3.800781-1.476562-4.183593-3.488281-.386719-2.011719.703125-4.015625 2.601562-4.785156 1.902344-.769531 4.078125-.09375 5.203125 1.621093.632813.949219.855469 2.113282.621094 3.230469zm0 0" data-original="#000000" class="active-path" data-old_color="#000000" fill="#bf596d"/><path d="m275.570312 118.757812c-5.503906 3.621094-8.285156 10.199219-7.050781 16.671876 1.234375 6.472656 6.246094 11.566406 12.695313 12.90625 1.097656.226562 2.214844.34375 3.335937.34375 6.96875-.011719 13.15625-4.449219 15.402344-11.039063 2.25-6.59375.058594-13.886719-5.445313-18.148437-5.507812-4.265626-13.117187-4.558594-18.9375-.734376zm12.539063 11.261719c1.082031 1.644531.910156 3.8125-.417969 5.265625s-3.472656 1.820313-5.207031.886719-2.617187-2.921875-2.136719-4.832031c.480469-1.910156 2.191406-3.25 4.160156-3.253906 1.453126-.003907 2.804688.722656 3.601563 1.933593zm0 0" data-original="#000000" class="active-path" data-old_color="#000000" fill="#bf596d"/><path d="m29.78125 63.65625c-3.820312 5.464844-3.9375 12.703125-.300781 18.292969l19.5625 29.777343c3.671875 5.582032 10.378906 8.355469 16.921875 7l8.238281 12.542969c-3.84375 5.46875-3.957031 12.726563-.285156 18.3125l28.832031 43.902344c1.820312 2.769531 5.542969 3.539063 8.3125 1.71875l34.414062-22.613281c2.769532-1.816406 3.542969-5.539063 1.722657-8.308594l-28.835938-43.898438c-3.675781-5.574218-10.375-8.347656-16.914062-7l-8.25-12.558593c3.832031-5.464844 3.949219-12.714844.292969-18.300781l-19.710938-30c-3.675781-5.582032-10.382812-8.363282-16.925781-7.015626l-8.535157-12.988281c.734376-1.660156 1.1875-3.429687 1.339844-5.238281.4375-4.988281-1.457031-9.898438-5.128906-13.300781l-10.34375-9.632813c-.207031-.191406-.425781-.371094-.65625-.53125-7.113281-4.964844-16.53125-5.097656-23.78125-.335937s-10.867188 13.457031-9.136719 21.957031c.054688.277344.132813.546875.226563.8125l4.734375 13.324219c1.664062 4.722656 5.417969 8.410156 10.167969 9.988281 1.679687.566406 3.4375.855469 5.210937.859375h.128906zm9.933594-22.382812 6.527344 9.9375-7.117188 4.8125-6.589844-10.03125zm44.089844 67.117187 6.976562 10.621094-7.179688 4.714843-6.976562-10.621093zm24.527343 18.585937 25.542969 38.882813-24.386719 16.019531-25.542969-38.878906c-1.300781-1.984375-.75-4.644531 1.230469-5.949219l17.210938-11.304687c1.984375-1.300782 4.644531-.75 5.949219 1.230468zm-47.328125-69.71875c1.128906.222657 2.117188.894532 2.746094 1.855469l19.710938 30c1.300781 1.984375.75 4.644531-1.230469 5.949219l-17.207031 11.308594c-1.984376 1.300781-4.648438.75-5.949219-1.230469l-19.566407-29.78125c-1.28125-1.964844-.753906-4.597656 1.1875-5.917969l17.0625-11.527344c.949219-.648437 2.121094-.882812 3.246094-.65625zm-44.125-21.699218-4.574218-12.878906c-.578126-3.582032 1-7.171876 4.035156-9.164063 3.03125-1.992187 6.953125-2.015625 10.011718-.0625l10 9.3125c.964844.898437 1.460938 2.1875 1.351563 3.503906-.109375 1.3125-.816406 2.503907-1.917969 3.226563l-12.5 8.210937c-1.101562.722657-2.472656.898438-3.722656.480469-1.25-.421875-2.238281-1.390625-2.683594-2.632812zm0 0" data-original="#000000" class="active-path" data-old_color="#000000" fill="#bf596d"/><path d="m161.597656 336.558594-18.394531-3.808594c-6.8125-1.421875-13.828125 1.222656-18.011719 6.785156l-16.898437-3.5.871093-4.207031c.671876-3.246094-1.414062-6.417969-4.660156-7.089844l-23.558594-4.878906c-25.511718-5.273437-50.472656 11.121094-55.769531 36.632813-.671875 3.242187 1.414063 6.417968 4.660157 7.089843l63.886718 13.230469c1.558594.324219 3.179688.015625 4.511719-.859375s2.257813-2.242187 2.578125-3.800781l.871094-4.207032 16.914062 3.5c1.640625 6.75 7.019532 11.957032 13.820313 13.375l18.394531 3.808594c3.246094.671875 6.421875-1.414062 7.09375-4.660156l8.347656-40.324219c.671875-3.246093-1.414062-6.417969-4.65625-7.09375zm-71.316406 27.289062-51.640625-10.691406c6.292969-15.914062 23.109375-25.003906 39.871094-21.546875l17.683593 3.664063zm15.578125-16.0625 15.1875 3.144532-1.742187 8.414062-15.1875-3.144531zm41.511719 27.882813-12.519532-2.59375c-3.246093-.675781-5.332031-3.851563-4.664062-7.097657l3.476562-16.808593c.671876-3.246094 3.851563-5.335938 7.101563-4.664063l12.519531 2.585938zm0 0" data-original="#000000" class="active-path" data-old_color="#000000" fill="#bf596d"/><path d="m186.730469 352.273438c-8.816407-1.824219-17.445313 3.84375-19.269531 12.660156-1.824219 8.816406 3.84375 17.441406 12.660156 19.265625s17.441406-3.847657 19.265625-12.664063c.902343-4.234375.074219-8.65625-2.304688-12.273437-2.378906-3.621094-6.109375-6.136719-10.351562-6.988281zm.898437 16.828124c-.457031 2.210938-2.550781 3.6875-4.785156 3.382813s-3.855469-2.289063-3.703125-4.539063c.148437-2.253906 2.015625-4.003906 4.273437-4.007812.296876 0 .589844.027344.878907.089844 2.324219.480468 3.816406 2.753906 3.335937 5.074218zm0 0" data-original="#000000" class="active-path" data-old_color="#000000" fill="#bf596d"/><path d="m143.730469 186.445312c-7.617188-1.578124-15.285157 2.445313-18.320313 9.605469-3.03125 7.160157-.582031 15.464844 5.847656 19.835938 6.433594 4.371093 15.058594 3.589843 20.597657-1.863281 5.542969-5.457032 6.457031-14.070313 2.1875-20.566407-2.363281-3.621093-6.078125-6.148437-10.3125-7.011719zm.898437 16.828126c-.460937 2.207031-2.550781 3.683593-4.785156 3.378906-2.234375-.304688-3.851562-2.289063-3.703125-4.539063.152344-2.25 2.019531-4 4.273437-4.007812.296876 0 .589844.03125.878907.089843 2.324219.484376 3.816406 2.753907 3.335937 5.078126zm0 0" data-original="#000000" class="active-path" data-old_color="#000000" fill="#bf596d"/><path d="m449.1875 392.742188-36.699219-55.875c-1.820312-2.769532-5.542969-3.539063-8.3125-1.71875l-7.882812 5.179687c-2.527344 1.660156-3.421875 4.945313-2.085938 7.660156 10.886719 22.214844 3.546875 49.058594-17.128906 62.640625-20.675781 13.582032-48.226563 9.660156-64.292969-9.152344-1.960937-2.304687-5.332031-2.789062-7.863281-1.125l-7.035156 4.621094c-2.769531 1.816406-3.539063 5.539063-1.722657 8.308594l36.707032 55.875c5.535156 8.410156 16.832031 10.75 25.25 5.226562l85.839844-56.390624c8.414062-5.53125 10.753906-16.835938 5.226562-25.25zm-11.816406 15.222656-85.835938 56.390625c-2.878906 1.886719-6.742187 1.085937-8.636718-1.789063l-28.507813-43.394531c21.007813 15.121094 49.257813 15.371094 70.527344.621094 21.269531-14.746094 30.945312-41.292969 24.148437-66.265625l30.089844 45.804687c1.886719 2.878907 1.089844 6.738281-1.78125 8.632813zm0 0" data-original="#000000" class="active-path" data-old_color="#000000" fill="#bf596d"/></g> </svg>
