<?xml version="1.0" encoding="UTF-8" standalone="no"?>
<svg
   xmlns:dc="http://purl.org/dc/elements/1.1/"
   xmlns:cc="http://creativecommons.org/ns#"
   xmlns:rdf="http://www.w3.org/1999/02/22-rdf-syntax-ns#"
   xmlns:svg="http://www.w3.org/2000/svg"
   xmlns="http://www.w3.org/2000/svg"
   id="svg2"
   height="31.999996"
   width="31.999996"
   version="1.0">
  <metadata
     id="metadata2841">
    <rdf:RDF>
      <cc:Work
         rdf:about="">
        <dc:format>image/svg+xml</dc:format>
        <dc:type
           rdf:resource="http://purl.org/dc/dcmitype/StillImage" />
        <dc:title></dc:title>
      </cc:Work>
    </rdf:RDF>
  </metadata>
  <defs
     id="defs4">
    <path
       style="fill:#ff0000;fill-rule:evenodd;stroke:none"
       id="path2383-2"
       d="m 554.80182,300.88459 a 230.43357,230.43357 0 0 1 -460.86713,0 230.43357,230.43357 0 1 1 460.86713,0 z" />
    <path
       style="fill:#ff0000;fill-rule:evenodd;stroke:none"
       id="path2383-8"
       d="m 554.80182,300.88459 a 230.43357,230.43357 0 0 1 -460.86713,0 230.43357,230.43357 0 1 1 460.86713,0 z" />
    <path
       style="fill:#ff0000;fill-rule:evenodd;stroke:none"
       id="path2383-8-0"
       d="m 554.80182,300.88459 a 230.43357,230.43357 0 0 1 -460.86713,0 230.43357,230.43357 0 1 1 460.86713,0 z" />
    <path
       style="fill:#ff0000;fill-rule:evenodd;stroke:none"
       id="path2383-5"
       d="m 554.80182,300.88459 a 230.43357,230.43357 0 0 1 -460.86713,0 230.43357,230.43357 0 1 1 460.86713,0 z" />
  </defs>
  <g
     id="layer1"
     transform="translate(-354.58838,-361.3798)">
    <g
       id="g2401"
       transform="matrix(1.609273,0,0,1.609273,-148.70649,-109.97004)">
      <g
         transform="matrix(0.04314639,0,0,0.04314639,308.76624,289.77212)"
         id="g4143">
        <path
           d="m 553.12268,302.83851 a 230.43357,230.43357 0 0 1 -460.867144,0 230.43357,230.43357 0 1 1 460.867144,0 z"
           id="path2383-87"
           style="fill:#ff0000;fill-rule:evenodd;stroke:none" />
        <g
           transform="matrix(0.88107114,0,0,-0.88107114,63.597162,587.86621)"
           id="g4323">
          <path
             id="path194"
             style="fill:#ffffff;fill-opacity:1;fill-rule:nonzero;stroke:none"
             d="m 348.012,239.196 c 6.238,7.926 13.695,11.867 22.375,11.828 8.675,-0.043 16.281,-4.137 22.812,-12.281 6.531,-8.137 9.895,-17.668 10.094,-28.594 0.195,-10.918 -2.766,-20.105 -8.891,-27.562 -6.117,-7.446 -13.64,-11.149 -22.578,-11.11 -9.187,0.055 -16.918,3.914 -23.187,11.578 -6.262,7.664 -9.496,17.118 -9.703,28.36 -0.188,10.601 2.836,19.863 9.078,27.781 z m 50.906,213.891 c 0.156,-9.055 -1.086,-18.336 -3.719,-27.844 -2.637,-9.5 -6.047,-25.711 -10.234,-48.625 -4.18,-22.906 -7.465,-52.758 -9.86,-89.547 l -11.109,0.047 c -3.687,34.633 -7.98,63.586 -12.875,86.859 -4.887,23.27 -8.898,40.219 -12.031,50.844 -3.125,10.625 -4.766,20.305 -4.922,29.047 -0.273,14.969 2.328,26.57 7.797,34.812 5.476,8.25 13.453,12.348 23.922,12.297 10.207,-0.043 18.195,-4.293 23.968,-12.75 5.77,-8.461 8.79,-20.172 9.063,-35.14" />
          <path
             id="path196"
             style="fill:#ffffff;fill-opacity:1;fill-rule:nonzero;stroke:none"
             d="m 327.148,188.29 0.172,-11.703 -103.359,0.609 -0.172,11.703 c 1.281,-0.012 2.719,0.133 4.313,0.438 1.593,0.3 2.867,0.523 3.828,0.672 0.957,0.156 1.648,0.234 2.078,0.234 10.238,0.25 15.281,5.519 15.125,15.812 -0.156,10.289 -5.485,31.235 -15.985,62.829 l -71.671,0.406 -4.219,-17.781 c -6.063,-23.043 -9.055,-37.372 -8.969,-42.985 0.094,-6.242 2.133,-10.777 6.125,-13.609 3.988,-2.836 10.797,-4.746 20.422,-5.735 l 0.172,-11.703 -64.969,0.375 -0.172,11.703 c 7.656,2.133 13.25,6.313 16.781,12.532 3.532,6.226 8.114,20.238 13.75,42.031 l 67.5,256.094 8.641,-0.063 75.063,-246.609 c 8.312,-27.813 14.609,-45.633 18.89,-53.453 4.281,-7.825 9.617,-11.758 16.016,-11.797 l 0.64,0 z m -161.156,99.687 62.391,-0.359 -34.031,113.906" />
        </g>
      </g>
    </g>
  </g>
</svg>
